<?xml version="1.0" encoding="utf-8" standalone="no"?>
<!DOCTYPE svg PUBLIC "-//W3C//DTD SVG 1.1//EN"
  "http://www.w3.org/Graphics/SVG/1.1/DTD/svg11.dtd">
<svg xmlns:xlink="http://www.w3.org/1999/xlink" width="547.2pt" height="223.2pt" viewBox="0 0 547.2 223.2" xmlns="http://www.w3.org/2000/svg" version="1.1">
 <metadata>
  <rdf:RDF xmlns:dc="http://purl.org/dc/elements/1.1/" xmlns:cc="http://creativecommons.org/ns#" xmlns:rdf="http://www.w3.org/1999/02/22-rdf-syntax-ns#">
   <cc:Work>
    <dc:type rdf:resource="http://purl.org/dc/dcmitype/StillImage"/>
    <dc:date>2026-07-22T12:55:30.829754</dc:date>
    <dc:format>image/svg+xml</dc:format>
    <dc:creator>
     <cc:Agent>
      <dc:title>Matplotlib v3.11.1, https://matplotlib.org/</dc:title>
     </cc:Agent>
    </dc:creator>
   </cc:Work>
  </rdf:RDF>
 </metadata>
 <defs>
  <style type="text/css">*{stroke-linejoin: round; stroke-linecap: butt}</style>
 </defs>
 <g id="figure_1">
  <g id="patch_1">
   <path d="M 0 223.2 
L 547.2 223.2 
L 547.2 0 
L 0 0 
L 0 223.2 
z
" style="fill: none"/>
  </g>
  <g id="axes_1">
   <g id="patch_2">
    <path d="M 41.782227 189.197773 
L 537.64 189.197773 
L 537.64 7.408887 
L 41.782227 7.408887 
L 41.782227 189.197773 
z
" style="fill: none"/>
   </g>
   <g id="matplotlib.axis_1">
    <g id="xtick_1">
     <g id="line2d_1">
      <path d="M 41.782227 189.197773 
L 41.782227 7.408887 
" clip-path="url(#pb9e5dc5788)" style="fill: none; stroke: #d6cfc0; stroke-width: 0.6; stroke-linecap: square"/>
     </g>
     <g id="line2d_2">
      <defs>
       <path id="mbda01d9a12" d="M 0 0 
L 0 3 
" style="stroke: #8a9086; stroke-width: 0.8"/>
      </defs>
      <g>
       <use xlink:href="#mbda01d9a12" x="41.782227" y="189.197773" style="fill: #8a9086; stroke: #8a9086; stroke-width: 0.8"/>
      </g>
     </g>
     <g id="text_1">
      <!-- 0 -->
      <g style="fill: #8a9086" transform="translate(38.922578 202.915547) scale(0.095 -0.095)">
       <defs>
        <path id="DejaVuSansMono-13" d="M 1509 2344 
Q 1509 2516 1629 2641 
Q 1750 2766 1919 2766 
Q 2094 2766 2219 2641 
Q 2344 2516 2344 2344 
Q 2344 2169 2220 2047 
Q 2097 1925 1919 1925 
Q 1744 1925 1626 2044 
Q 1509 2163 1509 2344 
z
M 1925 4250 
Q 1484 4250 1267 3775 
Q 1050 3300 1050 2328 
Q 1050 1359 1267 884 
Q 1484 409 1925 409 
Q 2369 409 2586 884 
Q 2803 1359 2803 2328 
Q 2803 3300 2586 3775 
Q 2369 4250 1925 4250 
z
M 1925 4750 
Q 2672 4750 3055 4137 
Q 3438 3525 3438 2328 
Q 3438 1134 3055 521 
Q 2672 -91 1925 -91 
Q 1178 -91 797 521 
Q 416 1134 416 2328 
Q 416 3525 797 4137 
Q 1178 4750 1925 4750 
z
" transform="scale(0.015625)"/>
       </defs>
       <use xlink:href="#DejaVuSansMono-13"/>
      </g>
     </g>
    </g>
    <g id="xtick_2">
     <g id="line2d_3">
      <path d="M 124.425189 189.197773 
L 124.425189 7.408887 
" clip-path="url(#pb9e5dc5788)" style="fill: none; stroke: #d6cfc0; stroke-width: 0.6; stroke-linecap: square"/>
     </g>
     <g id="line2d_4">
      <g>
       <use xlink:href="#mbda01d9a12" x="124.425189" y="189.197773" style="fill: #8a9086; stroke: #8a9086; stroke-width: 0.8"/>
      </g>
     </g>
     <g id="text_2">
      <!-- 10 -->
      <g style="fill: #8a9086" transform="translate(118.705892 202.915547) scale(0.095 -0.095)">
       <defs>
        <path id="DejaVuSansMono-14" d="M 844 531 
L 1825 531 
L 1825 4097 
L 769 3859 
L 769 4434 
L 1819 4666 
L 2450 4666 
L 2450 531 
L 3419 531 
L 3419 0 
L 844 0 
L 844 531 
z
" transform="scale(0.015625)"/>
       </defs>
       <use xlink:href="#DejaVuSansMono-14"/>
       <use xlink:href="#DejaVuSansMono-13" transform="translate(60.203125 0)"/>
      </g>
     </g>
    </g>
    <g id="xtick_3">
     <g id="line2d_5">
      <path d="M 207.068151 189.197773 
L 207.068151 7.408887 
" clip-path="url(#pb9e5dc5788)" style="fill: none; stroke: #d6cfc0; stroke-width: 0.6; stroke-linecap: square"/>
     </g>
     <g id="line2d_6">
      <g>
       <use xlink:href="#mbda01d9a12" x="207.068151" y="189.197773" style="fill: #8a9086; stroke: #8a9086; stroke-width: 0.8"/>
      </g>
     </g>
     <g id="text_3">
      <!-- 20 -->
      <g style="fill: #8a9086" transform="translate(201.348854 202.915547) scale(0.095 -0.095)">
       <defs>
        <path id="DejaVuSansMono-15" d="M 1166 531 
L 3309 531 
L 3309 0 
L 475 0 
L 475 531 
Q 1059 1147 1496 1619 
Q 1934 2091 2100 2284 
Q 2413 2666 2522 2902 
Q 2631 3138 2631 3384 
Q 2631 3775 2401 3997 
Q 2172 4219 1772 4219 
Q 1488 4219 1175 4116 
Q 863 4013 513 3803 
L 513 4441 
Q 834 4594 1145 4672 
Q 1456 4750 1759 4750 
Q 2444 4750 2861 4386 
Q 3278 4022 3278 3431 
Q 3278 3131 3139 2831 
Q 3000 2531 2688 2169 
Q 2513 1966 2180 1606 
Q 1847 1247 1166 531 
z
" transform="scale(0.015625)"/>
       </defs>
       <use xlink:href="#DejaVuSansMono-15"/>
       <use xlink:href="#DejaVuSansMono-13" transform="translate(60.203125 0)"/>
      </g>
     </g>
    </g>
    <g id="xtick_4">
     <g id="line2d_7">
      <path d="M 289.711113 189.197773 
L 289.711113 7.408887 
" clip-path="url(#pb9e5dc5788)" style="fill: none; stroke: #d6cfc0; stroke-width: 0.6; stroke-linecap: square"/>
     </g>
     <g id="line2d_8">
      <g>
       <use xlink:href="#mbda01d9a12" x="289.711113" y="189.197773" style="fill: #8a9086; stroke: #8a9086; stroke-width: 0.8"/>
      </g>
     </g>
     <g id="text_4">
      <!-- 30 -->
      <g style="fill: #8a9086" transform="translate(283.991816 202.915547) scale(0.095 -0.095)">
       <defs>
        <path id="DejaVuSansMono-16" d="M 2425 2497 
Q 2884 2375 3128 2064 
Q 3372 1753 3372 1288 
Q 3372 644 2939 276 
Q 2506 -91 1741 -91 
Q 1419 -91 1084 -31 
Q 750 28 428 141 
L 428 769 
Q 747 603 1056 522 
Q 1366 441 1672 441 
Q 2191 441 2469 675 
Q 2747 909 2747 1350 
Q 2747 1756 2469 1995 
Q 2191 2234 1716 2234 
L 1234 2234 
L 1234 2753 
L 1716 2753 
Q 2150 2753 2394 2943 
Q 2638 3134 2638 3475 
Q 2638 3834 2411 4026 
Q 2184 4219 1766 4219 
Q 1488 4219 1191 4156 
Q 894 4094 569 3969 
L 569 4550 
Q 947 4650 1242 4700 
Q 1538 4750 1766 4750 
Q 2447 4750 2855 4408 
Q 3263 4066 3263 3500 
Q 3263 3116 3048 2859 
Q 2834 2603 2425 2497 
z
" transform="scale(0.015625)"/>
       </defs>
       <use xlink:href="#DejaVuSansMono-16"/>
       <use xlink:href="#DejaVuSansMono-13" transform="translate(60.203125 0)"/>
      </g>
     </g>
    </g>
    <g id="xtick_5">
     <g id="line2d_9">
      <path d="M 372.354076 189.197773 
L 372.354076 7.408887 
" clip-path="url(#pb9e5dc5788)" style="fill: none; stroke: #d6cfc0; stroke-width: 0.6; stroke-linecap: square"/>
     </g>
     <g id="line2d_10">
      <g>
       <use xlink:href="#mbda01d9a12" x="372.354076" y="189.197773" style="fill: #8a9086; stroke: #8a9086; stroke-width: 0.8"/>
      </g>
     </g>
     <g id="text_5">
      <!-- 40 -->
      <g style="fill: #8a9086" transform="translate(366.634779 202.915547) scale(0.095 -0.095)">
       <defs>
        <path id="DejaVuSansMono-17" d="M 2297 4091 
L 825 1625 
L 2297 1625 
L 2297 4091 
z
M 2194 4666 
L 2925 4666 
L 2925 1625 
L 3547 1625 
L 3547 1113 
L 2925 1113 
L 2925 0 
L 2297 0 
L 2297 1113 
L 319 1113 
L 319 1709 
L 2194 4666 
z
" transform="scale(0.015625)"/>
       </defs>
       <use xlink:href="#DejaVuSansMono-17"/>
       <use xlink:href="#DejaVuSansMono-13" transform="translate(60.203125 0)"/>
      </g>
     </g>
    </g>
    <g id="xtick_6">
     <g id="line2d_11">
      <path d="M 454.997038 189.197773 
L 454.997038 7.408887 
" clip-path="url(#pb9e5dc5788)" style="fill: none; stroke: #d6cfc0; stroke-width: 0.6; stroke-linecap: square"/>
     </g>
     <g id="line2d_12">
      <g>
       <use xlink:href="#mbda01d9a12" x="454.997038" y="189.197773" style="fill: #8a9086; stroke: #8a9086; stroke-width: 0.8"/>
      </g>
     </g>
     <g id="text_6">
      <!-- 50 -->
      <g style="fill: #8a9086" transform="translate(449.277741 202.915547) scale(0.095 -0.095)">
       <defs>
        <path id="DejaVuSansMono-18" d="M 647 4666 
L 3009 4666 
L 3009 4134 
L 1222 4134 
L 1222 2988 
Q 1356 3038 1492 3061 
Q 1628 3084 1766 3084 
Q 2491 3084 2916 2656 
Q 3341 2228 3341 1497 
Q 3341 759 2895 334 
Q 2450 -91 1678 -91 
Q 1306 -91 998 -41 
Q 691 9 447 109 
L 447 750 
Q 734 594 1025 517 
Q 1316 441 1619 441 
Q 2141 441 2423 716 
Q 2706 991 2706 1497 
Q 2706 1997 2414 2275 
Q 2122 2553 1600 2553 
Q 1347 2553 1106 2495 
Q 866 2438 647 2322 
L 647 4666 
z
" transform="scale(0.015625)"/>
       </defs>
       <use xlink:href="#DejaVuSansMono-18"/>
       <use xlink:href="#DejaVuSansMono-13" transform="translate(60.203125 0)"/>
      </g>
     </g>
    </g>
    <g id="xtick_7">
     <g id="line2d_13">
      <path d="M 537.64 189.197773 
L 537.64 7.408887 
" clip-path="url(#pb9e5dc5788)" style="fill: none; stroke: #d6cfc0; stroke-width: 0.6; stroke-linecap: square"/>
     </g>
     <g id="line2d_14">
      <g>
       <use xlink:href="#mbda01d9a12" x="537.64" y="189.197773" style="fill: #8a9086; stroke: #8a9086; stroke-width: 0.8"/>
      </g>
     </g>
     <g id="text_7">
      <!-- 60 -->
      <g style="fill: #8a9086" transform="translate(531.920703 202.915547) scale(0.095 -0.095)">
       <defs>
        <path id="DejaVuSansMono-19" d="M 3097 4563 
L 3097 3981 
Q 2900 4097 2678 4158 
Q 2456 4219 2216 4219 
Q 1616 4219 1306 3767 
Q 997 3316 997 2438 
Q 1147 2750 1412 2917 
Q 1678 3084 2022 3084 
Q 2697 3084 3067 2670 
Q 3438 2256 3438 1497 
Q 3438 741 3056 325 
Q 2675 -91 1984 -91 
Q 1172 -91 794 492 
Q 416 1075 416 2328 
Q 416 3509 870 4129 
Q 1325 4750 2188 4750 
Q 2419 4750 2650 4701 
Q 2881 4653 3097 4563 
z
M 1972 2591 
Q 1569 2591 1337 2300 
Q 1106 2009 1106 1497 
Q 1106 984 1337 693 
Q 1569 403 1972 403 
Q 2391 403 2603 679 
Q 2816 956 2816 1497 
Q 2816 2041 2603 2316 
Q 2391 2591 1972 2591 
z
" transform="scale(0.015625)"/>
       </defs>
       <use xlink:href="#DejaVuSansMono-19"/>
       <use xlink:href="#DejaVuSansMono-13" transform="translate(60.203125 0)"/>
      </g>
     </g>
    </g>
    <g id="text_8">
     <!-- time replaying the fall loop (s) -->
     <g style="fill: #5d655b" transform="translate(198.202363 216.466758) scale(0.095 -0.095)">
      <defs>
       <path id="DejaVuSansMono-57" d="M 1919 4494 
L 1919 3500 
L 3225 3500 
L 3225 3053 
L 1919 3053 
L 1919 1153 
Q 1919 766 2066 612 
Q 2213 459 2578 459 
L 3225 459 
L 3225 0 
L 2522 0 
Q 1875 0 1609 259 
Q 1344 519 1344 1153 
L 1344 3053 
L 409 3053 
L 409 3500 
L 1344 3500 
L 1344 4494 
L 1919 4494 
z
" transform="scale(0.015625)"/>
       <path id="DejaVuSansMono-4c" d="M 800 3500 
L 2272 3500 
L 2272 447 
L 3413 447 
L 3413 0 
L 556 0 
L 556 447 
L 1697 447 
L 1697 3053 
L 800 3053 
L 800 3500 
z
M 1697 4863 
L 2272 4863 
L 2272 4134 
L 1697 4134 
L 1697 4863 
z
" transform="scale(0.015625)"/>
       <path id="DejaVuSansMono-50" d="M 2113 3144 
Q 2219 3369 2383 3476 
Q 2547 3584 2778 3584 
Q 3200 3584 3373 3257 
Q 3547 2931 3547 2028 
L 3547 0 
L 3022 0 
L 3022 2003 
Q 3022 2744 2939 2923 
Q 2856 3103 2638 3103 
Q 2388 3103 2295 2911 
Q 2203 2719 2203 2003 
L 2203 0 
L 1678 0 
L 1678 2003 
Q 1678 2753 1589 2928 
Q 1500 3103 1269 3103 
Q 1041 3103 952 2911 
Q 863 2719 863 2003 
L 863 0 
L 341 0 
L 341 3500 
L 863 3500 
L 863 3200 
Q 966 3388 1120 3486 
Q 1275 3584 1472 3584 
Q 1709 3584 1867 3475 
Q 2025 3366 2113 3144 
z
" transform="scale(0.015625)"/>
       <path id="DejaVuSansMono-48" d="M 3475 1894 
L 3475 1613 
L 984 1613 
L 984 1594 
Q 984 1022 1282 709 
Q 1581 397 2125 397 
Q 2400 397 2700 484 
Q 3000 572 3341 750 
L 3341 178 
Q 3013 44 2708 -23 
Q 2403 -91 2119 -91 
Q 1303 -91 843 398 
Q 384 888 384 1747 
Q 384 2584 834 3084 
Q 1284 3584 2034 3584 
Q 2703 3584 3089 3131 
Q 3475 2678 3475 1894 
z
M 2900 2063 
Q 2888 2569 2661 2833 
Q 2434 3097 2009 3097 
Q 1594 3097 1325 2822 
Q 1056 2547 1006 2059 
L 2900 2063 
z
" transform="scale(0.015625)"/>
       <path id="DejaVuSansMono-3" transform="scale(0.015625)"/>
       <path id="DejaVuSansMono-55" d="M 3609 2778 
Q 3425 2922 3234 2987 
Q 3044 3053 2816 3053 
Q 2278 3053 1993 2715 
Q 1709 2378 1709 1741 
L 1709 0 
L 1131 0 
L 1131 3500 
L 1709 3500 
L 1709 2816 
Q 1853 3188 2151 3386 
Q 2450 3584 2859 3584 
Q 3072 3584 3256 3531 
Q 3441 3478 3609 3366 
L 3609 2778 
z
" transform="scale(0.015625)"/>
       <path id="DejaVuSansMono-53" d="M 1172 441 
L 1172 -1331 
L 594 -1331 
L 594 3500 
L 1172 3500 
L 1172 3053 
Q 1316 3313 1555 3448 
Q 1794 3584 2106 3584 
Q 2741 3584 3102 3093 
Q 3463 2603 3463 1734 
Q 3463 881 3100 395 
Q 2738 -91 2106 -91 
Q 1788 -91 1548 45 
Q 1309 181 1172 441 
z
M 2859 1747 
Q 2859 2416 2648 2756 
Q 2438 3097 2022 3097 
Q 1603 3097 1387 2755 
Q 1172 2413 1172 1747 
Q 1172 1084 1387 740 
Q 1603 397 2022 397 
Q 2438 397 2648 737 
Q 2859 1078 2859 1747 
z
" transform="scale(0.015625)"/>
       <path id="DejaVuSansMono-4f" d="M 1997 1269 
Q 1997 881 2139 684 
Q 2281 488 2559 488 
L 3231 488 
L 3231 0 
L 2503 0 
Q 1988 0 1705 331 
Q 1422 663 1422 1269 
L 1422 4447 
L 500 4447 
L 500 4897 
L 1997 4897 
L 1997 1269 
z
" transform="scale(0.015625)"/>
       <path id="DejaVuSansMono-44" d="M 2194 1759 
L 2003 1759 
Q 1500 1759 1245 1582 
Q 991 1406 991 1056 
Q 991 741 1181 566 
Q 1372 391 1709 391 
Q 2184 391 2456 720 
Q 2728 1050 2731 1631 
L 2731 1759 
L 2194 1759 
z
M 3309 1997 
L 3309 0 
L 2731 0 
L 2731 519 
Q 2547 206 2267 57 
Q 1988 -91 1588 -91 
Q 1053 -91 734 211 
Q 416 513 416 1019 
Q 416 1603 808 1906 
Q 1200 2209 1959 2209 
L 2731 2209 
L 2731 2300 
Q 2728 2719 2518 2908 
Q 2309 3097 1850 3097 
Q 1556 3097 1256 3012 
Q 956 2928 672 2766 
L 672 3341 
Q 991 3463 1283 3523 
Q 1575 3584 1850 3584 
Q 2284 3584 2592 3456 
Q 2900 3328 3091 3072 
Q 3209 2916 3259 2686 
Q 3309 2456 3309 1997 
z
" transform="scale(0.015625)"/>
       <path id="DejaVuSansMono-5c" d="M 2681 1125 
Q 2538 759 2316 163 
Q 2006 -663 1900 -844 
Q 1756 -1088 1540 -1209 
Q 1325 -1331 1038 -1331 
L 575 -1331 
L 575 -850 
L 916 -850 
Q 1169 -850 1312 -703 
Q 1456 -556 1678 56 
L 325 3500 
L 934 3500 
L 1972 763 
L 2994 3500 
L 3603 3500 
L 2681 1125 
z
" transform="scale(0.015625)"/>
       <path id="DejaVuSansMono-51" d="M 3284 2169 
L 3284 0 
L 2706 0 
L 2706 2169 
Q 2706 2641 2540 2862 
Q 2375 3084 2022 3084 
Q 1619 3084 1401 2798 
Q 1184 2513 1184 1978 
L 1184 0 
L 609 0 
L 609 3500 
L 1184 3500 
L 1184 2975 
Q 1338 3275 1600 3429 
Q 1863 3584 2222 3584 
Q 2756 3584 3020 3232 
Q 3284 2881 3284 2169 
z
" transform="scale(0.015625)"/>
       <path id="DejaVuSansMono-4a" d="M 2681 1778 
Q 2681 2425 2470 2761 
Q 2259 3097 1856 3097 
Q 1434 3097 1212 2761 
Q 991 2425 991 1778 
Q 991 1131 1214 792 
Q 1438 453 1863 453 
Q 2259 453 2470 793 
Q 2681 1134 2681 1778 
z
M 3256 225 
Q 3256 -563 2884 -969 
Q 2513 -1375 1791 -1375 
Q 1553 -1375 1293 -1331 
Q 1034 -1288 775 -1203 
L 775 -634 
Q 1081 -778 1331 -847 
Q 1581 -916 1791 -916 
Q 2256 -916 2468 -662 
Q 2681 -409 2681 141 
L 2681 166 
L 2681 556 
Q 2544 263 2306 119 
Q 2069 -25 1728 -25 
Q 1116 -25 750 465 
Q 384 956 384 1778 
Q 384 2603 750 3093 
Q 1116 3584 1728 3584 
Q 2066 3584 2300 3450 
Q 2534 3316 2681 3034 
L 2681 3488 
L 3256 3488 
L 3256 225 
z
" transform="scale(0.015625)"/>
       <path id="DejaVuSansMono-4b" d="M 3284 2169 
L 3284 0 
L 2706 0 
L 2706 2169 
Q 2706 2641 2540 2862 
Q 2375 3084 2022 3084 
Q 1619 3084 1401 2798 
Q 1184 2513 1184 1978 
L 1184 0 
L 609 0 
L 609 4863 
L 1184 4863 
L 1184 2975 
Q 1338 3275 1600 3429 
Q 1863 3584 2222 3584 
Q 2756 3584 3020 3232 
Q 3284 2881 3284 2169 
z
" transform="scale(0.015625)"/>
       <path id="DejaVuSansMono-49" d="M 3322 4863 
L 3322 4384 
L 2669 4384 
Q 2359 4384 2239 4257 
Q 2119 4131 2119 3809 
L 2119 3500 
L 3322 3500 
L 3322 3053 
L 2119 3053 
L 2119 0 
L 1544 0 
L 1544 3053 
L 609 3053 
L 609 3500 
L 1544 3500 
L 1544 3744 
Q 1544 4319 1808 4591 
Q 2072 4863 2631 4863 
L 3322 4863 
z
" transform="scale(0.015625)"/>
       <path id="DejaVuSansMono-52" d="M 1925 3097 
Q 1488 3097 1263 2756 
Q 1038 2416 1038 1747 
Q 1038 1081 1263 739 
Q 1488 397 1925 397 
Q 2366 397 2591 739 
Q 2816 1081 2816 1747 
Q 2816 2416 2591 2756 
Q 2366 3097 1925 3097 
z
M 1925 3584 
Q 2653 3584 3039 3112 
Q 3425 2641 3425 1747 
Q 3425 850 3040 379 
Q 2656 -91 1925 -91 
Q 1197 -91 812 379 
Q 428 850 428 1747 
Q 428 2641 812 3112 
Q 1197 3584 1925 3584 
z
" transform="scale(0.015625)"/>
       <path id="DejaVuSansMono-b" d="M 2766 4856 
Q 2350 4144 2145 3436 
Q 1941 2728 1941 2009 
Q 1941 1294 2145 584 
Q 2350 -125 2766 -844 
L 2266 -844 
Q 1794 -100 1562 604 
Q 1331 1309 1331 2009 
Q 1331 2706 1562 3412 
Q 1794 4119 2266 4856 
L 2766 4856 
z
" transform="scale(0.015625)"/>
       <path id="DejaVuSansMono-56" d="M 3041 3378 
L 3041 2816 
Q 2794 2959 2544 3031 
Q 2294 3103 2034 3103 
Q 1644 3103 1451 2976 
Q 1259 2850 1259 2591 
Q 1259 2356 1403 2240 
Q 1547 2125 2119 2016 
L 2350 1972 
Q 2778 1891 2998 1647 
Q 3219 1403 3219 1013 
Q 3219 494 2850 201 
Q 2481 -91 1825 -91 
Q 1566 -91 1281 -36 
Q 997 19 666 128 
L 666 722 
Q 988 556 1281 473 
Q 1575 391 1838 391 
Q 2219 391 2428 545 
Q 2638 700 2638 978 
Q 2638 1378 1872 1531 
L 1847 1538 
L 1631 1581 
Q 1134 1678 906 1908 
Q 678 2138 678 2534 
Q 678 3038 1018 3311 
Q 1359 3584 1991 3584 
Q 2272 3584 2531 3532 
Q 2791 3481 3041 3378 
z
" transform="scale(0.015625)"/>
       <path id="DejaVuSansMono-c" d="M 1088 4856 
L 1588 4856 
Q 2059 4119 2290 3412 
Q 2522 2706 2522 2009 
Q 2522 1306 2290 600 
Q 2059 -106 1588 -844 
L 1088 -844 
Q 1503 -119 1708 590 
Q 1913 1300 1913 2009 
Q 1913 2722 1708 3431 
Q 1503 4141 1088 4856 
z
" transform="scale(0.015625)"/>
      </defs>
      <use xlink:href="#DejaVuSansMono-57"/>
      <use xlink:href="#DejaVuSansMono-4c" transform="translate(60.203125 0)"/>
      <use xlink:href="#DejaVuSansMono-50" transform="translate(120.40625 0)"/>
      <use xlink:href="#DejaVuSansMono-48" transform="translate(180.609375 0)"/>
      <use xlink:href="#DejaVuSansMono-3" transform="translate(240.8125 0)"/>
      <use xlink:href="#DejaVuSansMono-55" transform="translate(301.015625 0)"/>
      <use xlink:href="#DejaVuSansMono-48" transform="translate(361.21875 0)"/>
      <use xlink:href="#DejaVuSansMono-53" transform="translate(421.421875 0)"/>
      <use xlink:href="#DejaVuSansMono-4f" transform="translate(481.625 0)"/>
      <use xlink:href="#DejaVuSansMono-44" transform="translate(541.828125 0)"/>
      <use xlink:href="#DejaVuSansMono-5c" transform="translate(602.03125 0)"/>
      <use xlink:href="#DejaVuSansMono-4c" transform="translate(662.234375 0)"/>
      <use xlink:href="#DejaVuSansMono-51" transform="translate(722.4375 0)"/>
      <use xlink:href="#DejaVuSansMono-4a" transform="translate(782.640625 0)"/>
      <use xlink:href="#DejaVuSansMono-3" transform="translate(842.84375 0)"/>
      <use xlink:href="#DejaVuSansMono-57" transform="translate(903.046875 0)"/>
      <use xlink:href="#DejaVuSansMono-4b" transform="translate(963.25 0)"/>
      <use xlink:href="#DejaVuSansMono-48" transform="translate(1023.453125 0)"/>
      <use xlink:href="#DejaVuSansMono-3" transform="translate(1083.65625 0)"/>
      <use xlink:href="#DejaVuSansMono-49" transform="translate(1143.859375 0)"/>
      <use xlink:href="#DejaVuSansMono-44" transform="translate(1204.0625 0)"/>
      <use xlink:href="#DejaVuSansMono-4f" transform="translate(1264.265625 0)"/>
      <use xlink:href="#DejaVuSansMono-4f" transform="translate(1324.46875 0)"/>
      <use xlink:href="#DejaVuSansMono-3" transform="translate(1384.671875 0)"/>
      <use xlink:href="#DejaVuSansMono-4f" transform="translate(1444.875 0)"/>
      <use xlink:href="#DejaVuSansMono-52" transform="translate(1505.078125 0)"/>
      <use xlink:href="#DejaVuSansMono-52" transform="translate(1565.28125 0)"/>
      <use xlink:href="#DejaVuSansMono-53" transform="translate(1625.484375 0)"/>
      <use xlink:href="#DejaVuSansMono-3" transform="translate(1685.6875 0)"/>
      <use xlink:href="#DejaVuSansMono-b" transform="translate(1745.890625 0)"/>
      <use xlink:href="#DejaVuSansMono-56" transform="translate(1806.09375 0)"/>
      <use xlink:href="#DejaVuSansMono-c" transform="translate(1866.296875 0)"/>
     </g>
    </g>
   </g>
   <g id="matplotlib.axis_2">
    <g id="ytick_1">
     <g id="line2d_15">
      <path d="M 41.782227 189.197773 
L 537.64 189.197773 
" clip-path="url(#pb9e5dc5788)" style="fill: none; stroke: #d6cfc0; stroke-width: 0.6; stroke-linecap: square"/>
     </g>
     <g id="line2d_16">
      <defs>
       <path id="me73b45b6dc" d="M 0 0 
L -3 0 
" style="stroke: #8a9086; stroke-width: 0.8"/>
      </defs>
      <g>
       <use xlink:href="#me73b45b6dc" x="41.782227" y="189.197773" style="fill: #8a9086; stroke: #8a9086; stroke-width: 0.8"/>
      </g>
     </g>
     <g id="text_9">
      <!-- 0 -->
      <g style="fill: #8a9086" transform="translate(29.56293 192.80666) scale(0.095 -0.095)">
       <use xlink:href="#DejaVuSansMono-13"/>
      </g>
     </g>
    </g>
    <g id="ytick_2">
     <g id="line2d_17">
      <path d="M 41.782227 166.474163 
L 537.64 166.474163 
" clip-path="url(#pb9e5dc5788)" style="fill: none; stroke: #d6cfc0; stroke-width: 0.6; stroke-linecap: square"/>
     </g>
     <g id="line2d_18">
      <g>
       <use xlink:href="#me73b45b6dc" x="41.782227" y="166.474163" style="fill: #8a9086; stroke: #8a9086; stroke-width: 0.8"/>
      </g>
     </g>
     <g id="text_10">
      <!-- 20 -->
      <g style="fill: #8a9086" transform="translate(23.843633 170.083049) scale(0.095 -0.095)">
       <use xlink:href="#DejaVuSansMono-15"/>
       <use xlink:href="#DejaVuSansMono-13" transform="translate(60.203125 0)"/>
      </g>
     </g>
    </g>
    <g id="ytick_3">
     <g id="line2d_19">
      <path d="M 41.782227 143.750552 
L 537.64 143.750552 
" clip-path="url(#pb9e5dc5788)" style="fill: none; stroke: #d6cfc0; stroke-width: 0.6; stroke-linecap: square"/>
     </g>
     <g id="line2d_20">
      <g>
       <use xlink:href="#me73b45b6dc" x="41.782227" y="143.750552" style="fill: #8a9086; stroke: #8a9086; stroke-width: 0.8"/>
      </g>
     </g>
     <g id="text_11">
      <!-- 40 -->
      <g style="fill: #8a9086" transform="translate(23.843633 147.359438) scale(0.095 -0.095)">
       <use xlink:href="#DejaVuSansMono-17"/>
       <use xlink:href="#DejaVuSansMono-13" transform="translate(60.203125 0)"/>
      </g>
     </g>
    </g>
    <g id="ytick_4">
     <g id="line2d_21">
      <path d="M 41.782227 121.026941 
L 537.64 121.026941 
" clip-path="url(#pb9e5dc5788)" style="fill: none; stroke: #d6cfc0; stroke-width: 0.6; stroke-linecap: square"/>
     </g>
     <g id="line2d_22">
      <g>
       <use xlink:href="#me73b45b6dc" x="41.782227" y="121.026941" style="fill: #8a9086; stroke: #8a9086; stroke-width: 0.8"/>
      </g>
     </g>
     <g id="text_12">
      <!-- 60 -->
      <g style="fill: #8a9086" transform="translate(23.843633 124.635828) scale(0.095 -0.095)">
       <use xlink:href="#DejaVuSansMono-19"/>
       <use xlink:href="#DejaVuSansMono-13" transform="translate(60.203125 0)"/>
      </g>
     </g>
    </g>
    <g id="ytick_5">
     <g id="line2d_23">
      <path d="M 41.782227 98.30333 
L 537.64 98.30333 
" clip-path="url(#pb9e5dc5788)" style="fill: none; stroke: #d6cfc0; stroke-width: 0.6; stroke-linecap: square"/>
     </g>
     <g id="line2d_24">
      <g>
       <use xlink:href="#me73b45b6dc" x="41.782227" y="98.30333" style="fill: #8a9086; stroke: #8a9086; stroke-width: 0.8"/>
      </g>
     </g>
     <g id="text_13">
      <!-- 80 -->
      <g style="fill: #8a9086" transform="translate(23.843633 101.912217) scale(0.095 -0.095)">
       <defs>
        <path id="DejaVuSansMono-1b" d="M 1925 2216 
Q 1503 2216 1273 1980 
Q 1044 1744 1044 1313 
Q 1044 881 1276 642 
Q 1509 403 1925 403 
Q 2350 403 2579 639 
Q 2809 875 2809 1313 
Q 2809 1741 2576 1978 
Q 2344 2216 1925 2216 
z
M 1375 2478 
Q 972 2581 745 2862 
Q 519 3144 519 3541 
Q 519 4097 897 4423 
Q 1275 4750 1925 4750 
Q 2578 4750 2956 4423 
Q 3334 4097 3334 3541 
Q 3334 3144 3107 2862 
Q 2881 2581 2478 2478 
Q 2947 2375 3195 2062 
Q 3444 1750 3444 1253 
Q 3444 622 3041 265 
Q 2638 -91 1925 -91 
Q 1213 -91 811 264 
Q 409 619 409 1247 
Q 409 1747 657 2061 
Q 906 2375 1375 2478 
z
M 1147 3481 
Q 1147 3106 1347 2909 
Q 1547 2713 1925 2713 
Q 2306 2713 2506 2909 
Q 2706 3106 2706 3481 
Q 2706 3863 2507 4063 
Q 2309 4263 1925 4263 
Q 1547 4263 1347 4061 
Q 1147 3859 1147 3481 
z
" transform="scale(0.015625)"/>
       </defs>
       <use xlink:href="#DejaVuSansMono-1b"/>
       <use xlink:href="#DejaVuSansMono-13" transform="translate(60.203125 0)"/>
      </g>
     </g>
    </g>
    <g id="ytick_6">
     <g id="line2d_25">
      <path d="M 41.782227 75.579719 
L 537.64 75.579719 
" clip-path="url(#pb9e5dc5788)" style="fill: none; stroke: #d6cfc0; stroke-width: 0.6; stroke-linecap: square"/>
     </g>
     <g id="line2d_26">
      <g>
       <use xlink:href="#me73b45b6dc" x="41.782227" y="75.579719" style="fill: #8a9086; stroke: #8a9086; stroke-width: 0.8"/>
      </g>
     </g>
     <g id="text_14">
      <!-- 100 -->
      <g style="fill: #8a9086" transform="translate(18.124336 79.188606) scale(0.095 -0.095)">
       <use xlink:href="#DejaVuSansMono-14"/>
       <use xlink:href="#DejaVuSansMono-13" transform="translate(60.203125 0)"/>
       <use xlink:href="#DejaVuSansMono-13" transform="translate(120.40625 0)"/>
      </g>
     </g>
    </g>
    <g id="ytick_7">
     <g id="line2d_27">
      <path d="M 41.782227 52.856108 
L 537.64 52.856108 
" clip-path="url(#pb9e5dc5788)" style="fill: none; stroke: #d6cfc0; stroke-width: 0.6; stroke-linecap: square"/>
     </g>
     <g id="line2d_28">
      <g>
       <use xlink:href="#me73b45b6dc" x="41.782227" y="52.856108" style="fill: #8a9086; stroke: #8a9086; stroke-width: 0.8"/>
      </g>
     </g>
     <g id="text_15">
      <!-- 120 -->
      <g style="fill: #8a9086" transform="translate(18.124336 56.464995) scale(0.095 -0.095)">
       <use xlink:href="#DejaVuSansMono-14"/>
       <use xlink:href="#DejaVuSansMono-15" transform="translate(60.203125 0)"/>
       <use xlink:href="#DejaVuSansMono-13" transform="translate(120.40625 0)"/>
      </g>
     </g>
    </g>
    <g id="ytick_8">
     <g id="line2d_29">
      <path d="M 41.782227 30.132498 
L 537.64 30.132498 
" clip-path="url(#pb9e5dc5788)" style="fill: none; stroke: #d6cfc0; stroke-width: 0.6; stroke-linecap: square"/>
     </g>
     <g id="line2d_30">
      <g>
       <use xlink:href="#me73b45b6dc" x="41.782227" y="30.132498" style="fill: #8a9086; stroke: #8a9086; stroke-width: 0.8"/>
      </g>
     </g>
     <g id="text_16">
      <!-- 140 -->
      <g style="fill: #8a9086" transform="translate(18.124336 33.741384) scale(0.095 -0.095)">
       <use xlink:href="#DejaVuSansMono-14"/>
       <use xlink:href="#DejaVuSansMono-17" transform="translate(60.203125 0)"/>
       <use xlink:href="#DejaVuSansMono-13" transform="translate(120.40625 0)"/>
      </g>
     </g>
    </g>
    <g id="ytick_9">
     <g id="line2d_31">
      <path d="M 41.782227 7.408887 
L 537.64 7.408887 
" clip-path="url(#pb9e5dc5788)" style="fill: none; stroke: #d6cfc0; stroke-width: 0.6; stroke-linecap: square"/>
     </g>
     <g id="line2d_32">
      <g>
       <use xlink:href="#me73b45b6dc" x="41.782227" y="7.408887" style="fill: #8a9086; stroke: #8a9086; stroke-width: 0.8"/>
      </g>
     </g>
     <g id="text_17">
      <!-- 160 -->
      <g style="fill: #8a9086" transform="translate(18.124336 11.017773) scale(0.095 -0.095)">
       <use xlink:href="#DejaVuSansMono-14"/>
       <use xlink:href="#DejaVuSansMono-19" transform="translate(60.203125 0)"/>
       <use xlink:href="#DejaVuSansMono-13" transform="translate(120.40625 0)"/>
      </g>
     </g>
    </g>
    <g id="text_18">
     <!-- model calls -->
     <g style="fill: #5d655b" transform="translate(11.842109 129.759463) rotate(-90) scale(0.095 -0.095)">
      <defs>
       <path id="DejaVuSansMono-47" d="M 2681 3053 
L 2681 4863 
L 3256 4863 
L 3256 0 
L 2681 0 
L 2681 441 
Q 2538 181 2298 45 
Q 2059 -91 1747 -91 
Q 1113 -91 748 401 
Q 384 894 384 1759 
Q 384 2613 750 3098 
Q 1116 3584 1747 3584 
Q 2063 3584 2303 3448 
Q 2544 3313 2681 3053 
z
M 991 1747 
Q 991 1078 1203 737 
Q 1416 397 1831 397 
Q 2247 397 2464 740 
Q 2681 1084 2681 1747 
Q 2681 2413 2464 2755 
Q 2247 3097 1831 3097 
Q 1416 3097 1203 2756 
Q 991 2416 991 1747 
z
" transform="scale(0.015625)"/>
       <path id="DejaVuSansMono-46" d="M 3316 178 
Q 3084 44 2839 -23 
Q 2594 -91 2338 -91 
Q 1525 -91 1067 396 
Q 609 884 609 1747 
Q 609 2609 1067 3096 
Q 1525 3584 2338 3584 
Q 2591 3584 2831 3518 
Q 3072 3453 3316 3316 
L 3316 2713 
Q 3088 2916 2858 3006 
Q 2628 3097 2338 3097 
Q 1797 3097 1506 2747 
Q 1216 2397 1216 1747 
Q 1216 1100 1508 748 
Q 1800 397 2338 397 
Q 2638 397 2875 489 
Q 3113 581 3316 775 
L 3316 178 
z
" transform="scale(0.015625)"/>
      </defs>
      <use xlink:href="#DejaVuSansMono-50"/>
      <use xlink:href="#DejaVuSansMono-52" transform="translate(60.203125 0)"/>
      <use xlink:href="#DejaVuSansMono-47" transform="translate(120.40625 0)"/>
      <use xlink:href="#DejaVuSansMono-48" transform="translate(180.609375 0)"/>
      <use xlink:href="#DejaVuSansMono-4f" transform="translate(240.8125 0)"/>
      <use xlink:href="#DejaVuSansMono-3" transform="translate(301.015625 0)"/>
      <use xlink:href="#DejaVuSansMono-46" transform="translate(361.21875 0)"/>
      <use xlink:href="#DejaVuSansMono-44" transform="translate(421.421875 0)"/>
      <use xlink:href="#DejaVuSansMono-4f" transform="translate(481.625 0)"/>
      <use xlink:href="#DejaVuSansMono-4f" transform="translate(541.828125 0)"/>
      <use xlink:href="#DejaVuSansMono-56" transform="translate(602.03125 0)"/>
     </g>
    </g>
   </g>
   <g id="line2d_33">
    <path d="M 41.782227 189.197773 
L 45.914375 189.197773 
L 45.914375 188.061593 
L 50.046523 188.061593 
L 50.046523 185.789232 
L 54.178671 185.789232 
L 54.178671 184.653051 
L 58.310819 184.653051 
L 58.310819 183.516871 
L 62.442967 183.516871 
L 62.442967 182.38069 
L 66.575115 182.38069 
L 66.575115 180.108329 
L 70.707263 180.108329 
L 70.707263 178.972149 
L 74.839411 178.972149 
L 74.839411 177.835968 
L 78.97156 177.835968 
L 78.97156 176.699787 
L 83.103708 176.699787 
L 83.103708 174.427426 
L 87.235856 174.427426 
L 87.235856 173.291246 
L 91.368004 173.291246 
L 91.368004 172.155065 
L 95.500152 172.155065 
L 95.500152 171.018885 
L 99.6323 171.018885 
L 99.6323 168.746524 
L 103.764448 168.746524 
L 103.764448 167.610343 
L 107.896596 167.610343 
L 107.896596 166.474163 
L 112.028744 166.474163 
L 112.028744 165.337982 
L 116.160893 165.337982 
L 116.160893 163.065621 
L 120.293041 163.065621 
L 120.293041 161.92944 
L 124.425189 161.92944 
L 124.425189 160.79326 
L 128.557337 160.79326 
L 128.557337 159.657079 
L 132.689485 159.657079 
L 132.689485 157.384718 
L 136.821633 157.384718 
L 136.821633 156.248538 
L 140.953781 156.248538 
L 140.953781 155.112357 
L 145.085929 155.112357 
L 145.085929 153.976177 
L 149.218077 153.976177 
L 149.218077 151.703816 
L 153.350226 151.703816 
L 153.350226 150.567635 
L 157.482374 150.567635 
L 157.482374 149.431454 
L 161.614522 149.431454 
L 161.614522 148.295274 
L 165.74667 148.295274 
L 165.74667 146.022913 
L 169.878818 146.022913 
L 169.878818 144.886732 
L 174.010966 144.886732 
L 174.010966 143.750552 
L 178.143114 143.750552 
L 178.143114 142.614371 
L 182.275262 142.614371 
L 182.275262 140.34201 
L 186.40741 140.34201 
L 186.40741 139.20583 
L 190.539559 139.20583 
L 190.539559 138.069649 
L 194.671707 138.069649 
L 194.671707 136.933469 
L 198.803855 136.933469 
L 198.803855 134.661107 
L 202.936003 134.661107 
L 202.936003 133.524927 
L 207.068151 133.524927 
L 207.068151 132.388746 
L 211.200299 132.388746 
L 211.200299 131.252566 
L 215.332447 131.252566 
L 215.332447 128.980205 
L 219.464595 128.980205 
L 219.464595 127.844024 
L 223.596743 127.844024 
L 223.596743 126.707844 
L 227.728892 126.707844 
L 227.728892 125.571663 
L 231.86104 125.571663 
L 231.86104 123.299302 
L 235.993188 123.299302 
L 235.993188 122.163121 
L 240.125336 122.163121 
L 240.125336 121.026941 
L 244.257484 121.026941 
L 244.257484 119.89076 
L 248.389632 119.89076 
L 248.389632 117.618399 
L 252.52178 117.618399 
L 252.52178 116.482219 
L 256.653928 116.482219 
L 256.653928 115.346038 
L 260.786076 115.346038 
L 260.786076 114.209858 
L 264.918225 114.209858 
L 264.918225 111.937497 
L 269.050373 111.937497 
L 269.050373 110.801316 
L 273.182521 110.801316 
L 273.182521 109.665135 
L 277.314669 109.665135 
L 277.314669 108.528955 
L 281.446817 108.528955 
L 281.446817 106.256594 
L 285.578965 106.256594 
L 285.578965 105.120413 
L 289.711113 105.120413 
L 289.711113 103.984233 
L 293.843261 103.984233 
L 293.843261 102.848052 
L 297.97541 102.848052 
L 297.97541 100.575691 
L 302.107558 100.575691 
L 302.107558 99.439511 
L 306.239706 99.439511 
L 306.239706 98.30333 
L 310.371854 98.30333 
L 310.371854 97.16715 
L 314.504002 97.16715 
L 314.504002 94.894788 
L 318.63615 94.894788 
L 318.63615 93.758608 
L 322.768298 93.758608 
L 322.768298 92.622427 
L 326.900446 92.622427 
L 326.900446 91.486247 
L 331.032594 91.486247 
L 331.032594 89.213886 
L 335.164743 89.213886 
L 335.164743 88.077705 
L 339.296891 88.077705 
L 339.296891 86.941525 
L 343.429039 86.941525 
L 343.429039 85.805344 
L 347.561187 85.805344 
L 347.561187 83.532983 
L 351.693335 83.532983 
L 351.693335 82.396802 
L 355.825483 82.396802 
L 355.825483 81.260622 
L 359.957631 81.260622 
L 359.957631 80.124441 
L 364.089779 80.124441 
L 364.089779 77.85208 
L 368.221927 77.85208 
L 368.221927 76.7159 
L 372.354076 76.7159 
L 372.354076 75.579719 
L 376.486224 75.579719 
L 376.486224 74.443539 
L 380.618372 74.443539 
L 380.618372 72.171178 
L 384.75052 72.171178 
L 384.75052 71.034997 
L 388.882668 71.034997 
L 388.882668 69.898817 
L 393.014816 69.898817 
L 393.014816 68.762636 
L 397.146964 68.762636 
L 397.146964 66.490275 
L 401.279112 66.490275 
L 401.279112 65.354094 
L 405.41126 65.354094 
L 405.41126 64.217914 
L 409.543409 64.217914 
L 409.543409 63.081733 
L 413.675557 63.081733 
L 413.675557 60.809372 
L 417.807705 60.809372 
L 417.807705 59.673192 
L 421.939853 59.673192 
L 421.939853 58.537011 
L 426.072001 58.537011 
L 426.072001 57.400831 
L 430.204149 57.400831 
L 430.204149 55.128469 
L 434.336297 55.128469 
L 434.336297 53.992289 
L 438.468445 53.992289 
L 438.468445 52.856108 
L 442.600593 52.856108 
L 442.600593 51.719928 
L 446.732742 51.719928 
L 446.732742 49.447567 
L 450.86489 49.447567 
L 450.86489 48.311386 
L 454.997038 48.311386 
L 454.997038 47.175206 
L 459.129186 47.175206 
L 459.129186 46.039025 
L 463.261334 46.039025 
L 463.261334 43.766664 
L 467.393482 43.766664 
L 467.393482 42.630484 
L 471.52563 42.630484 
L 471.52563 41.494303 
L 475.657778 41.494303 
L 475.657778 40.358122 
L 479.789926 40.358122 
L 479.789926 38.085761 
L 483.922075 38.085761 
L 483.922075 36.949581 
L 488.054223 36.949581 
L 488.054223 35.8134 
L 492.186371 35.8134 
L 492.186371 34.67722 
L 496.318519 34.67722 
L 496.318519 32.404859 
L 500.450667 32.404859 
L 500.450667 31.268678 
L 504.582815 31.268678 
L 504.582815 30.132498 
L 508.714963 30.132498 
L 508.714963 28.996317 
L 512.847111 28.996317 
L 512.847111 26.723956 
L 516.979259 26.723956 
L 516.979259 25.587775 
L 521.111408 25.587775 
L 521.111408 24.451595 
L 525.243556 24.451595 
L 525.243556 23.315414 
L 529.375704 23.315414 
L 529.375704 21.043053 
L 533.507852 21.043053 
L 533.507852 19.906873 
L 537.64 19.906873 
L 537.64 18.770692 
L 537.64 18.770692 
" clip-path="url(#pb9e5dc5788)" style="fill: none; stroke-dasharray: 6.4,4.8; stroke-dashoffset: 0; stroke: #8a9086; stroke-width: 1.6"/>
   </g>
   <g id="line2d_34">
    <path d="M 41.782227 189.197773 
L 45.914375 189.197773 
L 45.914375 188.061593 
L 293.843261 188.061593 
L 293.843261 186.925412 
L 537.64 186.925412 
L 537.64 186.925412 
" clip-path="url(#pb9e5dc5788)" style="fill: none; stroke: #55884d; stroke-width: 2.2; stroke-linecap: square"/>
   </g>
   <g id="patch_3">
    <path d="M 41.782227 189.197773 
L 41.782227 7.408887 
" style="fill: none; stroke: #bfb7a4; stroke-width: 0.8; stroke-linejoin: miter; stroke-linecap: square"/>
   </g>
   <g id="patch_4">
    <path d="M 41.782227 189.197773 
L 537.64 189.197773 
" style="fill: none; stroke: #bfb7a4; stroke-width: 0.8; stroke-linejoin: miter; stroke-linecap: square"/>
   </g>
   <g id="text_19">
    <!-- one call per fall reading: 150 -->
    <g style="fill: #5d655b" transform="translate(207.068151 61.945553) scale(0.09 -0.09)">
     <defs>
      <path id="DejaVuSansMono-1d" d="M 1528 3322 
L 2316 3322 
L 2316 2375 
L 1528 2375 
L 1528 3322 
z
M 1528 953 
L 2316 953 
L 2316 0 
L 1528 0 
L 1528 953 
z
" transform="scale(0.015625)"/>
     </defs>
     <use xlink:href="#DejaVuSansMono-52"/>
     <use xlink:href="#DejaVuSansMono-51" transform="translate(60.203125 0)"/>
     <use xlink:href="#DejaVuSansMono-48" transform="translate(120.40625 0)"/>
     <use xlink:href="#DejaVuSansMono-3" transform="translate(180.609375 0)"/>
     <use xlink:href="#DejaVuSansMono-46" transform="translate(240.8125 0)"/>
     <use xlink:href="#DejaVuSansMono-44" transform="translate(301.015625 0)"/>
     <use xlink:href="#DejaVuSansMono-4f" transform="translate(361.21875 0)"/>
     <use xlink:href="#DejaVuSansMono-4f" transform="translate(421.421875 0)"/>
     <use xlink:href="#DejaVuSansMono-3" transform="translate(481.625 0)"/>
     <use xlink:href="#DejaVuSansMono-53" transform="translate(541.828125 0)"/>
     <use xlink:href="#DejaVuSansMono-48" transform="translate(602.03125 0)"/>
     <use xlink:href="#DejaVuSansMono-55" transform="translate(662.234375 0)"/>
     <use xlink:href="#DejaVuSansMono-3" transform="translate(722.4375 0)"/>
     <use xlink:href="#DejaVuSansMono-49" transform="translate(782.640625 0)"/>
     <use xlink:href="#DejaVuSansMono-44" transform="translate(842.84375 0)"/>
     <use xlink:href="#DejaVuSansMono-4f" transform="translate(903.046875 0)"/>
     <use xlink:href="#DejaVuSansMono-4f" transform="translate(963.25 0)"/>
     <use xlink:href="#DejaVuSansMono-3" transform="translate(1023.453125 0)"/>
     <use xlink:href="#DejaVuSansMono-55" transform="translate(1083.65625 0)"/>
     <use xlink:href="#DejaVuSansMono-48" transform="translate(1143.859375 0)"/>
     <use xlink:href="#DejaVuSansMono-44" transform="translate(1204.0625 0)"/>
     <use xlink:href="#DejaVuSansMono-47" transform="translate(1264.265625 0)"/>
     <use xlink:href="#DejaVuSansMono-4c" transform="translate(1324.46875 0)"/>
     <use xlink:href="#DejaVuSansMono-51" transform="translate(1384.671875 0)"/>
     <use xlink:href="#DejaVuSansMono-4a" transform="translate(1444.875 0)"/>
     <use xlink:href="#DejaVuSansMono-1d" transform="translate(1505.078125 0)"/>
     <use xlink:href="#DejaVuSansMono-3" transform="translate(1565.28125 0)"/>
     <use xlink:href="#DejaVuSansMono-14" transform="translate(1625.484375 0)"/>
     <use xlink:href="#DejaVuSansMono-18" transform="translate(1685.6875 0)"/>
     <use xlink:href="#DejaVuSansMono-13" transform="translate(1745.890625 0)"/>
    </g>
   </g>
   <g id="text_20">
    <!-- the shipping trigger: 2 -->
    <g style="fill: #55884d" transform="translate(404.755235 178.972149) scale(0.09 -0.09)">
     <defs>
      <path id="DejaVuSansMono-Bold-57" d="M 2156 4494 
L 2156 3500 
L 3353 3500 
L 3353 2797 
L 2156 2797 
L 2156 1141 
Q 2156 906 2270 804 
Q 2384 703 2650 703 
L 3353 703 
L 3353 0 
L 2584 0 
Q 1797 0 1519 251 
Q 1241 503 1241 1184 
L 1241 2797 
L 347 2797 
L 347 3500 
L 1241 3500 
L 1241 4494 
L 2156 4494 
z
" transform="scale(0.015625)"/>
      <path id="DejaVuSansMono-Bold-4b" d="M 3347 2272 
L 3347 0 
L 2438 0 
L 2438 2131 
Q 2438 2509 2330 2671 
Q 2222 2834 1978 2834 
Q 1728 2834 1587 2614 
Q 1447 2394 1447 2003 
L 1447 0 
L 538 0 
L 538 4863 
L 1447 4863 
L 1447 2975 
Q 1544 3266 1778 3425 
Q 2013 3584 2344 3584 
Q 2841 3584 3094 3254 
Q 3347 2925 3347 2272 
z
" transform="scale(0.015625)"/>
      <path id="DejaVuSansMono-Bold-48" d="M 3444 172 
Q 3125 41 2794 -25 
Q 2463 -91 2094 -91 
Q 1216 -91 752 379 
Q 288 850 288 1734 
Q 288 2591 734 3087 
Q 1181 3584 1953 3584 
Q 2731 3584 3161 3123 
Q 3591 2663 3591 1825 
L 3591 1453 
L 1219 1453 
Q 1222 1041 1462 837 
Q 1703 634 2181 634 
Q 2497 634 2803 725 
Q 3109 816 3444 1013 
L 3444 172 
z
M 2669 2141 
Q 2663 2503 2483 2689 
Q 2303 2875 1953 2875 
Q 1638 2875 1450 2683 
Q 1263 2491 1228 2138 
L 2669 2141 
z
" transform="scale(0.015625)"/>
      <path id="DejaVuSansMono-Bold-3" transform="scale(0.015625)"/>
      <path id="DejaVuSansMono-Bold-56" d="M 3097 3391 
L 3097 2591 
Q 2844 2753 2570 2836 
Q 2297 2919 2022 2919 
Q 1716 2919 1559 2830 
Q 1403 2741 1403 2566 
Q 1403 2316 2072 2159 
L 2106 2150 
L 2369 2088 
Q 2869 1969 3101 1705 
Q 3334 1441 3334 991 
Q 3334 450 2979 179 
Q 2625 -91 1913 -91 
Q 1597 -91 1265 -36 
Q 934 19 594 128 
L 594 928 
Q 897 756 1211 665 
Q 1525 575 1819 575 
Q 2141 575 2306 669 
Q 2472 763 2472 941 
Q 2472 1116 2355 1209 
Q 2238 1303 1797 1409 
L 1544 1466 
Q 1019 1584 778 1837 
Q 538 2091 538 2516 
Q 538 3022 903 3303 
Q 1269 3584 1931 3584 
Q 2228 3584 2523 3536 
Q 2819 3488 3097 3391 
z
" transform="scale(0.015625)"/>
      <path id="DejaVuSansMono-Bold-4c" d="M 691 3500 
L 2503 3500 
L 2503 703 
L 3641 703 
L 3641 0 
L 447 0 
L 447 703 
L 1588 703 
L 1588 2797 
L 691 2797 
L 691 3500 
z
M 1588 5203 
L 2503 5203 
L 2503 4134 
L 1588 4134 
L 1588 5203 
z
" transform="scale(0.015625)"/>
      <path id="DejaVuSansMono-Bold-53" d="M 1381 494 
L 1381 -1331 
L 469 -1331 
L 469 3500 
L 1381 3500 
L 1381 2975 
Q 1525 3278 1759 3431 
Q 1994 3584 2309 3584 
Q 2909 3584 3240 3103 
Q 3572 2622 3572 1747 
Q 3572 859 3236 384 
Q 2900 -91 2278 -91 
Q 1997 -91 1773 54 
Q 1550 200 1381 494 
z
M 2656 1753 
Q 2656 2259 2487 2546 
Q 2319 2834 2022 2834 
Q 1725 2834 1553 2546 
Q 1381 2259 1381 1753 
Q 1381 1247 1553 959 
Q 1725 672 2022 672 
Q 2319 672 2487 959 
Q 2656 1247 2656 1753 
z
" transform="scale(0.015625)"/>
      <path id="DejaVuSansMono-Bold-51" d="M 3347 2272 
L 3347 0 
L 2438 0 
L 2438 2131 
Q 2438 2513 2330 2677 
Q 2222 2841 1978 2841 
Q 1731 2841 1589 2619 
Q 1447 2397 1447 2003 
L 1447 0 
L 538 0 
L 538 3500 
L 1447 3500 
L 1447 2975 
Q 1544 3266 1778 3425 
Q 2013 3584 2344 3584 
Q 2841 3584 3094 3254 
Q 3347 2925 3347 2272 
z
" transform="scale(0.015625)"/>
      <path id="DejaVuSansMono-Bold-4a" d="M 2509 1806 
Q 2509 2275 2331 2558 
Q 2153 2841 1863 2841 
Q 1575 2841 1398 2559 
Q 1222 2278 1222 1806 
Q 1222 1331 1398 1050 
Q 1575 769 1863 769 
Q 2153 769 2331 1051 
Q 2509 1334 2509 1806 
z
M 3425 263 
Q 3425 -578 3045 -951 
Q 2666 -1325 1813 -1325 
Q 1525 -1325 1244 -1283 
Q 963 -1241 672 -1153 
L 672 -313 
Q 931 -456 1200 -525 
Q 1469 -594 1753 -594 
Q 2141 -594 2325 -411 
Q 2509 -228 2509 159 
L 2509 538 
Q 2375 288 2153 166 
Q 1931 44 1613 44 
Q 1013 44 659 512 
Q 306 981 306 1784 
Q 306 2616 659 3103 
Q 1013 3591 1606 3591 
Q 1906 3591 2140 3450 
Q 2375 3309 2509 3053 
L 2509 3500 
L 3425 3500 
L 3425 263 
z
" transform="scale(0.015625)"/>
      <path id="DejaVuSansMono-Bold-55" d="M 3597 2534 
Q 3447 2672 3245 2740 
Q 3044 2809 2803 2809 
Q 2513 2809 2295 2707 
Q 2078 2606 1959 2413 
Q 1884 2294 1854 2125 
Q 1825 1956 1825 1613 
L 1825 0 
L 909 0 
L 909 3500 
L 1825 3500 
L 1825 2956 
Q 1959 3256 2237 3420 
Q 2516 3584 2888 3584 
Q 3075 3584 3254 3539 
Q 3434 3494 3597 3406 
L 3597 2534 
z
" transform="scale(0.015625)"/>
      <path id="DejaVuSansMono-Bold-1d" d="M 1403 3322 
L 2444 3322 
L 2444 2181 
L 1403 2181 
L 1403 3322 
z
M 1403 1147 
L 2444 1147 
L 2444 0 
L 1403 0 
L 1403 1147 
z
" transform="scale(0.015625)"/>
      <path id="DejaVuSansMono-Bold-15" d="M 1356 813 
L 3322 813 
L 3322 0 
L 359 0 
L 359 788 
L 859 1319 
Q 1750 2266 1941 2484 
Q 2175 2753 2278 2961 
Q 2381 3169 2381 3372 
Q 2381 3684 2192 3854 
Q 2003 4025 1656 4025 
Q 1409 4025 1101 3926 
Q 794 3828 459 3641 
L 459 4500 
Q 794 4622 1114 4686 
Q 1434 4750 1728 4750 
Q 2469 4750 2892 4404 
Q 3316 4059 3316 3463 
Q 3316 3188 3223 2947 
Q 3131 2706 2906 2413 
Q 2741 2200 1997 1456 
Q 1594 1053 1356 813 
z
" transform="scale(0.015625)"/>
     </defs>
     <use xlink:href="#DejaVuSansMono-Bold-57"/>
     <use xlink:href="#DejaVuSansMono-Bold-4b" transform="translate(60.203125 0)"/>
     <use xlink:href="#DejaVuSansMono-Bold-48" transform="translate(120.40625 0)"/>
     <use xlink:href="#DejaVuSansMono-Bold-3" transform="translate(180.609375 0)"/>
     <use xlink:href="#DejaVuSansMono-Bold-56" transform="translate(240.8125 0)"/>
     <use xlink:href="#DejaVuSansMono-Bold-4b" transform="translate(301.015625 0)"/>
     <use xlink:href="#DejaVuSansMono-Bold-4c" transform="translate(361.21875 0)"/>
     <use xlink:href="#DejaVuSansMono-Bold-53" transform="translate(421.421875 0)"/>
     <use xlink:href="#DejaVuSansMono-Bold-53" transform="translate(481.625 0)"/>
     <use xlink:href="#DejaVuSansMono-Bold-4c" transform="translate(541.828125 0)"/>
     <use xlink:href="#DejaVuSansMono-Bold-51" transform="translate(602.03125 0)"/>
     <use xlink:href="#DejaVuSansMono-Bold-4a" transform="translate(662.234375 0)"/>
     <use xlink:href="#DejaVuSansMono-Bold-3" transform="translate(722.4375 0)"/>
     <use xlink:href="#DejaVuSansMono-Bold-57" transform="translate(782.640625 0)"/>
     <use xlink:href="#DejaVuSansMono-Bold-55" transform="translate(842.84375 0)"/>
     <use xlink:href="#DejaVuSansMono-Bold-4c" transform="translate(903.046875 0)"/>
     <use xlink:href="#DejaVuSansMono-Bold-4a" transform="translate(963.25 0)"/>
     <use xlink:href="#DejaVuSansMono-Bold-4a" transform="translate(1023.453125 0)"/>
     <use xlink:href="#DejaVuSansMono-Bold-48" transform="translate(1083.65625 0)"/>
     <use xlink:href="#DejaVuSansMono-Bold-55" transform="translate(1143.859375 0)"/>
     <use xlink:href="#DejaVuSansMono-Bold-1d" transform="translate(1204.0625 0)"/>
     <use xlink:href="#DejaVuSansMono-Bold-3" transform="translate(1264.265625 0)"/>
     <use xlink:href="#DejaVuSansMono-Bold-15" transform="translate(1324.46875 0)"/>
    </g>
   </g>
  </g>
 </g>
 <defs>
  <clipPath id="pb9e5dc5788">
   <rect x="41.782227" y="7.408887" width="495.857773" height="181.788887"/>
  </clipPath>
 </defs>
</svg>
