<?xml version="1.0" encoding="utf-8" standalone="no"?>
<!DOCTYPE svg PUBLIC "-//W3C//DTD SVG 1.1//EN"
  "http://www.w3.org/Graphics/SVG/1.1/DTD/svg11.dtd">
<svg xmlns:xlink="http://www.w3.org/1999/xlink" width="547.2pt" height="223.2pt" viewBox="0 0 547.2 223.2" xmlns="http://www.w3.org/2000/svg" version="1.1">
 <metadata>
  <rdf:RDF xmlns:dc="http://purl.org/dc/elements/1.1/" xmlns:cc="http://creativecommons.org/ns#" xmlns:rdf="http://www.w3.org/1999/02/22-rdf-syntax-ns#">
   <cc:Work>
    <dc:type rdf:resource="http://purl.org/dc/dcmitype/StillImage"/>
    <dc:date>2026-07-22T12:55:30.769525</dc:date>
    <dc:format>image/svg+xml</dc:format>
    <dc:creator>
     <cc:Agent>
      <dc:title>Matplotlib v3.11.1, https://matplotlib.org/</dc:title>
     </cc:Agent>
    </dc:creator>
   </cc:Work>
  </rdf:RDF>
 </metadata>
 <defs>
  <style type="text/css">*{stroke-linejoin: round; stroke-linecap: butt}</style>
 </defs>
 <g id="figure_1">
  <g id="patch_1">
   <path d="M 0 223.2 
L 547.2 223.2 
L 547.2 0 
L 0 0 
L 0 223.2 
z
" style="fill: none"/>
  </g>
  <g id="axes_1">
   <g id="patch_2">
    <path d="M 41.782227 189.197773 
L 534.76 189.197773 
L 534.76 3.8 
L 41.782227 3.8 
L 41.782227 189.197773 
z
" style="fill: none"/>
   </g>
   <g id="matplotlib.axis_1">
    <g id="xtick_1">
     <g id="line2d_1">
      <path d="M 41.782227 189.197773 
L 41.782227 3.8 
" clip-path="url(#p9640543194)" style="fill: none; stroke: #d6cfc0; stroke-width: 0.6; stroke-linecap: square"/>
     </g>
     <g id="line2d_2">
      <defs>
       <path id="mec67f6d4f0" d="M 0 0 
L 0 3 
" style="stroke: #8a9086; stroke-width: 0.8"/>
      </defs>
      <g>
       <use xlink:href="#mec67f6d4f0" x="41.782227" y="189.197773" style="fill: #8a9086; stroke: #8a9086; stroke-width: 0.8"/>
      </g>
     </g>
     <g id="text_1">
      <!-- 0.0 -->
      <g style="fill: #8a9086" transform="translate(33.203281 202.915547) scale(0.095 -0.095)">
       <defs>
        <path id="DejaVuSansMono-13" d="M 1509 2344 
Q 1509 2516 1629 2641 
Q 1750 2766 1919 2766 
Q 2094 2766 2219 2641 
Q 2344 2516 2344 2344 
Q 2344 2169 2220 2047 
Q 2097 1925 1919 1925 
Q 1744 1925 1626 2044 
Q 1509 2163 1509 2344 
z
M 1925 4250 
Q 1484 4250 1267 3775 
Q 1050 3300 1050 2328 
Q 1050 1359 1267 884 
Q 1484 409 1925 409 
Q 2369 409 2586 884 
Q 2803 1359 2803 2328 
Q 2803 3300 2586 3775 
Q 2369 4250 1925 4250 
z
M 1925 4750 
Q 2672 4750 3055 4137 
Q 3438 3525 3438 2328 
Q 3438 1134 3055 521 
Q 2672 -91 1925 -91 
Q 1178 -91 797 521 
Q 416 1134 416 2328 
Q 416 3525 797 4137 
Q 1178 4750 1925 4750 
z
" transform="scale(0.015625)"/>
        <path id="DejaVuSansMono-11" d="M 1528 953 
L 2316 953 
L 2316 0 
L 1528 0 
L 1528 953 
z
" transform="scale(0.015625)"/>
       </defs>
       <use xlink:href="#DejaVuSansMono-13"/>
       <use xlink:href="#DejaVuSansMono-11" transform="translate(60.203125 0)"/>
       <use xlink:href="#DejaVuSansMono-13" transform="translate(120.40625 0)"/>
      </g>
     </g>
    </g>
    <g id="xtick_2">
     <g id="line2d_3">
      <path d="M 103.404448 189.197773 
L 103.404448 3.8 
" clip-path="url(#p9640543194)" style="fill: none; stroke: #d6cfc0; stroke-width: 0.6; stroke-linecap: square"/>
     </g>
     <g id="line2d_4">
      <g>
       <use xlink:href="#mec67f6d4f0" x="103.404448" y="189.197773" style="fill: #8a9086; stroke: #8a9086; stroke-width: 0.8"/>
      </g>
     </g>
     <g id="text_2">
      <!-- 0.5 -->
      <g style="fill: #8a9086" transform="translate(94.825503 202.915547) scale(0.095 -0.095)">
       <defs>
        <path id="DejaVuSansMono-18" d="M 647 4666 
L 3009 4666 
L 3009 4134 
L 1222 4134 
L 1222 2988 
Q 1356 3038 1492 3061 
Q 1628 3084 1766 3084 
Q 2491 3084 2916 2656 
Q 3341 2228 3341 1497 
Q 3341 759 2895 334 
Q 2450 -91 1678 -91 
Q 1306 -91 998 -41 
Q 691 9 447 109 
L 447 750 
Q 734 594 1025 517 
Q 1316 441 1619 441 
Q 2141 441 2423 716 
Q 2706 991 2706 1497 
Q 2706 1997 2414 2275 
Q 2122 2553 1600 2553 
Q 1347 2553 1106 2495 
Q 866 2438 647 2322 
L 647 4666 
z
" transform="scale(0.015625)"/>
       </defs>
       <use xlink:href="#DejaVuSansMono-13"/>
       <use xlink:href="#DejaVuSansMono-11" transform="translate(60.203125 0)"/>
       <use xlink:href="#DejaVuSansMono-18" transform="translate(120.40625 0)"/>
      </g>
     </g>
    </g>
    <g id="xtick_3">
     <g id="line2d_5">
      <path d="M 165.02667 189.197773 
L 165.02667 3.8 
" clip-path="url(#p9640543194)" style="fill: none; stroke: #d6cfc0; stroke-width: 0.6; stroke-linecap: square"/>
     </g>
     <g id="line2d_6">
      <g>
       <use xlink:href="#mec67f6d4f0" x="165.02667" y="189.197773" style="fill: #8a9086; stroke: #8a9086; stroke-width: 0.8"/>
      </g>
     </g>
     <g id="text_3">
      <!-- 1.0 -->
      <g style="fill: #8a9086" transform="translate(156.447725 202.915547) scale(0.095 -0.095)">
       <defs>
        <path id="DejaVuSansMono-14" d="M 844 531 
L 1825 531 
L 1825 4097 
L 769 3859 
L 769 4434 
L 1819 4666 
L 2450 4666 
L 2450 531 
L 3419 531 
L 3419 0 
L 844 0 
L 844 531 
z
" transform="scale(0.015625)"/>
       </defs>
       <use xlink:href="#DejaVuSansMono-14"/>
       <use xlink:href="#DejaVuSansMono-11" transform="translate(60.203125 0)"/>
       <use xlink:href="#DejaVuSansMono-13" transform="translate(120.40625 0)"/>
      </g>
     </g>
    </g>
    <g id="xtick_4">
     <g id="line2d_7">
      <path d="M 226.648892 189.197773 
L 226.648892 3.8 
" clip-path="url(#p9640543194)" style="fill: none; stroke: #d6cfc0; stroke-width: 0.6; stroke-linecap: square"/>
     </g>
     <g id="line2d_8">
      <g>
       <use xlink:href="#mec67f6d4f0" x="226.648892" y="189.197773" style="fill: #8a9086; stroke: #8a9086; stroke-width: 0.8"/>
      </g>
     </g>
     <g id="text_4">
      <!-- 1.5 -->
      <g style="fill: #8a9086" transform="translate(218.069946 202.915547) scale(0.095 -0.095)">
       <use xlink:href="#DejaVuSansMono-14"/>
       <use xlink:href="#DejaVuSansMono-11" transform="translate(60.203125 0)"/>
       <use xlink:href="#DejaVuSansMono-18" transform="translate(120.40625 0)"/>
      </g>
     </g>
    </g>
    <g id="xtick_5">
     <g id="line2d_9">
      <path d="M 288.271113 189.197773 
L 288.271113 3.8 
" clip-path="url(#p9640543194)" style="fill: none; stroke: #d6cfc0; stroke-width: 0.6; stroke-linecap: square"/>
     </g>
     <g id="line2d_10">
      <g>
       <use xlink:href="#mec67f6d4f0" x="288.271113" y="189.197773" style="fill: #8a9086; stroke: #8a9086; stroke-width: 0.8"/>
      </g>
     </g>
     <g id="text_5">
      <!-- 2.0 -->
      <g style="fill: #8a9086" transform="translate(279.692168 202.915547) scale(0.095 -0.095)">
       <defs>
        <path id="DejaVuSansMono-15" d="M 1166 531 
L 3309 531 
L 3309 0 
L 475 0 
L 475 531 
Q 1059 1147 1496 1619 
Q 1934 2091 2100 2284 
Q 2413 2666 2522 2902 
Q 2631 3138 2631 3384 
Q 2631 3775 2401 3997 
Q 2172 4219 1772 4219 
Q 1488 4219 1175 4116 
Q 863 4013 513 3803 
L 513 4441 
Q 834 4594 1145 4672 
Q 1456 4750 1759 4750 
Q 2444 4750 2861 4386 
Q 3278 4022 3278 3431 
Q 3278 3131 3139 2831 
Q 3000 2531 2688 2169 
Q 2513 1966 2180 1606 
Q 1847 1247 1166 531 
z
" transform="scale(0.015625)"/>
       </defs>
       <use xlink:href="#DejaVuSansMono-15"/>
       <use xlink:href="#DejaVuSansMono-11" transform="translate(60.203125 0)"/>
       <use xlink:href="#DejaVuSansMono-13" transform="translate(120.40625 0)"/>
      </g>
     </g>
    </g>
    <g id="xtick_6">
     <g id="line2d_11">
      <path d="M 349.893335 189.197773 
L 349.893335 3.8 
" clip-path="url(#p9640543194)" style="fill: none; stroke: #d6cfc0; stroke-width: 0.6; stroke-linecap: square"/>
     </g>
     <g id="line2d_12">
      <g>
       <use xlink:href="#mec67f6d4f0" x="349.893335" y="189.197773" style="fill: #8a9086; stroke: #8a9086; stroke-width: 0.8"/>
      </g>
     </g>
     <g id="text_6">
      <!-- 2.5 -->
      <g style="fill: #8a9086" transform="translate(341.31439 202.915547) scale(0.095 -0.095)">
       <use xlink:href="#DejaVuSansMono-15"/>
       <use xlink:href="#DejaVuSansMono-11" transform="translate(60.203125 0)"/>
       <use xlink:href="#DejaVuSansMono-18" transform="translate(120.40625 0)"/>
      </g>
     </g>
    </g>
    <g id="xtick_7">
     <g id="line2d_13">
      <path d="M 411.515557 189.197773 
L 411.515557 3.8 
" clip-path="url(#p9640543194)" style="fill: none; stroke: #d6cfc0; stroke-width: 0.6; stroke-linecap: square"/>
     </g>
     <g id="line2d_14">
      <g>
       <use xlink:href="#mec67f6d4f0" x="411.515557" y="189.197773" style="fill: #8a9086; stroke: #8a9086; stroke-width: 0.8"/>
      </g>
     </g>
     <g id="text_7">
      <!-- 3.0 -->
      <g style="fill: #8a9086" transform="translate(402.936611 202.915547) scale(0.095 -0.095)">
       <defs>
        <path id="DejaVuSansMono-16" d="M 2425 2497 
Q 2884 2375 3128 2064 
Q 3372 1753 3372 1288 
Q 3372 644 2939 276 
Q 2506 -91 1741 -91 
Q 1419 -91 1084 -31 
Q 750 28 428 141 
L 428 769 
Q 747 603 1056 522 
Q 1366 441 1672 441 
Q 2191 441 2469 675 
Q 2747 909 2747 1350 
Q 2747 1756 2469 1995 
Q 2191 2234 1716 2234 
L 1234 2234 
L 1234 2753 
L 1716 2753 
Q 2150 2753 2394 2943 
Q 2638 3134 2638 3475 
Q 2638 3834 2411 4026 
Q 2184 4219 1766 4219 
Q 1488 4219 1191 4156 
Q 894 4094 569 3969 
L 569 4550 
Q 947 4650 1242 4700 
Q 1538 4750 1766 4750 
Q 2447 4750 2855 4408 
Q 3263 4066 3263 3500 
Q 3263 3116 3048 2859 
Q 2834 2603 2425 2497 
z
" transform="scale(0.015625)"/>
       </defs>
       <use xlink:href="#DejaVuSansMono-16"/>
       <use xlink:href="#DejaVuSansMono-11" transform="translate(60.203125 0)"/>
       <use xlink:href="#DejaVuSansMono-13" transform="translate(120.40625 0)"/>
      </g>
     </g>
    </g>
    <g id="xtick_8">
     <g id="line2d_15">
      <path d="M 473.137778 189.197773 
L 473.137778 3.8 
" clip-path="url(#p9640543194)" style="fill: none; stroke: #d6cfc0; stroke-width: 0.6; stroke-linecap: square"/>
     </g>
     <g id="line2d_16">
      <g>
       <use xlink:href="#mec67f6d4f0" x="473.137778" y="189.197773" style="fill: #8a9086; stroke: #8a9086; stroke-width: 0.8"/>
      </g>
     </g>
     <g id="text_8">
      <!-- 3.5 -->
      <g style="fill: #8a9086" transform="translate(464.558833 202.915547) scale(0.095 -0.095)">
       <use xlink:href="#DejaVuSansMono-16"/>
       <use xlink:href="#DejaVuSansMono-11" transform="translate(60.203125 0)"/>
       <use xlink:href="#DejaVuSansMono-18" transform="translate(120.40625 0)"/>
      </g>
     </g>
    </g>
    <g id="xtick_9">
     <g id="line2d_17">
      <path d="M 534.76 189.197773 
L 534.76 3.8 
" clip-path="url(#p9640543194)" style="fill: none; stroke: #d6cfc0; stroke-width: 0.6; stroke-linecap: square"/>
     </g>
     <g id="line2d_18">
      <g>
       <use xlink:href="#mec67f6d4f0" x="534.76" y="189.197773" style="fill: #8a9086; stroke: #8a9086; stroke-width: 0.8"/>
      </g>
     </g>
     <g id="text_9">
      <!-- 4.0 -->
      <g style="fill: #8a9086" transform="translate(526.181055 202.915547) scale(0.095 -0.095)">
       <defs>
        <path id="DejaVuSansMono-17" d="M 2297 4091 
L 825 1625 
L 2297 1625 
L 2297 4091 
z
M 2194 4666 
L 2925 4666 
L 2925 1625 
L 3547 1625 
L 3547 1113 
L 2925 1113 
L 2925 0 
L 2297 0 
L 2297 1113 
L 319 1113 
L 319 1709 
L 2194 4666 
z
" transform="scale(0.015625)"/>
       </defs>
       <use xlink:href="#DejaVuSansMono-17"/>
       <use xlink:href="#DejaVuSansMono-11" transform="translate(60.203125 0)"/>
       <use xlink:href="#DejaVuSansMono-13" transform="translate(120.40625 0)"/>
      </g>
     </g>
    </g>
    <g id="text_10">
     <!-- time (s) -->
     <g style="fill: #5d655b" transform="translate(265.393926 216.416289) scale(0.095 -0.095)">
      <defs>
       <path id="DejaVuSansMono-57" d="M 1919 4494 
L 1919 3500 
L 3225 3500 
L 3225 3053 
L 1919 3053 
L 1919 1153 
Q 1919 766 2066 612 
Q 2213 459 2578 459 
L 3225 459 
L 3225 0 
L 2522 0 
Q 1875 0 1609 259 
Q 1344 519 1344 1153 
L 1344 3053 
L 409 3053 
L 409 3500 
L 1344 3500 
L 1344 4494 
L 1919 4494 
z
" transform="scale(0.015625)"/>
       <path id="DejaVuSansMono-4c" d="M 800 3500 
L 2272 3500 
L 2272 447 
L 3413 447 
L 3413 0 
L 556 0 
L 556 447 
L 1697 447 
L 1697 3053 
L 800 3053 
L 800 3500 
z
M 1697 4863 
L 2272 4863 
L 2272 4134 
L 1697 4134 
L 1697 4863 
z
" transform="scale(0.015625)"/>
       <path id="DejaVuSansMono-50" d="M 2113 3144 
Q 2219 3369 2383 3476 
Q 2547 3584 2778 3584 
Q 3200 3584 3373 3257 
Q 3547 2931 3547 2028 
L 3547 0 
L 3022 0 
L 3022 2003 
Q 3022 2744 2939 2923 
Q 2856 3103 2638 3103 
Q 2388 3103 2295 2911 
Q 2203 2719 2203 2003 
L 2203 0 
L 1678 0 
L 1678 2003 
Q 1678 2753 1589 2928 
Q 1500 3103 1269 3103 
Q 1041 3103 952 2911 
Q 863 2719 863 2003 
L 863 0 
L 341 0 
L 341 3500 
L 863 3500 
L 863 3200 
Q 966 3388 1120 3486 
Q 1275 3584 1472 3584 
Q 1709 3584 1867 3475 
Q 2025 3366 2113 3144 
z
" transform="scale(0.015625)"/>
       <path id="DejaVuSansMono-48" d="M 3475 1894 
L 3475 1613 
L 984 1613 
L 984 1594 
Q 984 1022 1282 709 
Q 1581 397 2125 397 
Q 2400 397 2700 484 
Q 3000 572 3341 750 
L 3341 178 
Q 3013 44 2708 -23 
Q 2403 -91 2119 -91 
Q 1303 -91 843 398 
Q 384 888 384 1747 
Q 384 2584 834 3084 
Q 1284 3584 2034 3584 
Q 2703 3584 3089 3131 
Q 3475 2678 3475 1894 
z
M 2900 2063 
Q 2888 2569 2661 2833 
Q 2434 3097 2009 3097 
Q 1594 3097 1325 2822 
Q 1056 2547 1006 2059 
L 2900 2063 
z
" transform="scale(0.015625)"/>
       <path id="DejaVuSansMono-3" transform="scale(0.015625)"/>
       <path id="DejaVuSansMono-b" d="M 2766 4856 
Q 2350 4144 2145 3436 
Q 1941 2728 1941 2009 
Q 1941 1294 2145 584 
Q 2350 -125 2766 -844 
L 2266 -844 
Q 1794 -100 1562 604 
Q 1331 1309 1331 2009 
Q 1331 2706 1562 3412 
Q 1794 4119 2266 4856 
L 2766 4856 
z
" transform="scale(0.015625)"/>
       <path id="DejaVuSansMono-56" d="M 3041 3378 
L 3041 2816 
Q 2794 2959 2544 3031 
Q 2294 3103 2034 3103 
Q 1644 3103 1451 2976 
Q 1259 2850 1259 2591 
Q 1259 2356 1403 2240 
Q 1547 2125 2119 2016 
L 2350 1972 
Q 2778 1891 2998 1647 
Q 3219 1403 3219 1013 
Q 3219 494 2850 201 
Q 2481 -91 1825 -91 
Q 1566 -91 1281 -36 
Q 997 19 666 128 
L 666 722 
Q 988 556 1281 473 
Q 1575 391 1838 391 
Q 2219 391 2428 545 
Q 2638 700 2638 978 
Q 2638 1378 1872 1531 
L 1847 1538 
L 1631 1581 
Q 1134 1678 906 1908 
Q 678 2138 678 2534 
Q 678 3038 1018 3311 
Q 1359 3584 1991 3584 
Q 2272 3584 2531 3532 
Q 2791 3481 3041 3378 
z
" transform="scale(0.015625)"/>
       <path id="DejaVuSansMono-c" d="M 1088 4856 
L 1588 4856 
Q 2059 4119 2290 3412 
Q 2522 2706 2522 2009 
Q 2522 1306 2290 600 
Q 2059 -106 1588 -844 
L 1088 -844 
Q 1503 -119 1708 590 
Q 1913 1300 1913 2009 
Q 1913 2722 1708 3431 
Q 1503 4141 1088 4856 
z
" transform="scale(0.015625)"/>
      </defs>
      <use xlink:href="#DejaVuSansMono-57"/>
      <use xlink:href="#DejaVuSansMono-4c" transform="translate(60.203125 0)"/>
      <use xlink:href="#DejaVuSansMono-50" transform="translate(120.40625 0)"/>
      <use xlink:href="#DejaVuSansMono-48" transform="translate(180.609375 0)"/>
      <use xlink:href="#DejaVuSansMono-3" transform="translate(240.8125 0)"/>
      <use xlink:href="#DejaVuSansMono-b" transform="translate(301.015625 0)"/>
      <use xlink:href="#DejaVuSansMono-56" transform="translate(361.21875 0)"/>
      <use xlink:href="#DejaVuSansMono-c" transform="translate(421.421875 0)"/>
     </g>
    </g>
   </g>
   <g id="matplotlib.axis_2">
    <g id="ytick_1">
     <g id="line2d_19">
      <path d="M 41.782227 189.197773 
L 534.76 189.197773 
" clip-path="url(#p9640543194)" style="fill: none; stroke: #d6cfc0; stroke-width: 0.6; stroke-linecap: square"/>
     </g>
     <g id="line2d_20">
      <defs>
       <path id="m4064e22344" d="M 0 0 
L -3 0 
" style="stroke: #8a9086; stroke-width: 0.8"/>
      </defs>
      <g>
       <use xlink:href="#m4064e22344" x="41.782227" y="189.197773" style="fill: #8a9086; stroke: #8a9086; stroke-width: 0.8"/>
      </g>
     </g>
     <g id="text_11">
      <!-- 0.0 -->
      <g style="fill: #8a9086" transform="translate(18.124336 192.80666) scale(0.095 -0.095)">
       <use xlink:href="#DejaVuSansMono-13"/>
       <use xlink:href="#DejaVuSansMono-11" transform="translate(60.203125 0)"/>
       <use xlink:href="#DejaVuSansMono-13" transform="translate(120.40625 0)"/>
      </g>
     </g>
    </g>
    <g id="ytick_2">
     <g id="line2d_21">
      <path d="M 41.782227 160.229371 
L 534.76 160.229371 
" clip-path="url(#p9640543194)" style="fill: none; stroke: #d6cfc0; stroke-width: 0.6; stroke-linecap: square"/>
     </g>
     <g id="line2d_22">
      <g>
       <use xlink:href="#m4064e22344" x="41.782227" y="160.229371" style="fill: #8a9086; stroke: #8a9086; stroke-width: 0.8"/>
      </g>
     </g>
     <g id="text_12">
      <!-- 0.5 -->
      <g style="fill: #8a9086" transform="translate(18.124336 163.838258) scale(0.095 -0.095)">
       <use xlink:href="#DejaVuSansMono-13"/>
       <use xlink:href="#DejaVuSansMono-11" transform="translate(60.203125 0)"/>
       <use xlink:href="#DejaVuSansMono-18" transform="translate(120.40625 0)"/>
      </g>
     </g>
    </g>
    <g id="ytick_3">
     <g id="line2d_23">
      <path d="M 41.782227 131.260969 
L 534.76 131.260969 
" clip-path="url(#p9640543194)" style="fill: none; stroke: #d6cfc0; stroke-width: 0.6; stroke-linecap: square"/>
     </g>
     <g id="line2d_24">
      <g>
       <use xlink:href="#m4064e22344" x="41.782227" y="131.260969" style="fill: #8a9086; stroke: #8a9086; stroke-width: 0.8"/>
      </g>
     </g>
     <g id="text_13">
      <!-- 1.0 -->
      <g style="fill: #8a9086" transform="translate(18.124336 134.869856) scale(0.095 -0.095)">
       <use xlink:href="#DejaVuSansMono-14"/>
       <use xlink:href="#DejaVuSansMono-11" transform="translate(60.203125 0)"/>
       <use xlink:href="#DejaVuSansMono-13" transform="translate(120.40625 0)"/>
      </g>
     </g>
    </g>
    <g id="ytick_4">
     <g id="line2d_25">
      <path d="M 41.782227 102.292567 
L 534.76 102.292567 
" clip-path="url(#p9640543194)" style="fill: none; stroke: #d6cfc0; stroke-width: 0.6; stroke-linecap: square"/>
     </g>
     <g id="line2d_26">
      <g>
       <use xlink:href="#m4064e22344" x="41.782227" y="102.292567" style="fill: #8a9086; stroke: #8a9086; stroke-width: 0.8"/>
      </g>
     </g>
     <g id="text_14">
      <!-- 1.5 -->
      <g style="fill: #8a9086" transform="translate(18.124336 105.901454) scale(0.095 -0.095)">
       <use xlink:href="#DejaVuSansMono-14"/>
       <use xlink:href="#DejaVuSansMono-11" transform="translate(60.203125 0)"/>
       <use xlink:href="#DejaVuSansMono-18" transform="translate(120.40625 0)"/>
      </g>
     </g>
    </g>
    <g id="ytick_5">
     <g id="line2d_27">
      <path d="M 41.782227 73.324165 
L 534.76 73.324165 
" clip-path="url(#p9640543194)" style="fill: none; stroke: #d6cfc0; stroke-width: 0.6; stroke-linecap: square"/>
     </g>
     <g id="line2d_28">
      <g>
       <use xlink:href="#m4064e22344" x="41.782227" y="73.324165" style="fill: #8a9086; stroke: #8a9086; stroke-width: 0.8"/>
      </g>
     </g>
     <g id="text_15">
      <!-- 2.0 -->
      <g style="fill: #8a9086" transform="translate(18.124336 76.933052) scale(0.095 -0.095)">
       <use xlink:href="#DejaVuSansMono-15"/>
       <use xlink:href="#DejaVuSansMono-11" transform="translate(60.203125 0)"/>
       <use xlink:href="#DejaVuSansMono-13" transform="translate(120.40625 0)"/>
      </g>
     </g>
    </g>
    <g id="ytick_6">
     <g id="line2d_29">
      <path d="M 41.782227 44.355763 
L 534.76 44.355763 
" clip-path="url(#p9640543194)" style="fill: none; stroke: #d6cfc0; stroke-width: 0.6; stroke-linecap: square"/>
     </g>
     <g id="line2d_30">
      <g>
       <use xlink:href="#m4064e22344" x="41.782227" y="44.355763" style="fill: #8a9086; stroke: #8a9086; stroke-width: 0.8"/>
      </g>
     </g>
     <g id="text_16">
      <!-- 2.5 -->
      <g style="fill: #8a9086" transform="translate(18.124336 47.96465) scale(0.095 -0.095)">
       <use xlink:href="#DejaVuSansMono-15"/>
       <use xlink:href="#DejaVuSansMono-11" transform="translate(60.203125 0)"/>
       <use xlink:href="#DejaVuSansMono-18" transform="translate(120.40625 0)"/>
      </g>
     </g>
    </g>
    <g id="ytick_7">
     <g id="line2d_31">
      <path d="M 41.782227 15.387361 
L 534.76 15.387361 
" clip-path="url(#p9640543194)" style="fill: none; stroke: #d6cfc0; stroke-width: 0.6; stroke-linecap: square"/>
     </g>
     <g id="line2d_32">
      <g>
       <use xlink:href="#m4064e22344" x="41.782227" y="15.387361" style="fill: #8a9086; stroke: #8a9086; stroke-width: 0.8"/>
      </g>
     </g>
     <g id="text_17">
      <!-- 3.0 -->
      <g style="fill: #8a9086" transform="translate(18.124336 18.996248) scale(0.095 -0.095)">
       <use xlink:href="#DejaVuSansMono-16"/>
       <use xlink:href="#DejaVuSansMono-11" transform="translate(60.203125 0)"/>
       <use xlink:href="#DejaVuSansMono-13" transform="translate(120.40625 0)"/>
      </g>
     </g>
    </g>
    <g id="text_18">
     <!-- acceleration (g) -->
     <g style="fill: #5d655b" transform="translate(11.842109 142.253262) rotate(-90) scale(0.095 -0.095)">
      <defs>
       <path id="DejaVuSansMono-44" d="M 2194 1759 
L 2003 1759 
Q 1500 1759 1245 1582 
Q 991 1406 991 1056 
Q 991 741 1181 566 
Q 1372 391 1709 391 
Q 2184 391 2456 720 
Q 2728 1050 2731 1631 
L 2731 1759 
L 2194 1759 
z
M 3309 1997 
L 3309 0 
L 2731 0 
L 2731 519 
Q 2547 206 2267 57 
Q 1988 -91 1588 -91 
Q 1053 -91 734 211 
Q 416 513 416 1019 
Q 416 1603 808 1906 
Q 1200 2209 1959 2209 
L 2731 2209 
L 2731 2300 
Q 2728 2719 2518 2908 
Q 2309 3097 1850 3097 
Q 1556 3097 1256 3012 
Q 956 2928 672 2766 
L 672 3341 
Q 991 3463 1283 3523 
Q 1575 3584 1850 3584 
Q 2284 3584 2592 3456 
Q 2900 3328 3091 3072 
Q 3209 2916 3259 2686 
Q 3309 2456 3309 1997 
z
" transform="scale(0.015625)"/>
       <path id="DejaVuSansMono-46" d="M 3316 178 
Q 3084 44 2839 -23 
Q 2594 -91 2338 -91 
Q 1525 -91 1067 396 
Q 609 884 609 1747 
Q 609 2609 1067 3096 
Q 1525 3584 2338 3584 
Q 2591 3584 2831 3518 
Q 3072 3453 3316 3316 
L 3316 2713 
Q 3088 2916 2858 3006 
Q 2628 3097 2338 3097 
Q 1797 3097 1506 2747 
Q 1216 2397 1216 1747 
Q 1216 1100 1508 748 
Q 1800 397 2338 397 
Q 2638 397 2875 489 
Q 3113 581 3316 775 
L 3316 178 
z
" transform="scale(0.015625)"/>
       <path id="DejaVuSansMono-4f" d="M 1997 1269 
Q 1997 881 2139 684 
Q 2281 488 2559 488 
L 3231 488 
L 3231 0 
L 2503 0 
Q 1988 0 1705 331 
Q 1422 663 1422 1269 
L 1422 4447 
L 500 4447 
L 500 4897 
L 1997 4897 
L 1997 1269 
z
" transform="scale(0.015625)"/>
       <path id="DejaVuSansMono-55" d="M 3609 2778 
Q 3425 2922 3234 2987 
Q 3044 3053 2816 3053 
Q 2278 3053 1993 2715 
Q 1709 2378 1709 1741 
L 1709 0 
L 1131 0 
L 1131 3500 
L 1709 3500 
L 1709 2816 
Q 1853 3188 2151 3386 
Q 2450 3584 2859 3584 
Q 3072 3584 3256 3531 
Q 3441 3478 3609 3366 
L 3609 2778 
z
" transform="scale(0.015625)"/>
       <path id="DejaVuSansMono-52" d="M 1925 3097 
Q 1488 3097 1263 2756 
Q 1038 2416 1038 1747 
Q 1038 1081 1263 739 
Q 1488 397 1925 397 
Q 2366 397 2591 739 
Q 2816 1081 2816 1747 
Q 2816 2416 2591 2756 
Q 2366 3097 1925 3097 
z
M 1925 3584 
Q 2653 3584 3039 3112 
Q 3425 2641 3425 1747 
Q 3425 850 3040 379 
Q 2656 -91 1925 -91 
Q 1197 -91 812 379 
Q 428 850 428 1747 
Q 428 2641 812 3112 
Q 1197 3584 1925 3584 
z
" transform="scale(0.015625)"/>
       <path id="DejaVuSansMono-51" d="M 3284 2169 
L 3284 0 
L 2706 0 
L 2706 2169 
Q 2706 2641 2540 2862 
Q 2375 3084 2022 3084 
Q 1619 3084 1401 2798 
Q 1184 2513 1184 1978 
L 1184 0 
L 609 0 
L 609 3500 
L 1184 3500 
L 1184 2975 
Q 1338 3275 1600 3429 
Q 1863 3584 2222 3584 
Q 2756 3584 3020 3232 
Q 3284 2881 3284 2169 
z
" transform="scale(0.015625)"/>
       <path id="DejaVuSansMono-4a" d="M 2681 1778 
Q 2681 2425 2470 2761 
Q 2259 3097 1856 3097 
Q 1434 3097 1212 2761 
Q 991 2425 991 1778 
Q 991 1131 1214 792 
Q 1438 453 1863 453 
Q 2259 453 2470 793 
Q 2681 1134 2681 1778 
z
M 3256 225 
Q 3256 -563 2884 -969 
Q 2513 -1375 1791 -1375 
Q 1553 -1375 1293 -1331 
Q 1034 -1288 775 -1203 
L 775 -634 
Q 1081 -778 1331 -847 
Q 1581 -916 1791 -916 
Q 2256 -916 2468 -662 
Q 2681 -409 2681 141 
L 2681 166 
L 2681 556 
Q 2544 263 2306 119 
Q 2069 -25 1728 -25 
Q 1116 -25 750 465 
Q 384 956 384 1778 
Q 384 2603 750 3093 
Q 1116 3584 1728 3584 
Q 2066 3584 2300 3450 
Q 2534 3316 2681 3034 
L 2681 3488 
L 3256 3488 
L 3256 225 
z
" transform="scale(0.015625)"/>
      </defs>
      <use xlink:href="#DejaVuSansMono-44"/>
      <use xlink:href="#DejaVuSansMono-46" transform="translate(60.203125 0)"/>
      <use xlink:href="#DejaVuSansMono-46" transform="translate(120.40625 0)"/>
      <use xlink:href="#DejaVuSansMono-48" transform="translate(180.609375 0)"/>
      <use xlink:href="#DejaVuSansMono-4f" transform="translate(240.8125 0)"/>
      <use xlink:href="#DejaVuSansMono-48" transform="translate(301.015625 0)"/>
      <use xlink:href="#DejaVuSansMono-55" transform="translate(361.21875 0)"/>
      <use xlink:href="#DejaVuSansMono-44" transform="translate(421.421875 0)"/>
      <use xlink:href="#DejaVuSansMono-57" transform="translate(481.625 0)"/>
      <use xlink:href="#DejaVuSansMono-4c" transform="translate(541.828125 0)"/>
      <use xlink:href="#DejaVuSansMono-52" transform="translate(602.03125 0)"/>
      <use xlink:href="#DejaVuSansMono-51" transform="translate(662.234375 0)"/>
      <use xlink:href="#DejaVuSansMono-3" transform="translate(722.4375 0)"/>
      <use xlink:href="#DejaVuSansMono-b" transform="translate(782.640625 0)"/>
      <use xlink:href="#DejaVuSansMono-4a" transform="translate(842.84375 0)"/>
      <use xlink:href="#DejaVuSansMono-c" transform="translate(903.046875 0)"/>
     </g>
    </g>
   </g>
   <g id="patch_3">
    <path d="M 288.271113 189.197773 
L 337.568891 189.197773 
L 337.568891 3.8 
L 288.271113 3.8 
z
" clip-path="url(#p9640543194)" style="fill: #55884d; opacity: 0.1"/>
   </g>
   <g id="line2d_33">
    <path d="M 41.782227 168.919892 
L 534.76 168.919892 
" clip-path="url(#p9640543194)" style="fill: none; stroke-dasharray: 4.4,3.3; stroke-dashoffset: 0; stroke: #8a9086; stroke-width: 1.1"/>
   </g>
   <g id="line2d_34">
    <path d="M 41.782227 44.355763 
L 534.76 44.355763 
" clip-path="url(#p9640543194)" style="fill: none; stroke-dasharray: 4.4,3.3; stroke-dashoffset: 0; stroke: #8a9086; stroke-width: 1.1"/>
   </g>
   <g id="line2d_35">
    <path d="M 41.782227 131.260969 
L 54.106671 130.102233 
L 66.431115 132.419705 
L 78.75556 130.681601 
L 91.080004 131.840337 
L 103.404448 129.522865 
L 115.728893 132.999073 
L 128.053337 131.260969 
L 140.377781 130.102233 
L 152.702226 131.840337 
L 165.02667 130.681601 
L 177.351114 132.419705 
L 189.675559 131.260969 
L 202.000003 128.943497 
L 214.324447 132.999073 
L 226.648892 130.681601 
L 238.973336 131.840337 
L 251.29778 130.102233 
L 263.622225 132.419705 
L 275.946669 131.260969 
L 288.271113 172.975468 
L 300.595558 183.983461 
L 312.920002 182.824725 
L 325.244446 37.403346 
L 337.568891 95.340151 
L 349.893335 119.09424 
L 362.217779 137.05465 
L 374.542224 127.784761 
L 386.866668 132.999073 
L 399.191112 130.681601 
L 411.515557 131.840337 
L 423.840001 131.260969 
L 436.164445 130.102233 
L 448.48889 132.419705 
L 460.813334 130.681601 
L 473.137778 131.840337 
L 485.462223 131.260969 
L 497.786667 130.102233 
L 510.111111 132.419705 
L 522.435556 131.260969 
" clip-path="url(#p9640543194)" style="fill: none; stroke: #55884d; stroke-width: 2; stroke-linecap: round"/>
   </g>
   <g id="patch_4">
    <path d="M 41.782227 189.197773 
L 41.782227 3.8 
" style="fill: none; stroke: #bfb7a4; stroke-width: 0.8; stroke-linejoin: miter; stroke-linecap: square"/>
   </g>
   <g id="patch_5">
    <path d="M 41.782227 189.197773 
L 534.76 189.197773 
" style="fill: none; stroke: #bfb7a4; stroke-width: 0.8; stroke-linejoin: miter; stroke-linecap: square"/>
   </g>
   <g id="text_19">
    <!-- free-fall threshold 0.35 g -->
    <g style="fill: #5d655b" transform="translate(51.641782 166.8779) scale(0.085 -0.085)">
     <defs>
      <path id="DejaVuSansMono-49" d="M 3322 4863 
L 3322 4384 
L 2669 4384 
Q 2359 4384 2239 4257 
Q 2119 4131 2119 3809 
L 2119 3500 
L 3322 3500 
L 3322 3053 
L 2119 3053 
L 2119 0 
L 1544 0 
L 1544 3053 
L 609 3053 
L 609 3500 
L 1544 3500 
L 1544 3744 
Q 1544 4319 1808 4591 
Q 2072 4863 2631 4863 
L 3322 4863 
z
" transform="scale(0.015625)"/>
      <path id="DejaVuSansMono-10" d="M 1113 2009 
L 2741 2009 
L 2741 1497 
L 1113 1497 
L 1113 2009 
z
" transform="scale(0.015625)"/>
      <path id="DejaVuSansMono-4b" d="M 3284 2169 
L 3284 0 
L 2706 0 
L 2706 2169 
Q 2706 2641 2540 2862 
Q 2375 3084 2022 3084 
Q 1619 3084 1401 2798 
Q 1184 2513 1184 1978 
L 1184 0 
L 609 0 
L 609 4863 
L 1184 4863 
L 1184 2975 
Q 1338 3275 1600 3429 
Q 1863 3584 2222 3584 
Q 2756 3584 3020 3232 
Q 3284 2881 3284 2169 
z
" transform="scale(0.015625)"/>
      <path id="DejaVuSansMono-47" d="M 2681 3053 
L 2681 4863 
L 3256 4863 
L 3256 0 
L 2681 0 
L 2681 441 
Q 2538 181 2298 45 
Q 2059 -91 1747 -91 
Q 1113 -91 748 401 
Q 384 894 384 1759 
Q 384 2613 750 3098 
Q 1116 3584 1747 3584 
Q 2063 3584 2303 3448 
Q 2544 3313 2681 3053 
z
M 991 1747 
Q 991 1078 1203 737 
Q 1416 397 1831 397 
Q 2247 397 2464 740 
Q 2681 1084 2681 1747 
Q 2681 2413 2464 2755 
Q 2247 3097 1831 3097 
Q 1416 3097 1203 2756 
Q 991 2416 991 1747 
z
" transform="scale(0.015625)"/>
     </defs>
     <use xlink:href="#DejaVuSansMono-49"/>
     <use xlink:href="#DejaVuSansMono-55" transform="translate(60.203125 0)"/>
     <use xlink:href="#DejaVuSansMono-48" transform="translate(120.40625 0)"/>
     <use xlink:href="#DejaVuSansMono-48" transform="translate(180.609375 0)"/>
     <use xlink:href="#DejaVuSansMono-10" transform="translate(240.8125 0)"/>
     <use xlink:href="#DejaVuSansMono-49" transform="translate(301.015625 0)"/>
     <use xlink:href="#DejaVuSansMono-44" transform="translate(361.21875 0)"/>
     <use xlink:href="#DejaVuSansMono-4f" transform="translate(421.421875 0)"/>
     <use xlink:href="#DejaVuSansMono-4f" transform="translate(481.625 0)"/>
     <use xlink:href="#DejaVuSansMono-3" transform="translate(541.828125 0)"/>
     <use xlink:href="#DejaVuSansMono-57" transform="translate(602.03125 0)"/>
     <use xlink:href="#DejaVuSansMono-4b" transform="translate(662.234375 0)"/>
     <use xlink:href="#DejaVuSansMono-55" transform="translate(722.4375 0)"/>
     <use xlink:href="#DejaVuSansMono-48" transform="translate(782.640625 0)"/>
     <use xlink:href="#DejaVuSansMono-56" transform="translate(842.84375 0)"/>
     <use xlink:href="#DejaVuSansMono-4b" transform="translate(903.046875 0)"/>
     <use xlink:href="#DejaVuSansMono-52" transform="translate(963.25 0)"/>
     <use xlink:href="#DejaVuSansMono-4f" transform="translate(1023.453125 0)"/>
     <use xlink:href="#DejaVuSansMono-47" transform="translate(1083.65625 0)"/>
     <use xlink:href="#DejaVuSansMono-3" transform="translate(1143.859375 0)"/>
     <use xlink:href="#DejaVuSansMono-13" transform="translate(1204.0625 0)"/>
     <use xlink:href="#DejaVuSansMono-11" transform="translate(1264.265625 0)"/>
     <use xlink:href="#DejaVuSansMono-16" transform="translate(1324.46875 0)"/>
     <use xlink:href="#DejaVuSansMono-18" transform="translate(1384.671875 0)"/>
     <use xlink:href="#DejaVuSansMono-3" transform="translate(1444.875 0)"/>
     <use xlink:href="#DejaVuSansMono-4a" transform="translate(1505.078125 0)"/>
    </g>
   </g>
   <g id="text_20">
    <!-- impact threshold 2.5 g -->
    <g style="fill: #5d655b" transform="translate(51.641782 42.313771) scale(0.085 -0.085)">
     <defs>
      <path id="DejaVuSansMono-53" d="M 1172 441 
L 1172 -1331 
L 594 -1331 
L 594 3500 
L 1172 3500 
L 1172 3053 
Q 1316 3313 1555 3448 
Q 1794 3584 2106 3584 
Q 2741 3584 3102 3093 
Q 3463 2603 3463 1734 
Q 3463 881 3100 395 
Q 2738 -91 2106 -91 
Q 1788 -91 1548 45 
Q 1309 181 1172 441 
z
M 2859 1747 
Q 2859 2416 2648 2756 
Q 2438 3097 2022 3097 
Q 1603 3097 1387 2755 
Q 1172 2413 1172 1747 
Q 1172 1084 1387 740 
Q 1603 397 2022 397 
Q 2438 397 2648 737 
Q 2859 1078 2859 1747 
z
" transform="scale(0.015625)"/>
     </defs>
     <use xlink:href="#DejaVuSansMono-4c"/>
     <use xlink:href="#DejaVuSansMono-50" transform="translate(60.203125 0)"/>
     <use xlink:href="#DejaVuSansMono-53" transform="translate(120.40625 0)"/>
     <use xlink:href="#DejaVuSansMono-44" transform="translate(180.609375 0)"/>
     <use xlink:href="#DejaVuSansMono-46" transform="translate(240.8125 0)"/>
     <use xlink:href="#DejaVuSansMono-57" transform="translate(301.015625 0)"/>
     <use xlink:href="#DejaVuSansMono-3" transform="translate(361.21875 0)"/>
     <use xlink:href="#DejaVuSansMono-57" transform="translate(421.421875 0)"/>
     <use xlink:href="#DejaVuSansMono-4b" transform="translate(481.625 0)"/>
     <use xlink:href="#DejaVuSansMono-55" transform="translate(541.828125 0)"/>
     <use xlink:href="#DejaVuSansMono-48" transform="translate(602.03125 0)"/>
     <use xlink:href="#DejaVuSansMono-56" transform="translate(662.234375 0)"/>
     <use xlink:href="#DejaVuSansMono-4b" transform="translate(722.4375 0)"/>
     <use xlink:href="#DejaVuSansMono-52" transform="translate(782.640625 0)"/>
     <use xlink:href="#DejaVuSansMono-4f" transform="translate(842.84375 0)"/>
     <use xlink:href="#DejaVuSansMono-47" transform="translate(903.046875 0)"/>
     <use xlink:href="#DejaVuSansMono-3" transform="translate(963.25 0)"/>
     <use xlink:href="#DejaVuSansMono-15" transform="translate(1023.453125 0)"/>
     <use xlink:href="#DejaVuSansMono-11" transform="translate(1083.65625 0)"/>
     <use xlink:href="#DejaVuSansMono-18" transform="translate(1143.859375 0)"/>
     <use xlink:href="#DejaVuSansMono-3" transform="translate(1204.0625 0)"/>
     <use xlink:href="#DejaVuSansMono-4a" transform="translate(1264.265625 0)"/>
    </g>
   </g>
   <g id="text_21">
    <!-- 400 ms window -->
    <g style="fill: #5d655b" transform="translate(279.657775 18.284201) scale(0.085 -0.085)">
     <defs>
      <path id="DejaVuSansMono-5a" d="M 0 3500 
L 569 3500 
L 1178 672 
L 1678 2478 
L 2169 2478 
L 2675 672 
L 3284 3500 
L 3853 3500 
L 3034 0 
L 2484 0 
L 1925 1919 
L 1369 0 
L 819 0 
L 0 3500 
z
" transform="scale(0.015625)"/>
     </defs>
     <use xlink:href="#DejaVuSansMono-17"/>
     <use xlink:href="#DejaVuSansMono-13" transform="translate(60.203125 0)"/>
     <use xlink:href="#DejaVuSansMono-13" transform="translate(120.40625 0)"/>
     <use xlink:href="#DejaVuSansMono-3" transform="translate(180.609375 0)"/>
     <use xlink:href="#DejaVuSansMono-50" transform="translate(240.8125 0)"/>
     <use xlink:href="#DejaVuSansMono-56" transform="translate(301.015625 0)"/>
     <use xlink:href="#DejaVuSansMono-3" transform="translate(361.21875 0)"/>
     <use xlink:href="#DejaVuSansMono-5a" transform="translate(421.421875 0)"/>
     <use xlink:href="#DejaVuSansMono-4c" transform="translate(481.625 0)"/>
     <use xlink:href="#DejaVuSansMono-51" transform="translate(541.828125 0)"/>
     <use xlink:href="#DejaVuSansMono-47" transform="translate(602.03125 0)"/>
     <use xlink:href="#DejaVuSansMono-52" transform="translate(662.234375 0)"/>
     <use xlink:href="#DejaVuSansMono-5a" transform="translate(722.4375 0)"/>
    </g>
   </g>
   <g id="text_22">
    <!-- fall flagged here -->
    <g style="fill: #9c4f28" transform="translate(393.02889 30.45093) scale(0.09 -0.09)">
     <defs>
      <path id="DejaVuSansMono-Bold-49" d="M 2309 3806 
L 2309 3500 
L 3384 3500 
L 3384 2797 
L 2309 2797 
L 2309 0 
L 1394 0 
L 1394 2797 
L 544 2797 
L 544 3500 
L 1394 3500 
L 1394 3744 
Q 1394 4375 1656 4619 
Q 1919 4863 2631 4863 
L 3384 4863 
L 3384 4159 
L 2669 4159 
Q 2463 4159 2389 4084 
Q 2316 4009 2309 3806 
z
" transform="scale(0.015625)"/>
      <path id="DejaVuSansMono-Bold-44" d="M 2188 1644 
Q 1675 1644 1472 1512 
Q 1269 1381 1269 1063 
Q 1269 825 1409 684 
Q 1550 544 1791 544 
Q 2153 544 2353 817 
Q 2553 1091 2553 1581 
L 2553 1644 
L 2188 1644 
z
M 3463 1997 
L 3463 0 
L 2553 0 
L 2553 391 
Q 2388 159 2128 34 
Q 1869 -91 1556 -91 
Q 959 -91 626 225 
Q 294 541 294 1106 
Q 294 1719 691 2011 
Q 1088 2303 1919 2303 
L 2553 2303 
L 2553 2456 
Q 2553 2678 2392 2792 
Q 2231 2906 1919 2906 
Q 1591 2906 1283 2823 
Q 975 2741 641 2559 
L 641 3341 
Q 944 3466 1256 3525 
Q 1569 3584 1919 3584 
Q 2772 3584 3117 3237 
Q 3463 2891 3463 1997 
z
" transform="scale(0.015625)"/>
      <path id="DejaVuSansMono-Bold-4f" d="M 1209 1459 
L 1209 4159 
L 281 4159 
L 281 4863 
L 2125 4863 
L 2125 1459 
Q 2125 1047 2253 875 
Q 2381 703 2688 703 
L 3419 703 
L 3419 0 
L 2431 0 
Q 1778 0 1493 337 
Q 1209 675 1209 1459 
z
" transform="scale(0.015625)"/>
      <path id="DejaVuSansMono-Bold-3" transform="scale(0.015625)"/>
      <path id="DejaVuSansMono-Bold-4a" d="M 2509 1806 
Q 2509 2275 2331 2558 
Q 2153 2841 1863 2841 
Q 1575 2841 1398 2559 
Q 1222 2278 1222 1806 
Q 1222 1331 1398 1050 
Q 1575 769 1863 769 
Q 2153 769 2331 1051 
Q 2509 1334 2509 1806 
z
M 3425 263 
Q 3425 -578 3045 -951 
Q 2666 -1325 1813 -1325 
Q 1525 -1325 1244 -1283 
Q 963 -1241 672 -1153 
L 672 -313 
Q 931 -456 1200 -525 
Q 1469 -594 1753 -594 
Q 2141 -594 2325 -411 
Q 2509 -228 2509 159 
L 2509 538 
Q 2375 288 2153 166 
Q 1931 44 1613 44 
Q 1013 44 659 512 
Q 306 981 306 1784 
Q 306 2616 659 3103 
Q 1013 3591 1606 3591 
Q 1906 3591 2140 3450 
Q 2375 3309 2509 3053 
L 2509 3500 
L 3425 3500 
L 3425 263 
z
" transform="scale(0.015625)"/>
      <path id="DejaVuSansMono-Bold-48" d="M 3444 172 
Q 3125 41 2794 -25 
Q 2463 -91 2094 -91 
Q 1216 -91 752 379 
Q 288 850 288 1734 
Q 288 2591 734 3087 
Q 1181 3584 1953 3584 
Q 2731 3584 3161 3123 
Q 3591 2663 3591 1825 
L 3591 1453 
L 1219 1453 
Q 1222 1041 1462 837 
Q 1703 634 2181 634 
Q 2497 634 2803 725 
Q 3109 816 3444 1013 
L 3444 172 
z
M 2669 2141 
Q 2663 2503 2483 2689 
Q 2303 2875 1953 2875 
Q 1638 2875 1450 2683 
Q 1263 2491 1228 2138 
L 2669 2141 
z
" transform="scale(0.015625)"/>
      <path id="DejaVuSansMono-Bold-47" d="M 2472 3003 
L 2472 4863 
L 3384 4863 
L 3384 0 
L 2472 0 
L 2472 519 
Q 2325 216 2092 62 
Q 1859 -91 1544 -91 
Q 944 -91 612 390 
Q 281 872 281 1747 
Q 281 2634 617 3109 
Q 953 3584 1575 3584 
Q 1856 3584 2079 3439 
Q 2303 3294 2472 3003 
z
M 1197 1741 
Q 1197 1234 1365 946 
Q 1534 659 1831 659 
Q 2128 659 2300 946 
Q 2472 1234 2472 1741 
Q 2472 2247 2300 2534 
Q 2128 2822 1831 2822 
Q 1534 2822 1365 2534 
Q 1197 2247 1197 1741 
z
" transform="scale(0.015625)"/>
      <path id="DejaVuSansMono-Bold-4b" d="M 3347 2272 
L 3347 0 
L 2438 0 
L 2438 2131 
Q 2438 2509 2330 2671 
Q 2222 2834 1978 2834 
Q 1728 2834 1587 2614 
Q 1447 2394 1447 2003 
L 1447 0 
L 538 0 
L 538 4863 
L 1447 4863 
L 1447 2975 
Q 1544 3266 1778 3425 
Q 2013 3584 2344 3584 
Q 2841 3584 3094 3254 
Q 3347 2925 3347 2272 
z
" transform="scale(0.015625)"/>
      <path id="DejaVuSansMono-Bold-55" d="M 3597 2534 
Q 3447 2672 3245 2740 
Q 3044 2809 2803 2809 
Q 2513 2809 2295 2707 
Q 2078 2606 1959 2413 
Q 1884 2294 1854 2125 
Q 1825 1956 1825 1613 
L 1825 0 
L 909 0 
L 909 3500 
L 1825 3500 
L 1825 2956 
Q 1959 3256 2237 3420 
Q 2516 3584 2888 3584 
Q 3075 3584 3254 3539 
Q 3434 3494 3597 3406 
L 3597 2534 
z
" transform="scale(0.015625)"/>
     </defs>
     <use xlink:href="#DejaVuSansMono-Bold-49"/>
     <use xlink:href="#DejaVuSansMono-Bold-44" transform="translate(60.203125 0)"/>
     <use xlink:href="#DejaVuSansMono-Bold-4f" transform="translate(120.40625 0)"/>
     <use xlink:href="#DejaVuSansMono-Bold-4f" transform="translate(180.609375 0)"/>
     <use xlink:href="#DejaVuSansMono-Bold-3" transform="translate(240.8125 0)"/>
     <use xlink:href="#DejaVuSansMono-Bold-49" transform="translate(301.015625 0)"/>
     <use xlink:href="#DejaVuSansMono-Bold-4f" transform="translate(361.21875 0)"/>
     <use xlink:href="#DejaVuSansMono-Bold-44" transform="translate(421.421875 0)"/>
     <use xlink:href="#DejaVuSansMono-Bold-4a" transform="translate(481.625 0)"/>
     <use xlink:href="#DejaVuSansMono-Bold-4a" transform="translate(541.828125 0)"/>
     <use xlink:href="#DejaVuSansMono-Bold-48" transform="translate(602.03125 0)"/>
     <use xlink:href="#DejaVuSansMono-Bold-47" transform="translate(662.234375 0)"/>
     <use xlink:href="#DejaVuSansMono-Bold-3" transform="translate(722.4375 0)"/>
     <use xlink:href="#DejaVuSansMono-Bold-4b" transform="translate(782.640625 0)"/>
     <use xlink:href="#DejaVuSansMono-Bold-48" transform="translate(842.84375 0)"/>
     <use xlink:href="#DejaVuSansMono-Bold-55" transform="translate(903.046875 0)"/>
     <use xlink:href="#DejaVuSansMono-Bold-48" transform="translate(963.25 0)"/>
    </g>
   </g>
   <g id="line2d_36">
    <defs>
     <path id="m35bbc436b9" d="M 0 4 
C 1.060812 4 2.078319 3.578535 2.828427 2.828427 
C 3.578535 2.078319 4 1.060812 4 0 
C 4 -1.060812 3.578535 -2.078319 2.828427 -2.828427 
C 2.078319 -3.578535 1.060812 -4 0 -4 
C -1.060812 -4 -2.078319 -3.578535 -2.828427 -2.828427 
C -3.578535 -2.078319 -4 -1.060812 -4 0 
C -4 1.060812 -3.578535 2.078319 -2.828427 2.828427 
C -2.078319 3.578535 -1.060812 4 0 4 
z
" style="stroke: #f4f1e9; stroke-width: 1.5"/>
    </defs>
    <g clip-path="url(#p9640543194)">
     <use xlink:href="#m35bbc436b9" x="325.244446" y="37.403346" style="fill: #9c4f28; stroke: #f4f1e9; stroke-width: 1.5"/>
    </g>
   </g>
  </g>
 </g>
 <defs>
  <clipPath id="p9640543194">
   <rect x="41.782227" y="3.8" width="492.977773" height="185.397773"/>
  </clipPath>
 </defs>
</svg>
