<?xml version="1.0" standalone="no"?>
 <!DOCTYPE svg PUBLIC "-//W3C//DTD SVG 1.1//EN" 
 "http://www.w3.org/Graphics/SVG/1.1/DTD/svg11.dtd"> 
<svg
  xmlns:svg="http://www.w3.org/2000/svg"
  xmlns="http://www.w3.org/2000/svg"
  xmlns:xlink="http://www.w3.org/1999/xlink"
  xmlns:inkscape="http://www.inkscape.org/namespaces/inkscape"
  version="1.1"
  width="77.4954mm" height="71.7296mm" viewBox="0.0000 0.0000 77.4954 71.7296">
<title>SVG Image created as ghostmedic-sensor-hub-front-copper.svg date 2026-07-22T12:00:19 </title>
  <desc>Image generated by PCBNEW </desc>
<g style="fill:#000000; fill-opacity:1.0000;stroke:#000000; stroke-opacity:1.0000;
stroke-linecap:round; stroke-linejoin:round;"
 transform="translate(0 0) scale(1 1)">
<path style="fill:#000000; fill-opacity:1.0000; stroke:none;fill-rule:evenodd;"
d="M 47.4000,39.6250
47.4190,39.5293
47.4732,39.4482
47.5543,39.3940
47.6500,39.3750
48.1500,39.3750
48.2457,39.3940
48.3268,39.4482
48.3810,39.5293
48.4000,39.6250
48.4000,40.5750
48.3810,40.6707
48.3268,40.7518
48.2457,40.8060
48.1500,40.8250
47.6500,40.8250
47.5543,40.8060
47.4732,40.7518
47.4190,40.6707
47.4000,40.5750
Z" /> 
<path style="fill:#000000; fill-opacity:1.0000; stroke:none;fill-rule:evenodd;"
d="M 49.3000,39.6250
49.3190,39.5293
49.3732,39.4482
49.4543,39.3940
49.5500,39.3750
50.0500,39.3750
50.1457,39.3940
50.2268,39.4482
50.2810,39.5293
50.3000,39.6250
50.3000,40.5750
50.2810,40.6707
50.2268,40.7518
50.1457,40.8060
50.0500,40.8250
49.5500,40.8250
49.4543,40.8060
49.3732,40.7518
49.3190,40.6707
49.3000,40.5750
Z" /> 
<path style="fill:#000000; fill-opacity:1.0000; stroke:none;fill-rule:evenodd;"
d="M 3.3500,46.2750
3.3690,46.1793
3.4232,46.0982
3.5043,46.0440
3.6000,46.0250
4.1000,46.0250
4.1957,46.0440
4.2768,46.0982
4.3310,46.1793
4.3500,46.2750
4.3500,47.2250
4.3310,47.3207
4.2768,47.4018
4.1957,47.4560
4.1000,47.4750
3.6000,47.4750
3.5043,47.4560
3.4232,47.4018
3.3690,47.3207
3.3500,47.2250
Z" /> 
<path style="fill:#000000; fill-opacity:1.0000; stroke:none;fill-rule:evenodd;"
d="M 5.2500,46.2750
5.2690,46.1793
5.3232,46.0982
5.4043,46.0440
5.5000,46.0250
6.0000,46.0250
6.0957,46.0440
6.1768,46.0982
6.2310,46.1793
6.2500,46.2750
6.2500,47.2250
6.2310,47.3207
6.1768,47.4018
6.0957,47.4560
6.0000,47.4750
5.5000,47.4750
5.4043,47.4560
5.3232,47.4018
5.2690,47.3207
5.2500,47.2250
Z" /> 
<path style="fill:#000000; fill-opacity:1.0000; stroke:none;fill-rule:evenodd;"
d="M 58.0825,57.7625
58.1015,57.6668
58.1557,57.5857
58.2368,57.5315
58.3325,57.5125
58.8325,57.5125
58.9282,57.5315
59.0093,57.5857
59.0635,57.6668
59.0825,57.7625
59.0825,58.7125
59.0635,58.8082
59.0093,58.8893
58.9282,58.9435
58.8325,58.9625
58.3325,58.9625
58.2368,58.9435
58.1557,58.8893
58.1015,58.8082
58.0825,58.7125
Z" /> 
<path style="fill:#000000; fill-opacity:1.0000; stroke:none;fill-rule:evenodd;"
d="M 59.9825,57.7625
60.0015,57.6668
60.0557,57.5857
60.1368,57.5315
60.2325,57.5125
60.7325,57.5125
60.8282,57.5315
60.9093,57.5857
60.9635,57.6668
60.9825,57.7625
60.9825,58.7125
60.9635,58.8082
60.9093,58.8893
60.8282,58.9435
60.7325,58.9625
60.2325,58.9625
60.1368,58.9435
60.0557,58.8893
60.0015,58.8082
59.9825,58.7125
Z" /> 
<path style="fill:#000000; fill-opacity:1.0000; stroke:none;fill-rule:evenodd;"
d="M 48.8625,60.7750
48.8434,60.7712
48.8271,60.7604
48.8163,60.7441
48.8125,60.7250
48.8125,59.9500
48.8163,59.9309
48.8271,59.9146
48.8434,59.9038
48.8625,59.9000
48.9625,59.9000
48.9816,59.9038
48.9979,59.9146
49.0087,59.9309
49.0125,59.9500
49.0125,60.7250
49.0087,60.7441
48.9979,60.7604
48.9816,60.7712
48.9625,60.7750
Z" /> 
<path style="fill:#000000; fill-opacity:1.0000; stroke:none;fill-rule:evenodd;"
d="M 49.2625,60.7750
49.2434,60.7712
49.2271,60.7604
49.2163,60.7441
49.2125,60.7250
49.2125,59.9500
49.2163,59.9309
49.2271,59.9146
49.2434,59.9038
49.2625,59.9000
49.3625,59.9000
49.3816,59.9038
49.3979,59.9146
49.4087,59.9309
49.4125,59.9500
49.4125,60.7250
49.4087,60.7441
49.3979,60.7604
49.3816,60.7712
49.3625,60.7750
Z" /> 
<path style="fill:#000000; fill-opacity:1.0000; stroke:none;fill-rule:evenodd;"
d="M 49.6625,60.7750
49.6434,60.7712
49.6271,60.7604
49.6163,60.7441
49.6125,60.7250
49.6125,59.9500
49.6163,59.9309
49.6271,59.9146
49.6434,59.9038
49.6625,59.9000
49.7625,59.9000
49.7816,59.9038
49.7979,59.9146
49.8087,59.9309
49.8125,59.9500
49.8125,60.7250
49.8087,60.7441
49.7979,60.7604
49.7816,60.7712
49.7625,60.7750
Z" /> 
<path style="fill:#000000; fill-opacity:1.0000; stroke:none;fill-rule:evenodd;"
d="M 50.0625,60.7750
50.0434,60.7712
50.0271,60.7604
50.0163,60.7441
50.0125,60.7250
50.0125,59.9500
50.0163,59.9309
50.0271,59.9146
50.0434,59.9038
50.0625,59.9000
50.1625,59.9000
50.1816,59.9038
50.1979,59.9146
50.2087,59.9309
50.2125,59.9500
50.2125,60.7250
50.2087,60.7441
50.1979,60.7604
50.1816,60.7712
50.1625,60.7750
Z" /> 
<path style="fill:#000000; fill-opacity:1.0000; stroke:none;fill-rule:evenodd;"
d="M 50.4625,60.7750
50.4434,60.7712
50.4271,60.7604
50.4163,60.7441
50.4125,60.7250
50.4125,59.9500
50.4163,59.9309
50.4271,59.9146
50.4434,59.9038
50.4625,59.9000
50.5625,59.9000
50.5816,59.9038
50.5979,59.9146
50.6087,59.9309
50.6125,59.9500
50.6125,60.7250
50.6087,60.7441
50.5979,60.7604
50.5816,60.7712
50.5625,60.7750
Z" /> 
<path style="fill:#000000; fill-opacity:1.0000; stroke:none;fill-rule:evenodd;"
d="M 50.8625,60.7750
50.8434,60.7712
50.8271,60.7604
50.8163,60.7441
50.8125,60.7250
50.8125,59.9500
50.8163,59.9309
50.8271,59.9146
50.8434,59.9038
50.8625,59.9000
50.9625,59.9000
50.9816,59.9038
50.9979,59.9146
51.0087,59.9309
51.0125,59.9500
51.0125,60.7250
51.0087,60.7441
50.9979,60.7604
50.9816,60.7712
50.9625,60.7750
Z" /> 
<path style="fill:#000000; fill-opacity:1.0000; stroke:none;fill-rule:evenodd;"
d="M 51.2625,60.7750
51.2434,60.7712
51.2271,60.7604
51.2163,60.7441
51.2125,60.7250
51.2125,59.9500
51.2163,59.9309
51.2271,59.9146
51.2434,59.9038
51.2625,59.9000
51.3625,59.9000
51.3816,59.9038
51.3979,59.9146
51.4087,59.9309
51.4125,59.9500
51.4125,60.7250
51.4087,60.7441
51.3979,60.7604
51.3816,60.7712
51.3625,60.7750
Z" /> 
<path style="fill:#000000; fill-opacity:1.0000; stroke:none;fill-rule:evenodd;"
d="M 51.6625,60.7750
51.6434,60.7712
51.6271,60.7604
51.6163,60.7441
51.6125,60.7250
51.6125,59.9500
51.6163,59.9309
51.6271,59.9146
51.6434,59.9038
51.6625,59.9000
51.7625,59.9000
51.7816,59.9038
51.7979,59.9146
51.8087,59.9309
51.8125,59.9500
51.8125,60.7250
51.8087,60.7441
51.7979,60.7604
51.7816,60.7712
51.7625,60.7750
Z" /> 
<path style="fill:#000000; fill-opacity:1.0000; stroke:none;fill-rule:evenodd;"
d="M 52.0625,60.7750
52.0434,60.7712
52.0271,60.7604
52.0163,60.7441
52.0125,60.7250
52.0125,59.9500
52.0163,59.9309
52.0271,59.9146
52.0434,59.9038
52.0625,59.9000
52.1625,59.9000
52.1816,59.9038
52.1979,59.9146
52.2087,59.9309
52.2125,59.9500
52.2125,60.7250
52.2087,60.7441
52.1979,60.7604
52.1816,60.7712
52.1625,60.7750
Z" /> 
<path style="fill:#000000; fill-opacity:1.0000; stroke:none;fill-rule:evenodd;"
d="M 52.4625,60.7750
52.4434,60.7712
52.4271,60.7604
52.4163,60.7441
52.4125,60.7250
52.4125,59.9500
52.4163,59.9309
52.4271,59.9146
52.4434,59.9038
52.4625,59.9000
52.5625,59.9000
52.5816,59.9038
52.5979,59.9146
52.6087,59.9309
52.6125,59.9500
52.6125,60.7250
52.6087,60.7441
52.5979,60.7604
52.5816,60.7712
52.5625,60.7750
Z" /> 
<path style="fill:#000000; fill-opacity:1.0000; stroke:none;fill-rule:evenodd;"
d="M 52.8625,60.7750
52.8434,60.7712
52.8271,60.7604
52.8163,60.7441
52.8125,60.7250
52.8125,59.9500
52.8163,59.9309
52.8271,59.9146
52.8434,59.9038
52.8625,59.9000
52.9625,59.9000
52.9816,59.9038
52.9979,59.9146
53.0087,59.9309
53.0125,59.9500
53.0125,60.7250
53.0087,60.7441
52.9979,60.7604
52.9816,60.7712
52.9625,60.7750
Z" /> 
<path style="fill:#000000; fill-opacity:1.0000; stroke:none;fill-rule:evenodd;"
d="M 53.2625,60.7750
53.2434,60.7712
53.2271,60.7604
53.2163,60.7441
53.2125,60.7250
53.2125,59.9500
53.2163,59.9309
53.2271,59.9146
53.2434,59.9038
53.2625,59.9000
53.3625,59.9000
53.3816,59.9038
53.3979,59.9146
53.4087,59.9309
53.4125,59.9500
53.4125,60.7250
53.4087,60.7441
53.3979,60.7604
53.3816,60.7712
53.3625,60.7750
Z" /> 
<path style="fill:#000000; fill-opacity:1.0000; stroke:none;fill-rule:evenodd;"
d="M 53.6625,60.7750
53.6434,60.7712
53.6271,60.7604
53.6163,60.7441
53.6125,60.7250
53.6125,59.9500
53.6163,59.9309
53.6271,59.9146
53.6434,59.9038
53.6625,59.9000
53.7625,59.9000
53.7816,59.9038
53.7979,59.9146
53.8087,59.9309
53.8125,59.9500
53.8125,60.7250
53.8087,60.7441
53.7979,60.7604
53.7816,60.7712
53.7625,60.7750
Z" /> 
<path style="fill:#000000; fill-opacity:1.0000; stroke:none;fill-rule:evenodd;"
d="M 54.0625,60.7750
54.0434,60.7712
54.0271,60.7604
54.0163,60.7441
54.0125,60.7250
54.0125,59.9500
54.0163,59.9309
54.0271,59.9146
54.0434,59.9038
54.0625,59.9000
54.1625,59.9000
54.1816,59.9038
54.1979,59.9146
54.2087,59.9309
54.2125,59.9500
54.2125,60.7250
54.2087,60.7441
54.1979,60.7604
54.1816,60.7712
54.1625,60.7750
Z" /> 
<path style="fill:#000000; fill-opacity:1.0000; stroke:none;fill-rule:evenodd;"
d="M 54.5625,59.6000
54.5434,59.5962
54.5271,59.5854
54.5163,59.5691
54.5125,59.5500
54.5125,59.4500
54.5163,59.4309
54.5271,59.4146
54.5434,59.4038
54.5625,59.4000
55.3375,59.4000
55.3566,59.4038
55.3729,59.4146
55.3837,59.4309
55.3875,59.4500
55.3875,59.5500
55.3837,59.5691
55.3729,59.5854
55.3566,59.5962
55.3375,59.6000
Z" /> 
<path style="fill:#000000; fill-opacity:1.0000; stroke:none;fill-rule:evenodd;"
d="M 54.5625,59.2000
54.5434,59.1962
54.5271,59.1854
54.5163,59.1691
54.5125,59.1500
54.5125,59.0500
54.5163,59.0309
54.5271,59.0146
54.5434,59.0038
54.5625,59.0000
55.3375,59.0000
55.3566,59.0038
55.3729,59.0146
55.3837,59.0309
55.3875,59.0500
55.3875,59.1500
55.3837,59.1691
55.3729,59.1854
55.3566,59.1962
55.3375,59.2000
Z" /> 
<path style="fill:#000000; fill-opacity:1.0000; stroke:none;fill-rule:evenodd;"
d="M 54.5625,58.8000
54.5434,58.7962
54.5271,58.7854
54.5163,58.7691
54.5125,58.7500
54.5125,58.6500
54.5163,58.6309
54.5271,58.6146
54.5434,58.6038
54.5625,58.6000
55.3375,58.6000
55.3566,58.6038
55.3729,58.6146
55.3837,58.6309
55.3875,58.6500
55.3875,58.7500
55.3837,58.7691
55.3729,58.7854
55.3566,58.7962
55.3375,58.8000
Z" /> 
<path style="fill:#000000; fill-opacity:1.0000; stroke:none;fill-rule:evenodd;"
d="M 54.5625,58.4000
54.5434,58.3962
54.5271,58.3854
54.5163,58.3691
54.5125,58.3500
54.5125,58.2500
54.5163,58.2309
54.5271,58.2146
54.5434,58.2038
54.5625,58.2000
55.3375,58.2000
55.3566,58.2038
55.3729,58.2146
55.3837,58.2309
55.3875,58.2500
55.3875,58.3500
55.3837,58.3691
55.3729,58.3854
55.3566,58.3962
55.3375,58.4000
Z" /> 
<path style="fill:#000000; fill-opacity:1.0000; stroke:none;fill-rule:evenodd;"
d="M 54.5625,58.0000
54.5434,57.9962
54.5271,57.9854
54.5163,57.9691
54.5125,57.9500
54.5125,57.8500
54.5163,57.8309
54.5271,57.8146
54.5434,57.8038
54.5625,57.8000
55.3375,57.8000
55.3566,57.8038
55.3729,57.8146
55.3837,57.8309
55.3875,57.8500
55.3875,57.9500
55.3837,57.9691
55.3729,57.9854
55.3566,57.9962
55.3375,58.0000
Z" /> 
<path style="fill:#000000; fill-opacity:1.0000; stroke:none;fill-rule:evenodd;"
d="M 54.5625,57.6000
54.5434,57.5962
54.5271,57.5854
54.5163,57.5691
54.5125,57.5500
54.5125,57.4500
54.5163,57.4309
54.5271,57.4146
54.5434,57.4038
54.5625,57.4000
55.3375,57.4000
55.3566,57.4038
55.3729,57.4146
55.3837,57.4309
55.3875,57.4500
55.3875,57.5500
55.3837,57.5691
55.3729,57.5854
55.3566,57.5962
55.3375,57.6000
Z" /> 
<path style="fill:#000000; fill-opacity:1.0000; stroke:none;fill-rule:evenodd;"
d="M 54.5625,57.2000
54.5434,57.1962
54.5271,57.1854
54.5163,57.1691
54.5125,57.1500
54.5125,57.0500
54.5163,57.0309
54.5271,57.0146
54.5434,57.0038
54.5625,57.0000
55.3375,57.0000
55.3566,57.0038
55.3729,57.0146
55.3837,57.0309
55.3875,57.0500
55.3875,57.1500
55.3837,57.1691
55.3729,57.1854
55.3566,57.1962
55.3375,57.2000
Z" /> 
<path style="fill:#000000; fill-opacity:1.0000; stroke:none;fill-rule:evenodd;"
d="M 54.5625,56.8000
54.5434,56.7962
54.5271,56.7854
54.5163,56.7691
54.5125,56.7500
54.5125,56.6500
54.5163,56.6309
54.5271,56.6146
54.5434,56.6038
54.5625,56.6000
55.3375,56.6000
55.3566,56.6038
55.3729,56.6146
55.3837,56.6309
55.3875,56.6500
55.3875,56.7500
55.3837,56.7691
55.3729,56.7854
55.3566,56.7962
55.3375,56.8000
Z" /> 
<path style="fill:#000000; fill-opacity:1.0000; stroke:none;fill-rule:evenodd;"
d="M 54.5625,56.4000
54.5434,56.3962
54.5271,56.3854
54.5163,56.3691
54.5125,56.3500
54.5125,56.2500
54.5163,56.2309
54.5271,56.2146
54.5434,56.2038
54.5625,56.2000
55.3375,56.2000
55.3566,56.2038
55.3729,56.2146
55.3837,56.2309
55.3875,56.2500
55.3875,56.3500
55.3837,56.3691
55.3729,56.3854
55.3566,56.3962
55.3375,56.4000
Z" /> 
<path style="fill:#000000; fill-opacity:1.0000; stroke:none;fill-rule:evenodd;"
d="M 54.5625,56.0000
54.5434,55.9962
54.5271,55.9854
54.5163,55.9691
54.5125,55.9500
54.5125,55.8500
54.5163,55.8309
54.5271,55.8146
54.5434,55.8038
54.5625,55.8000
55.3375,55.8000
55.3566,55.8038
55.3729,55.8146
55.3837,55.8309
55.3875,55.8500
55.3875,55.9500
55.3837,55.9691
55.3729,55.9854
55.3566,55.9962
55.3375,56.0000
Z" /> 
<path style="fill:#000000; fill-opacity:1.0000; stroke:none;fill-rule:evenodd;"
d="M 54.5625,55.6000
54.5434,55.5962
54.5271,55.5854
54.5163,55.5691
54.5125,55.5500
54.5125,55.4500
54.5163,55.4309
54.5271,55.4146
54.5434,55.4038
54.5625,55.4000
55.3375,55.4000
55.3566,55.4038
55.3729,55.4146
55.3837,55.4309
55.3875,55.4500
55.3875,55.5500
55.3837,55.5691
55.3729,55.5854
55.3566,55.5962
55.3375,55.6000
Z" /> 
<path style="fill:#000000; fill-opacity:1.0000; stroke:none;fill-rule:evenodd;"
d="M 54.5625,55.2000
54.5434,55.1962
54.5271,55.1854
54.5163,55.1691
54.5125,55.1500
54.5125,55.0500
54.5163,55.0309
54.5271,55.0146
54.5434,55.0038
54.5625,55.0000
55.3375,55.0000
55.3566,55.0038
55.3729,55.0146
55.3837,55.0309
55.3875,55.0500
55.3875,55.1500
55.3837,55.1691
55.3729,55.1854
55.3566,55.1962
55.3375,55.2000
Z" /> 
<path style="fill:#000000; fill-opacity:1.0000; stroke:none;fill-rule:evenodd;"
d="M 54.5625,54.8000
54.5434,54.7962
54.5271,54.7854
54.5163,54.7691
54.5125,54.7500
54.5125,54.6500
54.5163,54.6309
54.5271,54.6146
54.5434,54.6038
54.5625,54.6000
55.3375,54.6000
55.3566,54.6038
55.3729,54.6146
55.3837,54.6309
55.3875,54.6500
55.3875,54.7500
55.3837,54.7691
55.3729,54.7854
55.3566,54.7962
55.3375,54.8000
Z" /> 
<path style="fill:#000000; fill-opacity:1.0000; stroke:none;fill-rule:evenodd;"
d="M 54.5625,54.4000
54.5434,54.3962
54.5271,54.3854
54.5163,54.3691
54.5125,54.3500
54.5125,54.2500
54.5163,54.2309
54.5271,54.2146
54.5434,54.2038
54.5625,54.2000
55.3375,54.2000
55.3566,54.2038
55.3729,54.2146
55.3837,54.2309
55.3875,54.2500
55.3875,54.3500
55.3837,54.3691
55.3729,54.3854
55.3566,54.3962
55.3375,54.4000
Z" /> 
<path style="fill:#000000; fill-opacity:1.0000; stroke:none;fill-rule:evenodd;"
d="M 54.0625,53.9000
54.0434,53.8962
54.0271,53.8854
54.0163,53.8691
54.0125,53.8500
54.0125,53.0750
54.0163,53.0559
54.0271,53.0396
54.0434,53.0288
54.0625,53.0250
54.1625,53.0250
54.1816,53.0288
54.1979,53.0396
54.2087,53.0559
54.2125,53.0750
54.2125,53.8500
54.2087,53.8691
54.1979,53.8854
54.1816,53.8962
54.1625,53.9000
Z" /> 
<path style="fill:#000000; fill-opacity:1.0000; stroke:none;fill-rule:evenodd;"
d="M 53.6625,53.9000
53.6434,53.8962
53.6271,53.8854
53.6163,53.8691
53.6125,53.8500
53.6125,53.0750
53.6163,53.0559
53.6271,53.0396
53.6434,53.0288
53.6625,53.0250
53.7625,53.0250
53.7816,53.0288
53.7979,53.0396
53.8087,53.0559
53.8125,53.0750
53.8125,53.8500
53.8087,53.8691
53.7979,53.8854
53.7816,53.8962
53.7625,53.9000
Z" /> 
<path style="fill:#000000; fill-opacity:1.0000; stroke:none;fill-rule:evenodd;"
d="M 53.2625,53.9000
53.2434,53.8962
53.2271,53.8854
53.2163,53.8691
53.2125,53.8500
53.2125,53.0750
53.2163,53.0559
53.2271,53.0396
53.2434,53.0288
53.2625,53.0250
53.3625,53.0250
53.3816,53.0288
53.3979,53.0396
53.4087,53.0559
53.4125,53.0750
53.4125,53.8500
53.4087,53.8691
53.3979,53.8854
53.3816,53.8962
53.3625,53.9000
Z" /> 
<path style="fill:#000000; fill-opacity:1.0000; stroke:none;fill-rule:evenodd;"
d="M 52.8625,53.9000
52.8434,53.8962
52.8271,53.8854
52.8163,53.8691
52.8125,53.8500
52.8125,53.0750
52.8163,53.0559
52.8271,53.0396
52.8434,53.0288
52.8625,53.0250
52.9625,53.0250
52.9816,53.0288
52.9979,53.0396
53.0087,53.0559
53.0125,53.0750
53.0125,53.8500
53.0087,53.8691
52.9979,53.8854
52.9816,53.8962
52.9625,53.9000
Z" /> 
<path style="fill:#000000; fill-opacity:1.0000; stroke:none;fill-rule:evenodd;"
d="M 52.4625,53.9000
52.4434,53.8962
52.4271,53.8854
52.4163,53.8691
52.4125,53.8500
52.4125,53.0750
52.4163,53.0559
52.4271,53.0396
52.4434,53.0288
52.4625,53.0250
52.5625,53.0250
52.5816,53.0288
52.5979,53.0396
52.6087,53.0559
52.6125,53.0750
52.6125,53.8500
52.6087,53.8691
52.5979,53.8854
52.5816,53.8962
52.5625,53.9000
Z" /> 
<path style="fill:#000000; fill-opacity:1.0000; stroke:none;fill-rule:evenodd;"
d="M 52.0625,53.9000
52.0434,53.8962
52.0271,53.8854
52.0163,53.8691
52.0125,53.8500
52.0125,53.0750
52.0163,53.0559
52.0271,53.0396
52.0434,53.0288
52.0625,53.0250
52.1625,53.0250
52.1816,53.0288
52.1979,53.0396
52.2087,53.0559
52.2125,53.0750
52.2125,53.8500
52.2087,53.8691
52.1979,53.8854
52.1816,53.8962
52.1625,53.9000
Z" /> 
<path style="fill:#000000; fill-opacity:1.0000; stroke:none;fill-rule:evenodd;"
d="M 51.6625,53.9000
51.6434,53.8962
51.6271,53.8854
51.6163,53.8691
51.6125,53.8500
51.6125,53.0750
51.6163,53.0559
51.6271,53.0396
51.6434,53.0288
51.6625,53.0250
51.7625,53.0250
51.7816,53.0288
51.7979,53.0396
51.8087,53.0559
51.8125,53.0750
51.8125,53.8500
51.8087,53.8691
51.7979,53.8854
51.7816,53.8962
51.7625,53.9000
Z" /> 
<path style="fill:#000000; fill-opacity:1.0000; stroke:none;fill-rule:evenodd;"
d="M 51.2625,53.9000
51.2434,53.8962
51.2271,53.8854
51.2163,53.8691
51.2125,53.8500
51.2125,53.0750
51.2163,53.0559
51.2271,53.0396
51.2434,53.0288
51.2625,53.0250
51.3625,53.0250
51.3816,53.0288
51.3979,53.0396
51.4087,53.0559
51.4125,53.0750
51.4125,53.8500
51.4087,53.8691
51.3979,53.8854
51.3816,53.8962
51.3625,53.9000
Z" /> 
<path style="fill:#000000; fill-opacity:1.0000; stroke:none;fill-rule:evenodd;"
d="M 50.8625,53.9000
50.8434,53.8962
50.8271,53.8854
50.8163,53.8691
50.8125,53.8500
50.8125,53.0750
50.8163,53.0559
50.8271,53.0396
50.8434,53.0288
50.8625,53.0250
50.9625,53.0250
50.9816,53.0288
50.9979,53.0396
51.0087,53.0559
51.0125,53.0750
51.0125,53.8500
51.0087,53.8691
50.9979,53.8854
50.9816,53.8962
50.9625,53.9000
Z" /> 
<path style="fill:#000000; fill-opacity:1.0000; stroke:none;fill-rule:evenodd;"
d="M 50.4625,53.9000
50.4434,53.8962
50.4271,53.8854
50.4163,53.8691
50.4125,53.8500
50.4125,53.0750
50.4163,53.0559
50.4271,53.0396
50.4434,53.0288
50.4625,53.0250
50.5625,53.0250
50.5816,53.0288
50.5979,53.0396
50.6087,53.0559
50.6125,53.0750
50.6125,53.8500
50.6087,53.8691
50.5979,53.8854
50.5816,53.8962
50.5625,53.9000
Z" /> 
<path style="fill:#000000; fill-opacity:1.0000; stroke:none;fill-rule:evenodd;"
d="M 50.0625,53.9000
50.0434,53.8962
50.0271,53.8854
50.0163,53.8691
50.0125,53.8500
50.0125,53.0750
50.0163,53.0559
50.0271,53.0396
50.0434,53.0288
50.0625,53.0250
50.1625,53.0250
50.1816,53.0288
50.1979,53.0396
50.2087,53.0559
50.2125,53.0750
50.2125,53.8500
50.2087,53.8691
50.1979,53.8854
50.1816,53.8962
50.1625,53.9000
Z" /> 
<path style="fill:#000000; fill-opacity:1.0000; stroke:none;fill-rule:evenodd;"
d="M 49.6625,53.9000
49.6434,53.8962
49.6271,53.8854
49.6163,53.8691
49.6125,53.8500
49.6125,53.0750
49.6163,53.0559
49.6271,53.0396
49.6434,53.0288
49.6625,53.0250
49.7625,53.0250
49.7816,53.0288
49.7979,53.0396
49.8087,53.0559
49.8125,53.0750
49.8125,53.8500
49.8087,53.8691
49.7979,53.8854
49.7816,53.8962
49.7625,53.9000
Z" /> 
<path style="fill:#000000; fill-opacity:1.0000; stroke:none;fill-rule:evenodd;"
d="M 49.2625,53.9000
49.2434,53.8962
49.2271,53.8854
49.2163,53.8691
49.2125,53.8500
49.2125,53.0750
49.2163,53.0559
49.2271,53.0396
49.2434,53.0288
49.2625,53.0250
49.3625,53.0250
49.3816,53.0288
49.3979,53.0396
49.4087,53.0559
49.4125,53.0750
49.4125,53.8500
49.4087,53.8691
49.3979,53.8854
49.3816,53.8962
49.3625,53.9000
Z" /> 
<path style="fill:#000000; fill-opacity:1.0000; stroke:none;fill-rule:evenodd;"
d="M 48.8625,53.9000
48.8434,53.8962
48.8271,53.8854
48.8163,53.8691
48.8125,53.8500
48.8125,53.0750
48.8163,53.0559
48.8271,53.0396
48.8434,53.0288
48.8625,53.0250
48.9625,53.0250
48.9816,53.0288
48.9979,53.0396
49.0087,53.0559
49.0125,53.0750
49.0125,53.8500
49.0087,53.8691
48.9979,53.8854
48.9816,53.8962
48.9625,53.9000
Z" /> 
<path style="fill:#000000; fill-opacity:1.0000; stroke:none;fill-rule:evenodd;"
d="M 47.6875,54.4000
47.6684,54.3962
47.6521,54.3854
47.6413,54.3691
47.6375,54.3500
47.6375,54.2500
47.6413,54.2309
47.6521,54.2146
47.6684,54.2038
47.6875,54.2000
48.4625,54.2000
48.4816,54.2038
48.4979,54.2146
48.5087,54.2309
48.5125,54.2500
48.5125,54.3500
48.5087,54.3691
48.4979,54.3854
48.4816,54.3962
48.4625,54.4000
Z" /> 
<path style="fill:#000000; fill-opacity:1.0000; stroke:none;fill-rule:evenodd;"
d="M 47.6875,54.8000
47.6684,54.7962
47.6521,54.7854
47.6413,54.7691
47.6375,54.7500
47.6375,54.6500
47.6413,54.6309
47.6521,54.6146
47.6684,54.6038
47.6875,54.6000
48.4625,54.6000
48.4816,54.6038
48.4979,54.6146
48.5087,54.6309
48.5125,54.6500
48.5125,54.7500
48.5087,54.7691
48.4979,54.7854
48.4816,54.7962
48.4625,54.8000
Z" /> 
<path style="fill:#000000; fill-opacity:1.0000; stroke:none;fill-rule:evenodd;"
d="M 47.6875,55.2000
47.6684,55.1962
47.6521,55.1854
47.6413,55.1691
47.6375,55.1500
47.6375,55.0500
47.6413,55.0309
47.6521,55.0146
47.6684,55.0038
47.6875,55.0000
48.4625,55.0000
48.4816,55.0038
48.4979,55.0146
48.5087,55.0309
48.5125,55.0500
48.5125,55.1500
48.5087,55.1691
48.4979,55.1854
48.4816,55.1962
48.4625,55.2000
Z" /> 
<path style="fill:#000000; fill-opacity:1.0000; stroke:none;fill-rule:evenodd;"
d="M 47.6875,55.6000
47.6684,55.5962
47.6521,55.5854
47.6413,55.5691
47.6375,55.5500
47.6375,55.4500
47.6413,55.4309
47.6521,55.4146
47.6684,55.4038
47.6875,55.4000
48.4625,55.4000
48.4816,55.4038
48.4979,55.4146
48.5087,55.4309
48.5125,55.4500
48.5125,55.5500
48.5087,55.5691
48.4979,55.5854
48.4816,55.5962
48.4625,55.6000
Z" /> 
<path style="fill:#000000; fill-opacity:1.0000; stroke:none;fill-rule:evenodd;"
d="M 47.6875,56.0000
47.6684,55.9962
47.6521,55.9854
47.6413,55.9691
47.6375,55.9500
47.6375,55.8500
47.6413,55.8309
47.6521,55.8146
47.6684,55.8038
47.6875,55.8000
48.4625,55.8000
48.4816,55.8038
48.4979,55.8146
48.5087,55.8309
48.5125,55.8500
48.5125,55.9500
48.5087,55.9691
48.4979,55.9854
48.4816,55.9962
48.4625,56.0000
Z" /> 
<path style="fill:#000000; fill-opacity:1.0000; stroke:none;fill-rule:evenodd;"
d="M 47.6875,56.4000
47.6684,56.3962
47.6521,56.3854
47.6413,56.3691
47.6375,56.3500
47.6375,56.2500
47.6413,56.2309
47.6521,56.2146
47.6684,56.2038
47.6875,56.2000
48.4625,56.2000
48.4816,56.2038
48.4979,56.2146
48.5087,56.2309
48.5125,56.2500
48.5125,56.3500
48.5087,56.3691
48.4979,56.3854
48.4816,56.3962
48.4625,56.4000
Z" /> 
<path style="fill:#000000; fill-opacity:1.0000; stroke:none;fill-rule:evenodd;"
d="M 47.6875,56.8000
47.6684,56.7962
47.6521,56.7854
47.6413,56.7691
47.6375,56.7500
47.6375,56.6500
47.6413,56.6309
47.6521,56.6146
47.6684,56.6038
47.6875,56.6000
48.4625,56.6000
48.4816,56.6038
48.4979,56.6146
48.5087,56.6309
48.5125,56.6500
48.5125,56.7500
48.5087,56.7691
48.4979,56.7854
48.4816,56.7962
48.4625,56.8000
Z" /> 
<path style="fill:#000000; fill-opacity:1.0000; stroke:none;fill-rule:evenodd;"
d="M 47.6875,57.2000
47.6684,57.1962
47.6521,57.1854
47.6413,57.1691
47.6375,57.1500
47.6375,57.0500
47.6413,57.0309
47.6521,57.0146
47.6684,57.0038
47.6875,57.0000
48.4625,57.0000
48.4816,57.0038
48.4979,57.0146
48.5087,57.0309
48.5125,57.0500
48.5125,57.1500
48.5087,57.1691
48.4979,57.1854
48.4816,57.1962
48.4625,57.2000
Z" /> 
<path style="fill:#000000; fill-opacity:1.0000; stroke:none;fill-rule:evenodd;"
d="M 47.6875,57.6000
47.6684,57.5962
47.6521,57.5854
47.6413,57.5691
47.6375,57.5500
47.6375,57.4500
47.6413,57.4309
47.6521,57.4146
47.6684,57.4038
47.6875,57.4000
48.4625,57.4000
48.4816,57.4038
48.4979,57.4146
48.5087,57.4309
48.5125,57.4500
48.5125,57.5500
48.5087,57.5691
48.4979,57.5854
48.4816,57.5962
48.4625,57.6000
Z" /> 
<path style="fill:#000000; fill-opacity:1.0000; stroke:none;fill-rule:evenodd;"
d="M 47.6875,58.0000
47.6684,57.9962
47.6521,57.9854
47.6413,57.9691
47.6375,57.9500
47.6375,57.8500
47.6413,57.8309
47.6521,57.8146
47.6684,57.8038
47.6875,57.8000
48.4625,57.8000
48.4816,57.8038
48.4979,57.8146
48.5087,57.8309
48.5125,57.8500
48.5125,57.9500
48.5087,57.9691
48.4979,57.9854
48.4816,57.9962
48.4625,58.0000
Z" /> 
<path style="fill:#000000; fill-opacity:1.0000; stroke:none;fill-rule:evenodd;"
d="M 47.6875,58.4000
47.6684,58.3962
47.6521,58.3854
47.6413,58.3691
47.6375,58.3500
47.6375,58.2500
47.6413,58.2309
47.6521,58.2146
47.6684,58.2038
47.6875,58.2000
48.4625,58.2000
48.4816,58.2038
48.4979,58.2146
48.5087,58.2309
48.5125,58.2500
48.5125,58.3500
48.5087,58.3691
48.4979,58.3854
48.4816,58.3962
48.4625,58.4000
Z" /> 
<path style="fill:#000000; fill-opacity:1.0000; stroke:none;fill-rule:evenodd;"
d="M 47.6875,58.8000
47.6684,58.7962
47.6521,58.7854
47.6413,58.7691
47.6375,58.7500
47.6375,58.6500
47.6413,58.6309
47.6521,58.6146
47.6684,58.6038
47.6875,58.6000
48.4625,58.6000
48.4816,58.6038
48.4979,58.6146
48.5087,58.6309
48.5125,58.6500
48.5125,58.7500
48.5087,58.7691
48.4979,58.7854
48.4816,58.7962
48.4625,58.8000
Z" /> 
<path style="fill:#000000; fill-opacity:1.0000; stroke:none;fill-rule:evenodd;"
d="M 47.6875,59.2000
47.6684,59.1962
47.6521,59.1854
47.6413,59.1691
47.6375,59.1500
47.6375,59.0500
47.6413,59.0309
47.6521,59.0146
47.6684,59.0038
47.6875,59.0000
48.4625,59.0000
48.4816,59.0038
48.4979,59.0146
48.5087,59.0309
48.5125,59.0500
48.5125,59.1500
48.5087,59.1691
48.4979,59.1854
48.4816,59.1962
48.4625,59.2000
Z" /> 
<path style="fill:#000000; fill-opacity:1.0000; stroke:none;fill-rule:evenodd;"
d="M 47.6875,59.6000
47.6684,59.5962
47.6521,59.5854
47.6413,59.5691
47.6375,59.5500
47.6375,59.4500
47.6413,59.4309
47.6521,59.4146
47.6684,59.4038
47.6875,59.4000
48.4625,59.4000
48.4816,59.4038
48.4979,59.4146
48.5087,59.4309
48.5125,59.4500
48.5125,59.5500
48.5087,59.5691
48.4979,59.5854
48.4816,59.5962
48.4625,59.6000
Z" /> 
<path style="fill:#000000; fill-opacity:1.0000; stroke:none;fill-rule:evenodd;"
d="M 53.1125,58.5000
49.9125,58.5000
49.9125,55.3000
53.1125,55.3000
Z" /> 
<path style="fill:#000000; fill-opacity:1.0000; stroke:none;fill-rule:evenodd;"
d="M 39.8875,62.3250
39.9065,62.2293
39.9607,62.1482
40.0418,62.0940
40.1375,62.0750
40.6375,62.0750
40.7332,62.0940
40.8143,62.1482
40.8685,62.2293
40.8875,62.3250
40.8875,63.2750
40.8685,63.3707
40.8143,63.4518
40.7332,63.5060
40.6375,63.5250
40.1375,63.5250
40.0418,63.5060
39.9607,63.4518
39.9065,63.3707
39.8875,63.2750
Z" /> 
<path style="fill:#000000; fill-opacity:1.0000; stroke:none;fill-rule:evenodd;"
d="M 41.7875,62.3250
41.8065,62.2293
41.8607,62.1482
41.9418,62.0940
42.0375,62.0750
42.5375,62.0750
42.6332,62.0940
42.7143,62.1482
42.7685,62.2293
42.7875,62.3250
42.7875,63.2750
42.7685,63.3707
42.7143,63.4518
42.6332,63.5060
42.5375,63.5250
42.0375,63.5250
41.9418,63.5060
41.8607,63.4518
41.8065,63.3707
41.7875,63.2750
Z" /> 
<path style="fill:#000000; fill-opacity:1.0000; stroke:none;fill-rule:evenodd;"
d="M 25.7250,40.0500
25.7440,39.9543
25.7982,39.8732
25.8793,39.8190
25.9750,39.8000
26.5000,39.8000
26.5957,39.8190
26.6768,39.8732
26.7310,39.9543
26.7500,40.0500
26.7500,40.9500
26.7310,41.0457
26.6768,41.1268
26.5957,41.1810
26.5000,41.2000
25.9750,41.2000
25.8793,41.1810
25.7982,41.1268
25.7440,41.0457
25.7250,40.9500
Z" /> 
<path style="fill:#000000; fill-opacity:1.0000; stroke:none;fill-rule:evenodd;"
d="M 27.5500,40.0500
27.5690,39.9543
27.6232,39.8732
27.7043,39.8190
27.8000,39.8000
28.3250,39.8000
28.4207,39.8190
28.5018,39.8732
28.5560,39.9543
28.5750,40.0500
28.5750,40.9500
28.5560,41.0457
28.5018,41.1268
28.4207,41.1810
28.3250,41.2000
27.8000,41.2000
27.7043,41.1810
27.6232,41.1268
27.5690,41.0457
27.5500,40.9500
Z" /> 
<path style="fill:#000000; fill-opacity:1.0000; stroke:none;fill-rule:evenodd;"
d="M 35.7500,54.0325
35.7624,53.9703
35.7976,53.9176
35.8503,53.8824
35.9125,53.8700
37.2125,53.8700
37.2747,53.8824
37.3274,53.9176
37.3626,53.9703
37.3750,54.0325
37.3750,54.3575
37.3626,54.4197
37.3274,54.4724
37.2747,54.5076
37.2125,54.5200
35.9125,54.5200
35.8503,54.5076
35.7976,54.4724
35.7624,54.4197
35.7500,54.3575
Z" /> 
<path style="fill:#000000; fill-opacity:1.0000; stroke:none;fill-rule:evenodd;"
d="M 35.7500,55.3025
35.7624,55.2403
35.7976,55.1876
35.8503,55.1524
35.9125,55.1400
37.2125,55.1400
37.2747,55.1524
37.3274,55.1876
37.3626,55.2403
37.3750,55.3025
37.3750,55.6275
37.3626,55.6897
37.3274,55.7424
37.2747,55.7776
37.2125,55.7900
35.9125,55.7900
35.8503,55.7776
35.7976,55.7424
35.7624,55.6897
35.7500,55.6275
Z" /> 
<path style="fill:#000000; fill-opacity:1.0000; stroke:none;fill-rule:evenodd;"
d="M 35.7500,56.5725
35.7624,56.5103
35.7976,56.4576
35.8503,56.4224
35.9125,56.4100
37.2125,56.4100
37.2747,56.4224
37.3274,56.4576
37.3626,56.5103
37.3750,56.5725
37.3750,56.8975
37.3626,56.9597
37.3274,57.0124
37.2747,57.0476
37.2125,57.0600
35.9125,57.0600
35.8503,57.0476
35.7976,57.0124
35.7624,56.9597
35.7500,56.8975
Z" /> 
<path style="fill:#000000; fill-opacity:1.0000; stroke:none;fill-rule:evenodd;"
d="M 35.7500,57.8425
35.7624,57.7803
35.7976,57.7276
35.8503,57.6924
35.9125,57.6800
37.2125,57.6800
37.2747,57.6924
37.3274,57.7276
37.3626,57.7803
37.3750,57.8425
37.3750,58.1675
37.3626,58.2297
37.3274,58.2824
37.2747,58.3176
37.2125,58.3300
35.9125,58.3300
35.8503,58.3176
35.7976,58.2824
35.7624,58.2297
35.7500,58.1675
Z" /> 
<path style="fill:#000000; fill-opacity:1.0000; stroke:none;fill-rule:evenodd;"
d="M 42.9250,57.8425
42.9374,57.7803
42.9726,57.7276
43.0253,57.6924
43.0875,57.6800
44.3875,57.6800
44.4497,57.6924
44.5024,57.7276
44.5376,57.7803
44.5500,57.8425
44.5500,58.1675
44.5376,58.2297
44.5024,58.2824
44.4497,58.3176
44.3875,58.3300
43.0875,58.3300
43.0253,58.3176
42.9726,58.2824
42.9374,58.2297
42.9250,58.1675
Z" /> 
<path style="fill:#000000; fill-opacity:1.0000; stroke:none;fill-rule:evenodd;"
d="M 42.9250,56.5725
42.9374,56.5103
42.9726,56.4576
43.0253,56.4224
43.0875,56.4100
44.3875,56.4100
44.4497,56.4224
44.5024,56.4576
44.5376,56.5103
44.5500,56.5725
44.5500,56.8975
44.5376,56.9597
44.5024,57.0124
44.4497,57.0476
44.3875,57.0600
43.0875,57.0600
43.0253,57.0476
42.9726,57.0124
42.9374,56.9597
42.9250,56.8975
Z" /> 
<path style="fill:#000000; fill-opacity:1.0000; stroke:none;fill-rule:evenodd;"
d="M 42.9250,55.3025
42.9374,55.2403
42.9726,55.1876
43.0253,55.1524
43.0875,55.1400
44.3875,55.1400
44.4497,55.1524
44.5024,55.1876
44.5376,55.2403
44.5500,55.3025
44.5500,55.6275
44.5376,55.6897
44.5024,55.7424
44.4497,55.7776
44.3875,55.7900
43.0875,55.7900
43.0253,55.7776
42.9726,55.7424
42.9374,55.6897
42.9250,55.6275
Z" /> 
<path style="fill:#000000; fill-opacity:1.0000; stroke:none;fill-rule:evenodd;"
d="M 42.9250,54.0325
42.9374,53.9703
42.9726,53.9176
43.0253,53.8824
43.0875,53.8700
44.3875,53.8700
44.4497,53.8824
44.5024,53.9176
44.5376,53.9703
44.5500,54.0325
44.5500,54.3575
44.5376,54.4197
44.5024,54.4724
44.4497,54.5076
44.3875,54.5200
43.0875,54.5200
43.0253,54.5076
42.9726,54.4724
42.9374,54.4197
42.9250,54.3575
Z" /> 
<path style="fill:#000000; fill-opacity:1.0000; stroke:none;fill-rule:evenodd;"
d="M 38.0000,26.2250
38.0190,26.1293
38.0732,26.0482
38.1543,25.9940
38.2500,25.9750
38.7500,25.9750
38.8457,25.9940
38.9268,26.0482
38.9810,26.1293
39.0000,26.2250
39.0000,27.1750
38.9810,27.2707
38.9268,27.3518
38.8457,27.4060
38.7500,27.4250
38.2500,27.4250
38.1543,27.4060
38.0732,27.3518
38.0190,27.2707
38.0000,27.1750
Z" /> 
<path style="fill:#000000; fill-opacity:1.0000; stroke:none;fill-rule:evenodd;"
d="M 39.9000,26.2250
39.9190,26.1293
39.9732,26.0482
40.0543,25.9940
40.1500,25.9750
40.6500,25.9750
40.7457,25.9940
40.8268,26.0482
40.8810,26.1293
40.9000,26.2250
40.9000,27.1750
40.8810,27.2707
40.8268,27.3518
40.7457,27.4060
40.6500,27.4250
40.1500,27.4250
40.0543,27.4060
39.9732,27.3518
39.9190,27.2707
39.9000,27.1750
Z" /> 
<path style="fill:#000000; fill-opacity:1.0000; stroke:none;fill-rule:evenodd;"
d="M 42.4500,39.4375
42.4567,39.4040
42.4756,39.3756
42.5040,39.3567
42.5375,39.3500
42.9125,39.3500
42.9460,39.3567
42.9744,39.3756
42.9933,39.4040
43.0000,39.4375
43.0000,39.6125
42.9933,39.6460
42.9744,39.6744
42.9460,39.6933
42.9125,39.7000
42.5375,39.7000
42.5040,39.6933
42.4756,39.6744
42.4567,39.6460
42.4500,39.6125
Z" /> 
<path style="fill:#000000; fill-opacity:1.0000; stroke:none;fill-rule:evenodd;"
d="M 42.4500,39.9375
42.4567,39.9040
42.4756,39.8756
42.5040,39.8567
42.5375,39.8500
42.9125,39.8500
42.9460,39.8567
42.9744,39.8756
42.9933,39.9040
43.0000,39.9375
43.0000,40.1125
42.9933,40.1460
42.9744,40.1744
42.9460,40.1933
42.9125,40.2000
42.5375,40.2000
42.5040,40.1933
42.4756,40.1744
42.4567,40.1460
42.4500,40.1125
Z" /> 
<path style="fill:#000000; fill-opacity:1.0000; stroke:none;fill-rule:evenodd;"
d="M 42.4500,40.4375
42.4567,40.4040
42.4756,40.3756
42.5040,40.3567
42.5375,40.3500
42.9125,40.3500
42.9460,40.3567
42.9744,40.3756
42.9933,40.4040
43.0000,40.4375
43.0000,40.6125
42.9933,40.6460
42.9744,40.6744
42.9460,40.6933
42.9125,40.7000
42.5375,40.7000
42.5040,40.6933
42.4756,40.6744
42.4567,40.6460
42.4500,40.6125
Z" /> 
<path style="fill:#000000; fill-opacity:1.0000; stroke:none;fill-rule:evenodd;"
d="M 42.4500,40.9375
42.4567,40.9040
42.4756,40.8756
42.5040,40.8567
42.5375,40.8500
42.9125,40.8500
42.9460,40.8567
42.9744,40.8756
42.9933,40.9040
43.0000,40.9375
43.0000,41.1125
42.9933,41.1460
42.9744,41.1744
42.9460,41.1933
42.9125,41.2000
42.5375,41.2000
42.5040,41.1933
42.4756,41.1744
42.4567,41.1460
42.4500,41.1125
Z" /> 
<path style="fill:#000000; fill-opacity:1.0000; stroke:none;fill-rule:evenodd;"
d="M 42.4500,41.4375
42.4567,41.4040
42.4756,41.3756
42.5040,41.3567
42.5375,41.3500
42.9125,41.3500
42.9460,41.3567
42.9744,41.3756
42.9933,41.4040
43.0000,41.4375
43.0000,41.6125
42.9933,41.6460
42.9744,41.6744
42.9460,41.6933
42.9125,41.7000
42.5375,41.7000
42.5040,41.6933
42.4756,41.6744
42.4567,41.6460
42.4500,41.6125
Z" /> 
<path style="fill:#000000; fill-opacity:1.0000; stroke:none;fill-rule:evenodd;"
d="M 43.2750,41.5625
43.2817,41.5290
43.3006,41.5006
43.3290,41.4817
43.3625,41.4750
43.5375,41.4750
43.5710,41.4817
43.5994,41.5006
43.6183,41.5290
43.6250,41.5625
43.6250,41.9375
43.6183,41.9710
43.5994,41.9994
43.5710,42.0183
43.5375,42.0250
43.3625,42.0250
43.3290,42.0183
43.3006,41.9994
43.2817,41.9710
43.2750,41.9375
Z" /> 
<path style="fill:#000000; fill-opacity:1.0000; stroke:none;fill-rule:evenodd;"
d="M 43.7750,41.5625
43.7817,41.5290
43.8006,41.5006
43.8290,41.4817
43.8625,41.4750
44.0375,41.4750
44.0710,41.4817
44.0994,41.5006
44.1183,41.5290
44.1250,41.5625
44.1250,41.9375
44.1183,41.9710
44.0994,41.9994
44.0710,42.0183
44.0375,42.0250
43.8625,42.0250
43.8290,42.0183
43.8006,41.9994
43.7817,41.9710
43.7750,41.9375
Z" /> 
<path style="fill:#000000; fill-opacity:1.0000; stroke:none;fill-rule:evenodd;"
d="M 44.2750,41.5625
44.2817,41.5290
44.3006,41.5006
44.3290,41.4817
44.3625,41.4750
44.5375,41.4750
44.5710,41.4817
44.5994,41.5006
44.6183,41.5290
44.6250,41.5625
44.6250,41.9375
44.6183,41.9710
44.5994,41.9994
44.5710,42.0183
44.5375,42.0250
44.3625,42.0250
44.3290,42.0183
44.3006,41.9994
44.2817,41.9710
44.2750,41.9375
Z" /> 
<path style="fill:#000000; fill-opacity:1.0000; stroke:none;fill-rule:evenodd;"
d="M 44.9000,41.4375
44.9067,41.4040
44.9256,41.3756
44.9540,41.3567
44.9875,41.3500
45.3625,41.3500
45.3960,41.3567
45.4244,41.3756
45.4433,41.4040
45.4500,41.4375
45.4500,41.6125
45.4433,41.6460
45.4244,41.6744
45.3960,41.6933
45.3625,41.7000
44.9875,41.7000
44.9540,41.6933
44.9256,41.6744
44.9067,41.6460
44.9000,41.6125
Z" /> 
<path style="fill:#000000; fill-opacity:1.0000; stroke:none;fill-rule:evenodd;"
d="M 44.9000,40.9375
44.9067,40.9040
44.9256,40.8756
44.9540,40.8567
44.9875,40.8500
45.3625,40.8500
45.3960,40.8567
45.4244,40.8756
45.4433,40.9040
45.4500,40.9375
45.4500,41.1125
45.4433,41.1460
45.4244,41.1744
45.3960,41.1933
45.3625,41.2000
44.9875,41.2000
44.9540,41.1933
44.9256,41.1744
44.9067,41.1460
44.9000,41.1125
Z" /> 
<path style="fill:#000000; fill-opacity:1.0000; stroke:none;fill-rule:evenodd;"
d="M 44.9000,40.4375
44.9067,40.4040
44.9256,40.3756
44.9540,40.3567
44.9875,40.3500
45.3625,40.3500
45.3960,40.3567
45.4244,40.3756
45.4433,40.4040
45.4500,40.4375
45.4500,40.6125
45.4433,40.6460
45.4244,40.6744
45.3960,40.6933
45.3625,40.7000
44.9875,40.7000
44.9540,40.6933
44.9256,40.6744
44.9067,40.6460
44.9000,40.6125
Z" /> 
<path style="fill:#000000; fill-opacity:1.0000; stroke:none;fill-rule:evenodd;"
d="M 44.9000,39.9375
44.9067,39.9040
44.9256,39.8756
44.9540,39.8567
44.9875,39.8500
45.3625,39.8500
45.3960,39.8567
45.4244,39.8756
45.4433,39.9040
45.4500,39.9375
45.4500,40.1125
45.4433,40.1460
45.4244,40.1744
45.3960,40.1933
45.3625,40.2000
44.9875,40.2000
44.9540,40.1933
44.9256,40.1744
44.9067,40.1460
44.9000,40.1125
Z" /> 
<path style="fill:#000000; fill-opacity:1.0000; stroke:none;fill-rule:evenodd;"
d="M 44.9000,39.4375
44.9067,39.4040
44.9256,39.3756
44.9540,39.3567
44.9875,39.3500
45.3625,39.3500
45.3960,39.3567
45.4244,39.3756
45.4433,39.4040
45.4500,39.4375
45.4500,39.6125
45.4433,39.6460
45.4244,39.6744
45.3960,39.6933
45.3625,39.7000
44.9875,39.7000
44.9540,39.6933
44.9256,39.6744
44.9067,39.6460
44.9000,39.6125
Z" /> 
<path style="fill:#000000; fill-opacity:1.0000; stroke:none;fill-rule:evenodd;"
d="M 44.2750,39.1125
44.2817,39.0790
44.3006,39.0506
44.3290,39.0317
44.3625,39.0250
44.5375,39.0250
44.5710,39.0317
44.5994,39.0506
44.6183,39.0790
44.6250,39.1125
44.6250,39.4875
44.6183,39.5210
44.5994,39.5494
44.5710,39.5683
44.5375,39.5750
44.3625,39.5750
44.3290,39.5683
44.3006,39.5494
44.2817,39.5210
44.2750,39.4875
Z" /> 
<path style="fill:#000000; fill-opacity:1.0000; stroke:none;fill-rule:evenodd;"
d="M 43.7750,39.1125
43.7817,39.0790
43.8006,39.0506
43.8290,39.0317
43.8625,39.0250
44.0375,39.0250
44.0710,39.0317
44.0994,39.0506
44.1183,39.0790
44.1250,39.1125
44.1250,39.4875
44.1183,39.5210
44.0994,39.5494
44.0710,39.5683
44.0375,39.5750
43.8625,39.5750
43.8290,39.5683
43.8006,39.5494
43.7817,39.5210
43.7750,39.4875
Z" /> 
<path style="fill:#000000; fill-opacity:1.0000; stroke:none;fill-rule:evenodd;"
d="M 43.2750,39.1125
43.2817,39.0790
43.3006,39.0506
43.3290,39.0317
43.3625,39.0250
43.5375,39.0250
43.5710,39.0317
43.5994,39.0506
43.6183,39.0790
43.6250,39.1125
43.6250,39.4875
43.6183,39.5210
43.5994,39.5494
43.5710,39.5683
43.5375,39.5750
43.3625,39.5750
43.3290,39.5683
43.3006,39.5494
43.2817,39.5210
43.2750,39.4875
Z" /> 
<path style="fill:#000000; fill-opacity:1.0000; stroke:none;fill-rule:evenodd;"
d="M 29.5875,53.9187
29.6042,53.8350
29.6516,53.7641
29.7225,53.7167
29.8062,53.7000
30.2437,53.7000
30.3275,53.7167
30.3984,53.7641
30.4458,53.8350
30.4625,53.9187
30.4625,54.6812
30.4458,54.7650
30.3984,54.8359
30.3275,54.8833
30.2437,54.9000
29.8062,54.9000
29.7225,54.8833
29.6516,54.8359
29.6042,54.7650
29.5875,54.6812
Z" /> 
<path style="fill:#000000; fill-opacity:1.0000; stroke:none;fill-rule:evenodd;"
d="M 31.7125,53.9187
31.7292,53.8350
31.7766,53.7641
31.8475,53.7167
31.9312,53.7000
32.3687,53.7000
32.4525,53.7167
32.5234,53.7641
32.5708,53.8350
32.5875,53.9187
32.5875,54.6812
32.5708,54.7650
32.5234,54.8359
32.4525,54.8833
32.3687,54.9000
31.9312,54.9000
31.8475,54.8833
31.7766,54.8359
31.7292,54.7650
31.7125,54.6812
Z" /> 
<path style="fill:#000000; fill-opacity:1.0000; stroke:none;fill-rule:evenodd;"
d="M 23.6375,57.9500
23.6565,57.8543
23.7107,57.7732
23.7918,57.7190
23.8875,57.7000
24.4125,57.7000
24.5082,57.7190
24.5893,57.7732
24.6435,57.8543
24.6625,57.9500
24.6625,58.8500
24.6435,58.9457
24.5893,59.0268
24.5082,59.0810
24.4125,59.1000
23.8875,59.1000
23.7918,59.0810
23.7107,59.0268
23.6565,58.9457
23.6375,58.8500
Z" /> 
<path style="fill:#000000; fill-opacity:1.0000; stroke:none;fill-rule:evenodd;"
d="M 25.4625,57.9500
25.4815,57.8543
25.5357,57.7732
25.6168,57.7190
25.7125,57.7000
26.2375,57.7000
26.3332,57.7190
26.4143,57.7732
26.4685,57.8543
26.4875,57.9500
26.4875,58.8500
26.4685,58.9457
26.4143,59.0268
26.3332,59.0810
26.2375,59.1000
25.7125,59.1000
25.6168,59.0810
25.5357,59.0268
25.4815,58.9457
25.4625,58.8500
Z" /> 
<path style="fill:#000000; fill-opacity:1.0000; stroke:none;fill-rule:evenodd;"
d="M 30.1375,49.5750
30.1565,49.4793
30.2107,49.3982
30.2918,49.3440
30.3875,49.3250
30.8875,49.3250
30.9832,49.3440
31.0643,49.3982
31.1185,49.4793
31.1375,49.5750
31.1375,50.5250
31.1185,50.6207
31.0643,50.7018
30.9832,50.7560
30.8875,50.7750
30.3875,50.7750
30.2918,50.7560
30.2107,50.7018
30.1565,50.6207
30.1375,50.5250
Z" /> 
<path style="fill:#000000; fill-opacity:1.0000; stroke:none;fill-rule:evenodd;"
d="M 32.0375,49.5750
32.0565,49.4793
32.1107,49.3982
32.1918,49.3440
32.2875,49.3250
32.7875,49.3250
32.8832,49.3440
32.9643,49.3982
33.0185,49.4793
33.0375,49.5750
33.0375,50.5250
33.0185,50.6207
32.9643,50.7018
32.8832,50.7560
32.7875,50.7750
32.2875,50.7750
32.1918,50.7560
32.1107,50.7018
32.0565,50.6207
32.0375,50.5250
Z" /> 
<path style="fill:#000000; fill-opacity:1.0000; stroke:none;fill-rule:evenodd;"
d="M 28.5625,35.3500
28.5435,35.4457
28.4893,35.5268
28.4082,35.5810
28.3125,35.6000
27.7875,35.6000
27.6918,35.5810
27.6107,35.5268
27.5565,35.4457
27.5375,35.3500
27.5375,34.4500
27.5565,34.3543
27.6107,34.2732
27.6918,34.2190
27.7875,34.2000
28.3125,34.2000
28.4082,34.2190
28.4893,34.2732
28.5435,34.3543
28.5625,34.4500
Z" /> 
<path style="fill:#000000; fill-opacity:1.0000; stroke:none;fill-rule:evenodd;"
d="M 26.7375,35.3500
26.7185,35.4457
26.6643,35.5268
26.5832,35.5810
26.4875,35.6000
25.9625,35.6000
25.8668,35.5810
25.7857,35.5268
25.7315,35.4457
25.7125,35.3500
25.7125,34.4500
25.7315,34.3543
25.7857,34.2732
25.8668,34.2190
25.9625,34.2000
26.4875,34.2000
26.5832,34.2190
26.6643,34.2732
26.7185,34.3543
26.7375,34.4500
Z" /> 
<path style="fill:#000000; fill-opacity:1.0000; stroke:none;fill-rule:evenodd;"
d="M 40.9250,34.9500
40.5750,34.9500
40.5750,34.4500
40.9250,34.4500
Z" /> 
<path style="fill:#000000; fill-opacity:1.0000; stroke:none;fill-rule:evenodd;"
d="M 41.5750,34.9500
41.2250,34.9500
41.2250,34.4500
41.5750,34.4500
Z" /> 
<path style="fill:#000000; fill-opacity:1.0000; stroke:none;fill-rule:evenodd;"
d="M 42.2250,34.9500
41.8750,34.9500
41.8750,34.4500
42.2250,34.4500
Z" /> 
<path style="fill:#000000; fill-opacity:1.0000; stroke:none;fill-rule:evenodd;"
d="M 42.8750,34.9500
42.5250,34.9500
42.5250,34.4500
42.8750,34.4500
Z" /> 
<path style="fill:#000000; fill-opacity:1.0000; stroke:none;fill-rule:evenodd;"
d="M 42.8750,36.5500
42.5250,36.5500
42.5250,36.0500
42.8750,36.0500
Z" /> 
<path style="fill:#000000; fill-opacity:1.0000; stroke:none;fill-rule:evenodd;"
d="M 42.2250,36.5500
41.8750,36.5500
41.8750,36.0500
42.2250,36.0500
Z" /> 
<path style="fill:#000000; fill-opacity:1.0000; stroke:none;fill-rule:evenodd;"
d="M 41.5750,36.5500
41.2250,36.5500
41.2250,36.0500
41.5750,36.0500
Z" /> 
<path style="fill:#000000; fill-opacity:1.0000; stroke:none;fill-rule:evenodd;"
d="M 40.9250,36.5500
40.5750,36.5500
40.5750,36.0500
40.9250,36.0500
Z" /> 
<path style="fill:#000000; fill-opacity:1.0000; stroke:none;fill-rule:evenodd;"
d="M 60.7325,54.1375
60.7325,52.3375
61.7325,52.3375
61.7325,54.1375
Z" /> 
<path style="fill:#000000; fill-opacity:1.0000; stroke:none;fill-rule:evenodd;"
d="M 58.2325,54.1375
58.2325,52.3375
59.2325,52.3375
59.2325,54.1375
Z" /> 
<path style="fill:#000000; fill-opacity:1.0000; stroke:none;fill-rule:evenodd;"
d="M 23.6375,52.0500
23.6565,51.9543
23.7107,51.8732
23.7918,51.8190
23.8875,51.8000
24.4125,51.8000
24.5082,51.8190
24.5893,51.8732
24.6435,51.9543
24.6625,52.0500
24.6625,52.9500
24.6435,53.0457
24.5893,53.1268
24.5082,53.1810
24.4125,53.2000
23.8875,53.2000
23.7918,53.1810
23.7107,53.1268
23.6565,53.0457
23.6375,52.9500
Z" /> 
<path style="fill:#000000; fill-opacity:1.0000; stroke:none;fill-rule:evenodd;"
d="M 25.4625,52.0500
25.4815,51.9543
25.5357,51.8732
25.6168,51.8190
25.7125,51.8000
26.2375,51.8000
26.3332,51.8190
26.4143,51.8732
26.4685,51.9543
26.4875,52.0500
26.4875,52.9500
26.4685,53.0457
26.4143,53.1268
26.3332,53.1810
26.2375,53.2000
25.7125,53.2000
25.6168,53.1810
25.5357,53.1268
25.4815,53.0457
25.4625,52.9500
Z" /> 
<path style="fill:#000000; fill-opacity:1.0000; stroke:none;fill-rule:evenodd;"
d="M 16.5000,37.2000
16.5000,36.2000
18.2000,36.2000
18.2000,37.2000
Z" /> 
<path style="fill:#000000; fill-opacity:1.0000; stroke:none;fill-rule:evenodd;"
d="M 22.8000,37.2000
22.8000,36.2000
24.5000,36.2000
24.5000,37.2000
Z" /> 
<path style="fill:#000000; fill-opacity:1.0000; stroke:none;fill-rule:evenodd;"
d="M 16.5000,41.0000
16.5000,40.0000
18.2000,40.0000
18.2000,41.0000
Z" /> 
<path style="fill:#000000; fill-opacity:1.0000; stroke:none;fill-rule:evenodd;"
d="M 22.8000,41.0000
22.8000,40.0000
24.5000,40.0000
24.5000,41.0000
Z" /> 
<path style="fill:#000000; fill-opacity:1.0000; stroke:none;fill-rule:evenodd;"
d="M 34.1875,62.3250
34.2065,62.2293
34.2607,62.1482
34.3418,62.0940
34.4375,62.0750
34.9375,62.0750
35.0332,62.0940
35.1143,62.1482
35.1685,62.2293
35.1875,62.3250
35.1875,63.2750
35.1685,63.3707
35.1143,63.4518
35.0332,63.5060
34.9375,63.5250
34.4375,63.5250
34.3418,63.5060
34.2607,63.4518
34.2065,63.3707
34.1875,63.2750
Z" /> 
<path style="fill:#000000; fill-opacity:1.0000; stroke:none;fill-rule:evenodd;"
d="M 36.0875,62.3250
36.1065,62.2293
36.1607,62.1482
36.2418,62.0940
36.3375,62.0750
36.8375,62.0750
36.9332,62.0940
37.0143,62.1482
37.0685,62.2293
37.0875,62.3250
37.0875,63.2750
37.0685,63.3707
37.0143,63.4518
36.9332,63.5060
36.8375,63.5250
36.3375,63.5250
36.2418,63.5060
36.1607,63.4518
36.1065,63.3707
36.0875,63.2750
Z" /> 
<path style="fill:#000000; fill-opacity:1.0000; stroke:none;fill-rule:evenodd;"
d="M 44.5500,50.0250
44.5690,49.9293
44.6232,49.8482
44.7043,49.7940
44.8000,49.7750
45.3000,49.7750
45.3957,49.7940
45.4768,49.8482
45.5310,49.9293
45.5500,50.0250
45.5500,50.9750
45.5310,51.0707
45.4768,51.1518
45.3957,51.2060
45.3000,51.2250
44.8000,51.2250
44.7043,51.2060
44.6232,51.1518
44.5690,51.0707
44.5500,50.9750
Z" /> 
<path style="fill:#000000; fill-opacity:1.0000; stroke:none;fill-rule:evenodd;"
d="M 46.4500,50.0250
46.4690,49.9293
46.5232,49.8482
46.6043,49.7940
46.7000,49.7750
47.2000,49.7750
47.2957,49.7940
47.3768,49.8482
47.4310,49.9293
47.4500,50.0250
47.4500,50.9750
47.4310,51.0707
47.3768,51.1518
47.2957,51.2060
47.2000,51.2250
46.7000,51.2250
46.6043,51.2060
46.5232,51.1518
46.4690,51.0707
46.4500,50.9750
Z" /> 
<path style="fill:#000000; fill-opacity:1.0000; stroke:none;fill-rule:evenodd;"
d="M 26.1250,27.8438
26.1436,27.7505
26.1964,27.6714
26.2755,27.6186
26.3687,27.6000
26.8562,27.6000
26.9495,27.6186
27.0286,27.6714
27.0814,27.7505
27.1000,27.8438
27.1000,28.7562
27.0814,28.8495
27.0286,28.9286
26.9495,28.9814
26.8562,29.0000
26.3687,29.0000
26.2755,28.9814
26.1964,28.9286
26.1436,28.8495
26.1250,28.7562
Z" /> 
<path style="fill:#000000; fill-opacity:1.0000; stroke:none;fill-rule:evenodd;"
d="M 28.0000,27.8438
28.0186,27.7505
28.0714,27.6714
28.1505,27.6186
28.2437,27.6000
28.7312,27.6000
28.8245,27.6186
28.9036,27.6714
28.9564,27.7505
28.9750,27.8438
28.9750,28.7562
28.9564,28.8495
28.9036,28.9286
28.8245,28.9814
28.7312,29.0000
28.2437,29.0000
28.1505,28.9814
28.0714,28.9286
28.0186,28.8495
28.0000,28.7562
Z" /> 
<path style="fill:#000000; fill-opacity:1.0000; stroke:none;fill-rule:evenodd;"
d="M 17.5500,45.5250
17.5690,45.4293
17.6232,45.3482
17.7043,45.2940
17.8000,45.2750
18.3000,45.2750
18.3957,45.2940
18.4768,45.3482
18.5310,45.4293
18.5500,45.5250
18.5500,46.4750
18.5310,46.5707
18.4768,46.6518
18.3957,46.7060
18.3000,46.7250
17.8000,46.7250
17.7043,46.7060
17.6232,46.6518
17.5690,46.5707
17.5500,46.4750
Z" /> 
<path style="fill:#000000; fill-opacity:1.0000; stroke:none;fill-rule:evenodd;"
d="M 19.4500,45.5250
19.4690,45.4293
19.5232,45.3482
19.6043,45.2940
19.7000,45.2750
20.2000,45.2750
20.2957,45.2940
20.3768,45.3482
20.4310,45.4293
20.4500,45.5250
20.4500,46.4750
20.4310,46.5707
20.3768,46.6518
20.2957,46.7060
20.2000,46.7250
19.7000,46.7250
19.6043,46.7060
19.5232,46.6518
19.4690,46.5707
19.4500,46.4750
Z" /> 
<path style="fill:#000000; fill-opacity:1.0000; stroke:none;fill-rule:evenodd;"
d="M 16.5000,27.6000
16.5000,26.6000
18.2000,26.6000
18.2000,27.6000
Z" /> 
<path style="fill:#000000; fill-opacity:1.0000; stroke:none;fill-rule:evenodd;"
d="M 22.8000,27.6000
22.8000,26.6000
24.5000,26.6000
24.5000,27.6000
Z" /> 
<path style="fill:#000000; fill-opacity:1.0000; stroke:none;fill-rule:evenodd;"
d="M 16.5000,31.4000
16.5000,30.4000
18.2000,30.4000
18.2000,31.4000
Z" /> 
<path style="fill:#000000; fill-opacity:1.0000; stroke:none;fill-rule:evenodd;"
d="M 22.8000,31.4000
22.8000,30.4000
24.5000,30.4000
24.5000,31.4000
Z" /> 
<path style="fill:#000000; fill-opacity:1.0000; stroke:none;fill-rule:evenodd;"
d="M 23.8125,62.4500
23.8315,62.3543
23.8857,62.2732
23.9668,62.2190
24.0625,62.2000
24.5875,62.2000
24.6832,62.2190
24.7643,62.2732
24.8185,62.3543
24.8375,62.4500
24.8375,63.3500
24.8185,63.4457
24.7643,63.5268
24.6832,63.5810
24.5875,63.6000
24.0625,63.6000
23.9668,63.5810
23.8857,63.5268
23.8315,63.4457
23.8125,63.3500
Z" /> 
<path style="fill:#000000; fill-opacity:1.0000; stroke:none;fill-rule:evenodd;"
d="M 25.6375,62.4500
25.6565,62.3543
25.7107,62.2732
25.7918,62.2190
25.8875,62.2000
26.4125,62.2000
26.5082,62.2190
26.5893,62.2732
26.6435,62.3543
26.6625,62.4500
26.6625,63.3500
26.6435,63.4457
26.5893,63.5268
26.5082,63.5810
26.4125,63.6000
25.8875,63.6000
25.7918,63.5810
25.7107,63.5268
25.6565,63.4457
25.6375,63.3500
Z" /> 
<path style="fill:#000000; fill-opacity:1.0000; stroke:none;fill-rule:evenodd;"
d="M 23.6375,49.1000
23.6565,49.0043
23.7107,48.9232
23.7918,48.8690
23.8875,48.8500
24.4125,48.8500
24.5082,48.8690
24.5893,48.9232
24.6435,49.0043
24.6625,49.1000
24.6625,50.0000
24.6435,50.0957
24.5893,50.1768
24.5082,50.2310
24.4125,50.2500
23.8875,50.2500
23.7918,50.2310
23.7107,50.1768
23.6565,50.0957
23.6375,50.0000
Z" /> 
<path style="fill:#000000; fill-opacity:1.0000; stroke:none;fill-rule:evenodd;"
d="M 25.4625,49.1000
25.4815,49.0043
25.5357,48.9232
25.6168,48.8690
25.7125,48.8500
26.2375,48.8500
26.3332,48.8690
26.4143,48.9232
26.4685,49.0043
26.4875,49.1000
26.4875,50.0000
26.4685,50.0957
26.4143,50.1768
26.3332,50.2310
26.2375,50.2500
25.7125,50.2500
25.6168,50.2310
25.5357,50.1768
25.4815,50.0957
25.4625,50.0000
Z" /> 
<path style="fill:#000000; fill-opacity:1.0000; stroke:none;fill-rule:evenodd;"
d="M 39.9375,49.5750
39.9565,49.4793
40.0107,49.3982
40.0918,49.3440
40.1875,49.3250
40.6875,49.3250
40.7832,49.3440
40.8643,49.3982
40.9185,49.4793
40.9375,49.5750
40.9375,50.5250
40.9185,50.6207
40.8643,50.7018
40.7832,50.7560
40.6875,50.7750
40.1875,50.7750
40.0918,50.7560
40.0107,50.7018
39.9565,50.6207
39.9375,50.5250
Z" /> 
<path style="fill:#000000; fill-opacity:1.0000; stroke:none;fill-rule:evenodd;"
d="M 41.8375,49.5750
41.8565,49.4793
41.9107,49.3982
41.9918,49.3440
42.0875,49.3250
42.5875,49.3250
42.6832,49.3440
42.7643,49.3982
42.8185,49.4793
42.8375,49.5750
42.8375,50.5250
42.8185,50.6207
42.7643,50.7018
42.6832,50.7560
42.5875,50.7750
42.0875,50.7750
41.9918,50.7560
41.9107,50.7018
41.8565,50.6207
41.8375,50.5250
Z" /> 
<path style="fill:#000000; fill-opacity:1.0000; stroke:none;fill-rule:evenodd;"
d="M 61.9825,56.5125
62.0015,56.4168
62.0557,56.3357
62.1368,56.2815
62.2325,56.2625
62.7325,56.2625
62.8282,56.2815
62.9093,56.3357
62.9635,56.4168
62.9825,56.5125
62.9825,57.4625
62.9635,57.5582
62.9093,57.6393
62.8282,57.6935
62.7325,57.7125
62.2325,57.7125
62.1368,57.6935
62.0557,57.6393
62.0015,57.5582
61.9825,57.4625
Z" /> 
<path style="fill:#000000; fill-opacity:1.0000; stroke:none;fill-rule:evenodd;"
d="M 63.8825,56.5125
63.9015,56.4168
63.9557,56.3357
64.0368,56.2815
64.1325,56.2625
64.6325,56.2625
64.7282,56.2815
64.8093,56.3357
64.8635,56.4168
64.8825,56.5125
64.8825,57.4625
64.8635,57.5582
64.8093,57.6393
64.7282,57.6935
64.6325,57.7125
64.1325,57.7125
64.0368,57.6935
63.9557,57.6393
63.9015,57.5582
63.8825,57.4625
Z" /> 
<path style="fill:#000000; fill-opacity:1.0000; stroke:none;fill-rule:evenodd;"
d="M 35.1125,30.8500
35.1315,30.7543
35.1857,30.6732
35.2668,30.6190
35.3625,30.6000
35.8875,30.6000
35.9832,30.6190
36.0643,30.6732
36.1185,30.7543
36.1375,30.8500
36.1375,31.7500
36.1185,31.8457
36.0643,31.9268
35.9832,31.9810
35.8875,32.0000
35.3625,32.0000
35.2668,31.9810
35.1857,31.9268
35.1315,31.8457
35.1125,31.7500
Z" /> 
<path style="fill:#000000; fill-opacity:1.0000; stroke:none;fill-rule:evenodd;"
d="M 36.9375,30.8500
36.9565,30.7543
37.0107,30.6732
37.0918,30.6190
37.1875,30.6000
37.7125,30.6000
37.8082,30.6190
37.8893,30.6732
37.9435,30.7543
37.9625,30.8500
37.9625,31.7500
37.9435,31.8457
37.8893,31.9268
37.8082,31.9810
37.7125,32.0000
37.1875,32.0000
37.0918,31.9810
37.0107,31.9268
36.9565,31.8457
36.9375,31.7500
Z" /> 
<path style="fill:#000000; fill-opacity:1.0000; stroke:none;fill-rule:evenodd;"
d="M 46.0250,30.5875
46.0183,30.6210
45.9994,30.6494
45.9710,30.6683
45.9375,30.6750
45.3625,30.6750
45.3290,30.6683
45.3006,30.6494
45.2817,30.6210
45.2750,30.5875
45.2750,30.4125
45.2817,30.3790
45.3006,30.3506
45.3290,30.3317
45.3625,30.3250
45.9375,30.3250
45.9710,30.3317
45.9994,30.3506
46.0183,30.3790
46.0250,30.4125
Z" /> 
<path style="fill:#000000; fill-opacity:1.0000; stroke:none;fill-rule:evenodd;"
d="M 46.0250,29.7875
46.0183,29.8210
45.9994,29.8494
45.9710,29.8683
45.9375,29.8750
45.3625,29.8750
45.3290,29.8683
45.3006,29.8494
45.2817,29.8210
45.2750,29.7875
45.2750,29.6125
45.2817,29.5790
45.3006,29.5506
45.3290,29.5317
45.3625,29.5250
45.9375,29.5250
45.9710,29.5317
45.9994,29.5506
46.0183,29.5790
46.0250,29.6125
Z" /> 
<path style="fill:#000000; fill-opacity:1.0000; stroke:none;fill-rule:evenodd;"
d="M 46.0250,28.9875
46.0183,29.0210
45.9994,29.0494
45.9710,29.0683
45.9375,29.0750
45.3625,29.0750
45.3290,29.0683
45.3006,29.0494
45.2817,29.0210
45.2750,28.9875
45.2750,28.8125
45.2817,28.7790
45.3006,28.7506
45.3290,28.7317
45.3625,28.7250
45.9375,28.7250
45.9710,28.7317
45.9994,28.7506
46.0183,28.7790
46.0250,28.8125
Z" /> 
<path style="fill:#000000; fill-opacity:1.0000; stroke:none;fill-rule:evenodd;"
d="M 46.0250,28.1875
46.0183,28.2210
45.9994,28.2494
45.9710,28.2683
45.9375,28.2750
45.3625,28.2750
45.3290,28.2683
45.3006,28.2494
45.2817,28.2210
45.2750,28.1875
45.2750,28.0125
45.2817,27.9790
45.3006,27.9506
45.3290,27.9317
45.3625,27.9250
45.9375,27.9250
45.9710,27.9317
45.9994,27.9506
46.0183,27.9790
46.0250,28.0125
Z" /> 
<path style="fill:#000000; fill-opacity:1.0000; stroke:none;fill-rule:evenodd;"
d="M 46.0250,27.3875
46.0183,27.4210
45.9994,27.4494
45.9710,27.4683
45.9375,27.4750
45.3625,27.4750
45.3290,27.4683
45.3006,27.4494
45.2817,27.4210
45.2750,27.3875
45.2750,27.2125
45.2817,27.1790
45.3006,27.1506
45.3290,27.1317
45.3625,27.1250
45.9375,27.1250
45.9710,27.1317
45.9994,27.1506
46.0183,27.1790
46.0250,27.2125
Z" /> 
<path style="fill:#000000; fill-opacity:1.0000; stroke:none;fill-rule:evenodd;"
d="M 46.0250,26.5875
46.0183,26.6210
45.9994,26.6494
45.9710,26.6683
45.9375,26.6750
45.3625,26.6750
45.3290,26.6683
45.3006,26.6494
45.2817,26.6210
45.2750,26.5875
45.2750,26.4125
45.2817,26.3790
45.3006,26.3506
45.3290,26.3317
45.3625,26.3250
45.9375,26.3250
45.9710,26.3317
45.9994,26.3506
46.0183,26.3790
46.0250,26.4125
Z" /> 
<path style="fill:#000000; fill-opacity:1.0000; stroke:none;fill-rule:evenodd;"
d="M 46.0250,25.7875
46.0183,25.8210
45.9994,25.8494
45.9710,25.8683
45.9375,25.8750
45.3625,25.8750
45.3290,25.8683
45.3006,25.8494
45.2817,25.8210
45.2750,25.7875
45.2750,25.6125
45.2817,25.5790
45.3006,25.5506
45.3290,25.5317
45.3625,25.5250
45.9375,25.5250
45.9710,25.5317
45.9994,25.5506
46.0183,25.5790
46.0250,25.6125
Z" /> 
<path style="fill:#000000; fill-opacity:1.0000; stroke:none;fill-rule:evenodd;"
d="M 43.6250,25.7875
43.6183,25.8210
43.5994,25.8494
43.5710,25.8683
43.5375,25.8750
42.9625,25.8750
42.9290,25.8683
42.9006,25.8494
42.8817,25.8210
42.8750,25.7875
42.8750,25.6125
42.8817,25.5790
42.9006,25.5506
42.9290,25.5317
42.9625,25.5250
43.5375,25.5250
43.5710,25.5317
43.5994,25.5506
43.6183,25.5790
43.6250,25.6125
Z" /> 
<path style="fill:#000000; fill-opacity:1.0000; stroke:none;fill-rule:evenodd;"
d="M 43.6250,26.5875
43.6183,26.6210
43.5994,26.6494
43.5710,26.6683
43.5375,26.6750
42.9625,26.6750
42.9290,26.6683
42.9006,26.6494
42.8817,26.6210
42.8750,26.5875
42.8750,26.4125
42.8817,26.3790
42.9006,26.3506
42.9290,26.3317
42.9625,26.3250
43.5375,26.3250
43.5710,26.3317
43.5994,26.3506
43.6183,26.3790
43.6250,26.4125
Z" /> 
<path style="fill:#000000; fill-opacity:1.0000; stroke:none;fill-rule:evenodd;"
d="M 43.6250,27.3875
43.6183,27.4210
43.5994,27.4494
43.5710,27.4683
43.5375,27.4750
42.9625,27.4750
42.9290,27.4683
42.9006,27.4494
42.8817,27.4210
42.8750,27.3875
42.8750,27.2125
42.8817,27.1790
42.9006,27.1506
42.9290,27.1317
42.9625,27.1250
43.5375,27.1250
43.5710,27.1317
43.5994,27.1506
43.6183,27.1790
43.6250,27.2125
Z" /> 
<path style="fill:#000000; fill-opacity:1.0000; stroke:none;fill-rule:evenodd;"
d="M 43.6250,28.1875
43.6183,28.2210
43.5994,28.2494
43.5710,28.2683
43.5375,28.2750
42.9625,28.2750
42.9290,28.2683
42.9006,28.2494
42.8817,28.2210
42.8750,28.1875
42.8750,28.0125
42.8817,27.9790
42.9006,27.9506
42.9290,27.9317
42.9625,27.9250
43.5375,27.9250
43.5710,27.9317
43.5994,27.9506
43.6183,27.9790
43.6250,28.0125
Z" /> 
<path style="fill:#000000; fill-opacity:1.0000; stroke:none;fill-rule:evenodd;"
d="M 43.6250,28.9875
43.6183,29.0210
43.5994,29.0494
43.5710,29.0683
43.5375,29.0750
42.9625,29.0750
42.9290,29.0683
42.9006,29.0494
42.8817,29.0210
42.8750,28.9875
42.8750,28.8125
42.8817,28.7790
42.9006,28.7506
42.9290,28.7317
42.9625,28.7250
43.5375,28.7250
43.5710,28.7317
43.5994,28.7506
43.6183,28.7790
43.6250,28.8125
Z" /> 
<path style="fill:#000000; fill-opacity:1.0000; stroke:none;fill-rule:evenodd;"
d="M 43.6250,29.7875
43.6183,29.8210
43.5994,29.8494
43.5710,29.8683
43.5375,29.8750
42.9625,29.8750
42.9290,29.8683
42.9006,29.8494
42.8817,29.8210
42.8750,29.7875
42.8750,29.6125
42.8817,29.5790
42.9006,29.5506
42.9290,29.5317
42.9625,29.5250
43.5375,29.5250
43.5710,29.5317
43.5994,29.5506
43.6183,29.5790
43.6250,29.6125
Z" /> 
<path style="fill:#000000; fill-opacity:1.0000; stroke:none;fill-rule:evenodd;"
d="M 43.6250,30.5875
43.6183,30.6210
43.5994,30.6494
43.5710,30.6683
43.5375,30.6750
42.9625,30.6750
42.9290,30.6683
42.9006,30.6494
42.8817,30.6210
42.8750,30.5875
42.8750,30.4125
42.8817,30.3790
42.9006,30.3506
42.9290,30.3317
42.9625,30.3250
43.5375,30.3250
43.5710,30.3317
43.5994,30.3506
43.6183,30.3790
43.6250,30.4125
Z" /> 
<path style="fill:#000000; fill-opacity:1.0000; stroke:none;fill-rule:evenodd;"
d="M 29.9375,59.0750
29.9565,58.9793
30.0107,58.8982
30.0918,58.8440
30.1875,58.8250
30.6875,58.8250
30.7832,58.8440
30.8643,58.8982
30.9185,58.9793
30.9375,59.0750
30.9375,60.0250
30.9185,60.1207
30.8643,60.2018
30.7832,60.2560
30.6875,60.2750
30.1875,60.2750
30.0918,60.2560
30.0107,60.2018
29.9565,60.1207
29.9375,60.0250
Z" /> 
<path style="fill:#000000; fill-opacity:1.0000; stroke:none;fill-rule:evenodd;"
d="M 31.8375,59.0750
31.8565,58.9793
31.9107,58.8982
31.9918,58.8440
32.0875,58.8250
32.5875,58.8250
32.6832,58.8440
32.7643,58.8982
32.8185,58.9793
32.8375,59.0750
32.8375,60.0250
32.8185,60.1207
32.7643,60.2018
32.6832,60.2560
32.5875,60.2750
32.0875,60.2750
31.9918,60.2560
31.9107,60.2018
31.8565,60.1207
31.8375,60.0250
Z" /> 
<path style="fill:#000000; fill-opacity:1.0000; stroke:none;fill-rule:evenodd;"
d="M 10.6100,59.7500
10.6214,59.6926
10.6539,59.6439
10.7026,59.6114
10.7600,59.6000
11.0600,59.6000
11.1174,59.6114
11.1661,59.6439
11.1986,59.6926
11.2100,59.7500
11.2100,60.6000
11.1986,60.6574
11.1661,60.7061
11.1174,60.7386
11.0600,60.7500
10.7600,60.7500
10.7026,60.7386
10.6539,60.7061
10.6214,60.6574
10.6100,60.6000
Z" /> 
<path style="fill:#000000; fill-opacity:1.0000; stroke:none;fill-rule:evenodd;"
d="M 11.4100,59.7500
11.4214,59.6926
11.4539,59.6439
11.5026,59.6114
11.5600,59.6000
11.8600,59.6000
11.9174,59.6114
11.9661,59.6439
11.9986,59.6926
12.0100,59.7500
12.0100,60.6000
11.9986,60.6574
11.9661,60.7061
11.9174,60.7386
11.8600,60.7500
11.5600,60.7500
11.5026,60.7386
11.4539,60.7061
11.4214,60.6574
11.4100,60.6000
Z" /> 
<path style="fill:#000000; fill-opacity:1.0000; stroke:none;fill-rule:evenodd;"
d="M 12.7100,59.6750
12.7157,59.6463
12.7320,59.6220
12.7563,59.6057
12.7850,59.6000
12.9350,59.6000
12.9637,59.6057
12.9880,59.6220
13.0043,59.6463
13.0100,59.6750
13.0100,60.6750
13.0043,60.7037
12.9880,60.7280
12.9637,60.7443
12.9350,60.7500
12.7850,60.7500
12.7563,60.7443
12.7320,60.7280
12.7157,60.7037
12.7100,60.6750
Z" /> 
<path style="fill:#000000; fill-opacity:1.0000; stroke:none;fill-rule:evenodd;"
d="M 13.7100,59.6750
13.7157,59.6463
13.7320,59.6220
13.7563,59.6057
13.7850,59.6000
13.9350,59.6000
13.9637,59.6057
13.9880,59.6220
14.0043,59.6463
14.0100,59.6750
14.0100,60.6750
14.0043,60.7037
13.9880,60.7280
13.9637,60.7443
13.9350,60.7500
13.7850,60.7500
13.7563,60.7443
13.7320,60.7280
13.7157,60.7037
13.7100,60.6750
Z" /> 
<path style="fill:#000000; fill-opacity:1.0000; stroke:none;fill-rule:evenodd;"
d="M 14.2100,59.6750
14.2157,59.6463
14.2320,59.6220
14.2563,59.6057
14.2850,59.6000
14.4350,59.6000
14.4637,59.6057
14.4880,59.6220
14.5043,59.6463
14.5100,59.6750
14.5100,60.6750
14.5043,60.7037
14.4880,60.7280
14.4637,60.7443
14.4350,60.7500
14.2850,60.7500
14.2563,60.7443
14.2320,60.7280
14.2157,60.7037
14.2100,60.6750
Z" /> 
<path style="fill:#000000; fill-opacity:1.0000; stroke:none;fill-rule:evenodd;"
d="M 15.2100,59.6750
15.2157,59.6463
15.2320,59.6220
15.2563,59.6057
15.2850,59.6000
15.4350,59.6000
15.4637,59.6057
15.4880,59.6220
15.5043,59.6463
15.5100,59.6750
15.5100,60.6750
15.5043,60.7037
15.4880,60.7280
15.4637,60.7443
15.4350,60.7500
15.2850,60.7500
15.2563,60.7443
15.2320,60.7280
15.2157,60.7037
15.2100,60.6750
Z" /> 
<path style="fill:#000000; fill-opacity:1.0000; stroke:none;fill-rule:evenodd;"
d="M 16.2100,59.7500
16.2214,59.6926
16.2539,59.6439
16.3026,59.6114
16.3600,59.6000
16.6600,59.6000
16.7174,59.6114
16.7661,59.6439
16.7986,59.6926
16.8100,59.7500
16.8100,60.6000
16.7986,60.6574
16.7661,60.7061
16.7174,60.7386
16.6600,60.7500
16.3600,60.7500
16.3026,60.7386
16.2539,60.7061
16.2214,60.6574
16.2100,60.6000
Z" /> 
<path style="fill:#000000; fill-opacity:1.0000; stroke:none;fill-rule:evenodd;"
d="M 17.0100,59.7500
17.0214,59.6926
17.0539,59.6439
17.1026,59.6114
17.1600,59.6000
17.4600,59.6000
17.5174,59.6114
17.5661,59.6439
17.5986,59.6926
17.6100,59.7500
17.6100,60.6000
17.5986,60.6574
17.5661,60.7061
17.5174,60.7386
17.4600,60.7500
17.1600,60.7500
17.1026,60.7386
17.0539,60.7061
17.0214,60.6574
17.0100,60.6000
Z" /> 
<path style="fill:#000000; fill-opacity:1.0000; stroke:none;fill-rule:evenodd;"
d="M 17.0100,59.7500
17.0214,59.6926
17.0539,59.6439
17.1026,59.6114
17.1600,59.6000
17.4600,59.6000
17.5174,59.6114
17.5661,59.6439
17.5986,59.6926
17.6100,59.7500
17.6100,60.6000
17.5986,60.6574
17.5661,60.7061
17.5174,60.7386
17.4600,60.7500
17.1600,60.7500
17.1026,60.7386
17.0539,60.7061
17.0214,60.6574
17.0100,60.6000
Z" /> 
<path style="fill:#000000; fill-opacity:1.0000; stroke:none;fill-rule:evenodd;"
d="M 16.2100,59.7500
16.2214,59.6926
16.2539,59.6439
16.3026,59.6114
16.3600,59.6000
16.6600,59.6000
16.7174,59.6114
16.7661,59.6439
16.7986,59.6926
16.8100,59.7500
16.8100,60.6000
16.7986,60.6574
16.7661,60.7061
16.7174,60.7386
16.6600,60.7500
16.3600,60.7500
16.3026,60.7386
16.2539,60.7061
16.2214,60.6574
16.2100,60.6000
Z" /> 
<path style="fill:#000000; fill-opacity:1.0000; stroke:none;fill-rule:evenodd;"
d="M 15.7100,59.6750
15.7157,59.6463
15.7320,59.6220
15.7563,59.6057
15.7850,59.6000
15.9350,59.6000
15.9637,59.6057
15.9880,59.6220
16.0043,59.6463
16.0100,59.6750
16.0100,60.6750
16.0043,60.7037
15.9880,60.7280
15.9637,60.7443
15.9350,60.7500
15.7850,60.7500
15.7563,60.7443
15.7320,60.7280
15.7157,60.7037
15.7100,60.6750
Z" /> 
<path style="fill:#000000; fill-opacity:1.0000; stroke:none;fill-rule:evenodd;"
d="M 14.7100,59.6750
14.7157,59.6463
14.7320,59.6220
14.7563,59.6057
14.7850,59.6000
14.9350,59.6000
14.9637,59.6057
14.9880,59.6220
15.0043,59.6463
15.0100,59.6750
15.0100,60.6750
15.0043,60.7037
14.9880,60.7280
14.9637,60.7443
14.9350,60.7500
14.7850,60.7500
14.7563,60.7443
14.7320,60.7280
14.7157,60.7037
14.7100,60.6750
Z" /> 
<path style="fill:#000000; fill-opacity:1.0000; stroke:none;fill-rule:evenodd;"
d="M 13.2100,59.6750
13.2157,59.6463
13.2320,59.6220
13.2563,59.6057
13.2850,59.6000
13.4350,59.6000
13.4637,59.6057
13.4880,59.6220
13.5043,59.6463
13.5100,59.6750
13.5100,60.6750
13.5043,60.7037
13.4880,60.7280
13.4637,60.7443
13.4350,60.7500
13.2850,60.7500
13.2563,60.7443
13.2320,60.7280
13.2157,60.7037
13.2100,60.6750
Z" /> 
<path style="fill:#000000; fill-opacity:1.0000; stroke:none;fill-rule:evenodd;"
d="M 12.2100,59.6750
12.2157,59.6463
12.2320,59.6220
12.2563,59.6057
12.2850,59.6000
12.4350,59.6000
12.4637,59.6057
12.4880,59.6220
12.5043,59.6463
12.5100,59.6750
12.5100,60.6750
12.5043,60.7037
12.4880,60.7280
12.4637,60.7443
12.4350,60.7500
12.2850,60.7500
12.2563,60.7443
12.2320,60.7280
12.2157,60.7037
12.2100,60.6750
Z" /> 
<path style="fill:#000000; fill-opacity:1.0000; stroke:none;fill-rule:evenodd;"
d="M 11.4100,59.7500
11.4214,59.6926
11.4539,59.6439
11.5026,59.6114
11.5600,59.6000
11.8600,59.6000
11.9174,59.6114
11.9661,59.6439
11.9986,59.6926
12.0100,59.7500
12.0100,60.6000
11.9986,60.6574
11.9661,60.7061
11.9174,60.7386
11.8600,60.7500
11.5600,60.7500
11.5026,60.7386
11.4539,60.7061
11.4214,60.6574
11.4100,60.6000
Z" /> 
<path style="fill:#000000; fill-opacity:1.0000; stroke:none;fill-rule:evenodd;"
d="M 10.6100,59.7500
10.6214,59.6926
10.6539,59.6439
10.7026,59.6114
10.7600,59.6000
11.0600,59.6000
11.1174,59.6114
11.1661,59.6439
11.1986,59.6926
11.2100,59.7500
11.2100,60.6000
11.1986,60.6574
11.1661,60.7061
11.1174,60.7386
11.0600,60.7500
10.7600,60.7500
10.7026,60.7386
10.6539,60.7061
10.6214,60.6574
10.6100,60.6000
Z" /> 
</g>
<g style="fill:none; 
stroke:#000000; stroke-width:1.0000; stroke-opacity:1; 
stroke-linecap:round; stroke-linejoin:round;">
<path d="M9.7900 60.2000
L9.7900 61.3000
" />
<path d="M9.7900 64.5300
L9.7900 65.3300
" />
<path d="M18.4300 60.2000
L18.4300 61.3000
" />
<path d="M18.4300 64.5300
L18.4300 65.3300
" />
<path style="fill:#000000; fill-opacity:1.0000; stroke:none;fill-rule:evenodd;"
d="M 56.1000,66.8500
54.4000,66.8500
54.4000,65.1500
56.1000,65.1500
Z" /> 
</g>
<g style="fill:#000000; fill-opacity:1.0000; stroke:none;">
<circle cx="57.7900" cy="66.0000" r="0.8500" /> 
<circle cx="60.3300" cy="66.0000" r="0.8500" /> 
<path style="fill:#000000; fill-opacity:1.0000; stroke:none;fill-rule:evenodd;"
d="M 35.1875,49.3250
35.2065,49.2293
35.2607,49.1482
35.3418,49.0940
35.4375,49.0750
35.9375,49.0750
36.0332,49.0940
36.1143,49.1482
36.1685,49.2293
36.1875,49.3250
36.1875,50.2750
36.1685,50.3707
36.1143,50.4518
36.0332,50.5060
35.9375,50.5250
35.4375,50.5250
35.3418,50.5060
35.2607,50.4518
35.2065,50.3707
35.1875,50.2750
Z" /> 
<path style="fill:#000000; fill-opacity:1.0000; stroke:none;fill-rule:evenodd;"
d="M 37.0875,49.3250
37.1065,49.2293
37.1607,49.1482
37.2418,49.0940
37.3375,49.0750
37.8375,49.0750
37.9332,49.0940
38.0143,49.1482
38.0685,49.2293
38.0875,49.3250
38.0875,50.2750
38.0685,50.3707
38.0143,50.4518
37.9332,50.5060
37.8375,50.5250
37.3375,50.5250
37.2418,50.5060
37.1607,50.4518
37.1065,50.3707
37.0875,50.2750
Z" /> 
<path style="fill:#000000; fill-opacity:1.0000; stroke:none;fill-rule:evenodd;"
d="M 8.1000,45.8250
8.1156,45.7180
8.1698,45.6071
8.2571,45.5198
8.3680,45.4656
8.4750,45.4500
9.7250,45.4500
9.8320,45.4656
9.9429,45.5198
10.0302,45.6071
10.0844,45.7180
10.1000,45.8250
10.1000,46.5750
10.0844,46.6820
10.0302,46.7929
9.9429,46.8802
9.8320,46.9344
9.7250,46.9500
8.4750,46.9500
8.3680,46.9344
8.2571,46.8802
8.1698,46.7929
8.1156,46.6820
8.1000,46.5750
Z" /> 
<path style="fill:#000000; fill-opacity:1.0000; stroke:none;fill-rule:evenodd;"
d="M 8.1000,48.1250
8.1156,48.0180
8.1698,47.9071
8.2571,47.8198
8.3680,47.7656
8.4750,47.7500
9.7250,47.7500
9.8320,47.7656
9.9429,47.8198
10.0302,47.9071
10.0844,48.0180
10.1000,48.1250
10.1000,48.8750
10.0844,48.9820
10.0302,49.0929
9.9429,49.1802
9.8320,49.2344
9.7250,49.2500
8.4750,49.2500
8.3680,49.2344
8.2571,49.1802
8.1698,49.0929
8.1156,48.9820
8.1000,48.8750
Z" /> 
<path style="fill:#000000; fill-opacity:1.0000; stroke:none;fill-rule:evenodd;"
d="M 14.4000,47.1000
14.4114,46.9937
14.4612,46.8604
14.5464,46.7464
14.6604,46.6612
14.7937,46.6114
14.9000,46.6000
15.9000,46.6000
16.0063,46.6114
16.1396,46.6612
16.2536,46.7464
16.3388,46.8604
16.3886,46.9937
16.4000,47.1000
16.4000,49.9000
16.3886,50.0063
16.3388,50.1396
16.2536,50.2536
16.1396,50.3388
16.0063,50.3886
15.9000,50.4000
14.9000,50.4000
14.7937,50.3886
14.6604,50.3388
14.5464,50.2536
14.4612,50.1396
14.4114,50.0063
14.4000,49.9000
Z" /> 
<path style="fill:#000000; fill-opacity:1.0000; stroke:none;fill-rule:evenodd;"
d="M 8.1000,50.4250
8.1156,50.3180
8.1698,50.2071
8.2571,50.1198
8.3680,50.0656
8.4750,50.0500
9.7250,50.0500
9.8320,50.0656
9.9429,50.1198
10.0302,50.2071
10.0844,50.3180
10.1000,50.4250
10.1000,51.1750
10.0844,51.2820
10.0302,51.3929
9.9429,51.4802
9.8320,51.5344
9.7250,51.5500
8.4750,51.5500
8.3680,51.5344
8.2571,51.4802
8.1698,51.3929
8.1156,51.2820
8.1000,51.1750
Z" /> 
<path style="fill:#000000; fill-opacity:1.0000; stroke:none;fill-rule:evenodd;"
d="M 44.2500,34.8250
44.2690,34.7293
44.3232,34.6482
44.4043,34.5940
44.5000,34.5750
45.0000,34.5750
45.0957,34.5940
45.1768,34.6482
45.2310,34.7293
45.2500,34.8250
45.2500,35.7750
45.2310,35.8707
45.1768,35.9518
45.0957,36.0060
45.0000,36.0250
44.5000,36.0250
44.4043,36.0060
44.3232,35.9518
44.2690,35.8707
44.2500,35.7750
Z" /> 
<path style="fill:#000000; fill-opacity:1.0000; stroke:none;fill-rule:evenodd;"
d="M 46.1500,34.8250
46.1690,34.7293
46.2232,34.6482
46.3043,34.5940
46.4000,34.5750
46.9000,34.5750
46.9957,34.5940
47.0768,34.6482
47.1310,34.7293
47.1500,34.8250
47.1500,35.7750
47.1310,35.8707
47.0768,35.9518
46.9957,36.0060
46.9000,36.0250
46.4000,36.0250
46.3043,36.0060
46.2232,35.9518
46.1690,35.8707
46.1500,35.7750
Z" /> 
<path style="fill:#000000; fill-opacity:1.0000; stroke:none;fill-rule:evenodd;"
d="M 35.1125,35.8500
35.1315,35.7543
35.1857,35.6732
35.2668,35.6190
35.3625,35.6000
35.8875,35.6000
35.9832,35.6190
36.0643,35.6732
36.1185,35.7543
36.1375,35.8500
36.1375,36.7500
36.1185,36.8457
36.0643,36.9268
35.9832,36.9810
35.8875,37.0000
35.3625,37.0000
35.2668,36.9810
35.1857,36.9268
35.1315,36.8457
35.1125,36.7500
Z" /> 
<path style="fill:#000000; fill-opacity:1.0000; stroke:none;fill-rule:evenodd;"
d="M 36.9375,35.8500
36.9565,35.7543
37.0107,35.6732
37.0918,35.6190
37.1875,35.6000
37.7125,35.6000
37.8082,35.6190
37.8893,35.6732
37.9435,35.7543
37.9625,35.8500
37.9625,36.7500
37.9435,36.8457
37.8893,36.9268
37.8082,36.9810
37.7125,37.0000
37.1875,37.0000
37.0918,36.9810
37.0107,36.9268
36.9565,36.8457
36.9375,36.7500
Z" /> 
<circle cx="47.2500" cy="28.0000" r="0.3000" /> 
<circle cx="25.2500" cy="26.0000" r="0.3000" /> 
<circle cx="44.2745" cy="40.5000" r="0.3000" /> 
<circle cx="56.1427" cy="58.6073" r="0.3000" /> 
<circle cx="34.7500" cy="58.0000" r="0.3000" /> 
<circle cx="45.7833" cy="41.0250" r="0.3000" /> 
<circle cx="19.7500" cy="65.5000" r="0.3000" /> 
<circle cx="45.7833" cy="41.0251" r="0.3000" /> 
<circle cx="60.7500" cy="57.0000" r="0.3000" /> 
<circle cx="50.7500" cy="40.0000" r="0.3000" /> 
<circle cx="40.7500" cy="34.0000" r="0.3000" /> 
<circle cx="6.7500" cy="45.7500" r="0.3000" /> 
<circle cx="8.2500" cy="61.0000" r="0.3000" /> 
<circle cx="34.7500" cy="48.5000" r="0.3000" /> 
<circle cx="8.2500" cy="66.0000" r="0.3000" /> 
<circle cx="17.2500" cy="44.5000" r="0.3000" /> 
<circle cx="19.5000" cy="60.7500" r="0.3000" /> 
<circle cx="29.2500" cy="50.0000" r="0.3000" /> 
<circle cx="9.1000" cy="46.2000" r="0.3000" /> 
<circle cx="15.2500" cy="36.5000" r="0.3000" /> 
<circle cx="39.7500" cy="63.0000" r="0.3000" /> 
<circle cx="58.2500" cy="64.0000" r="0.3000" /> 
<circle cx="66.2500" cy="57.5000" r="0.3000" /> 
<circle cx="41.4846" cy="36.8623" r="0.3000" /> 
<circle cx="45.7833" cy="40.0251" r="0.3000" /> 
<circle cx="12.2500" cy="61.5000" r="0.3000" /> 
<circle cx="16.5100" cy="60.1750" r="0.3000" /> 
<circle cx="43.2500" cy="43.5000" r="0.3000" /> 
<circle cx="50.7772" cy="59.4426" r="0.3000" /> 
<circle cx="38.7500" cy="36.0000" r="0.3000" /> 
<circle cx="43.5422" cy="40.8222" r="0.3000" /> 
<circle cx="42.0500" cy="34.2500" r="0.3000" /> 
<circle cx="44.3243" cy="36.5743" r="0.3000" /> 
<circle cx="41.2500" cy="40.0000" r="0.3000" /> 
<circle cx="49.7611" cy="54.4951" r="0.3000" /> 
<circle cx="41.7500" cy="33.5000" r="0.3000" /> 
<circle cx="56.2500" cy="56.9000" r="0.3000" /> 
<circle cx="57.6464" cy="59.2625" r="0.3000" /> 
<circle cx="34.2500" cy="59.0000" r="0.3000" /> 
<circle cx="57.2500" cy="56.9000" r="0.3000" /> 
<circle cx="47.1534" cy="56.8830" r="0.3000" /> 
<circle cx="32.5375" cy="50.0500" r="0.3000" /> 
<circle cx="45.2500" cy="54.0000" r="0.3000" /> 
<circle cx="45.1147" cy="54.7885" r="0.3000" /> 
<circle cx="45.7391" cy="57.4449" r="0.3000" /> 
<circle cx="46.2530" cy="58.0579" r="0.3000" /> 
<circle cx="43.7375" cy="56.7350" r="0.3000" /> 
<circle cx="45.2524" cy="59.9595" r="0.3000" /> 
<circle cx="43.7375" cy="58.0050" r="0.3000" /> 
<circle cx="36.3490" cy="56.9485" r="0.3000" /> 
<circle cx="45.2052" cy="60.7581" r="0.3000" /> 
<circle cx="45.2052" cy="61.6066" r="0.3000" /> 
<circle cx="36.5625" cy="55.4650" r="0.3000" /> 
<circle cx="45.2052" cy="62.4552" r="0.3000" /> 
<circle cx="36.7029" cy="54.6000" r="0.3000" /> 
<circle cx="23.6500" cy="40.5000" r="0.3000" /> 
<circle cx="28.2500" cy="40.5000" r="0.3000" /> 
<circle cx="14.2500" cy="58.5000" r="0.3000" /> 
<circle cx="12.7600" cy="59.2006" r="0.3000" /> 
<circle cx="15.2500" cy="57.8000" r="0.3000" /> 
<circle cx="15.2500" cy="57.8000" r="0.3000" /> 
<circle cx="58.0385" cy="56.7647" r="0.3000" /> 
<circle cx="55.2500" cy="66.0000" r="0.3000" /> 
</g>
<g style="fill:none; 
stroke:#000000; stroke-width:0.2000; stroke-opacity:1; 
stroke-linecap:round; stroke-linejoin:round;">
<path d="M46.8500 39.0500
L47.9000 40.1000
" />
<path d="M42.2875 62.8000
L41.2625 61.7750
" />
<path d="M40.7500 35.8500
L41.4000 35.2000
" />
<path d="M42.0500 35.8500
L42.6000 35.3000
" />
<path d="M42.6250 58.3636
L42.7557 58.4943
" />
<path d="M42.8914 57.3800
L42.6250 57.6464
" />
<path d="M38.5000 26.7000
L39.5250 25.6750
" />
<path d="M42.7250 37.3250
L42.7250 39.5250
" />
<path d="M43.1996 38.7250
L44.2004 38.7250
" />
<path d="M37.0250 34.9000
L39.3500 34.9000
" />
<path d="M15.4000 48.5000
L17.4500 48.5000
" />
<path d="M44.7000 39.0500
L46.8500 39.0500
" />
<path d="M47.5411 56.3000
L47.4722 56.2311
" />
<path d="M41.4000 34.7000
L41.4000 34.9500
" />
<path d="M37.5875 49.8000
L38.3625 49.0250
" />
<path d="M44.4500 41.7500
L44.4500 43.3000
" />
<path d="M41.4000 34.9500
L42.0500 35.6000
" />
<path d="M45.3632 55.3885
L45.0804 55.3885
" />
<path d="M44.8500 56.4000
L44.8500 57.0936
" />
<path d="M38.5000 28.4250
L35.6250 31.3000
" />
<path d="M35.6250 36.3000
L36.3375 35.5875
" />
<path d="M26.2375 40.5000
L30.4375 36.3000
" />
<path d="M44.9500 55.5189
L44.9500 56.3000
" />
<path d="M42.0500 35.6000
L42.0500 36.3000
" />
<path d="M44.5836 57.3600
L43.8900 57.3600
" />
<path d="M43.8700 57.3800
L42.8914 57.3800
" />
<path d="M43.8900 57.3600
L43.8700 57.3800
" />
<path d="M35.6250 34.8750
L36.3375 35.5875
" />
<path d="M19.9500 46.0000
L25.4500 40.5000
" />
<path d="M48.0750 54.7000
L48.0750 54.3000
" />
<path d="M44.4500 39.3000
L44.7000 39.0500
" />
<path d="M42.6250 57.6464
L42.6250 58.3636
" />
<path d="M47.9000 40.1000
L46.0000 42.0000
" />
<path d="M41.2625 61.7750
L37.6125 61.7750
" />
<path d="M36.3375 35.5875
L37.0250 34.9000
" />
<path d="M40.7500 36.3000
L40.7500 35.8500
" />
<path d="M46.7500 55.5000
L46.1843 55.5000
" />
<path d="M44.8500 57.0936
L44.5836 57.3600
" />
<path d="M44.7500 35.3000
L42.7250 37.3250
" />
<path d="M48.0750 54.7000
L48.6089 54.7000
" />
<path d="M42.8750 26.5000
L43.2500 26.5000
" />
<path d="M42.7250 39.5250
L42.7250 39.1996
" />
<path d="M47.4722 56.2311
L46.7500 56.1485
" />
<path d="M45.4750 49.0250
L46.9500 50.5000
" />
<path d="M36.5875 62.8000
L36.5875 62.3625
" />
<path d="M42.6000 35.3000
L44.7500 35.3000
" />
<path d="M48.8125 54.9036
L48.8125 56.0964
" />
<path d="M46.1843 55.5000
L45.7147 55.0304
" />
<path d="M44.7000 42.0000
L44.4500 41.7500
" />
<path d="M45.0804 55.3885
L44.9500 55.5189
" />
<path d="M41.4000 35.2000
L41.4000 34.7000
" />
<path d="M44.4500 43.3000
L37.9500 49.8000
" />
<path d="M46.9500 53.1750
L48.0750 54.3000
" />
<path d="M44.4500 38.9746
L44.4500 39.3000
" />
<path d="M39.3500 34.9000
L40.7500 36.3000
" />
<path d="M42.0500 25.6750
L42.8750 26.5000
" />
<path d="M35.6250 31.3000
L35.6250 34.8750
" />
<path d="M38.5000 26.7000
L38.5000 28.4250
" />
<path d="M48.0750 56.3000
L47.5411 56.3000
" />
<path d="M39.5250 25.6750
L42.0500 25.6750
" />
<path d="M37.6125 61.7750
L36.5875 62.8000
" />
<path d="M38.3625 49.0250
L45.4750 49.0250
" />
<path d="M36.5875 62.3625
L36.6500 62.3000
" />
<path d="M42.7557 58.4943
L42.2875 58.9625
" />
<path d="M25.4500 40.5000
L26.2375 40.5000
" />
<path d="M48.8125 56.0964
L48.6089 56.3000
" />
<path d="M45.7147 55.0370
L45.3632 55.3885
" />
<path d="M42.2875 58.9625
L42.2875 62.8000
" />
<path d="M42.7250 39.1996
L43.1996 38.7250
" />
<path d="M42.0500 36.3000
L42.0500 35.8500
" />
<path d="M48.6089 56.3000
L48.0750 56.3000
" />
<path d="M9.1000 48.5000
L15.4000 48.5000
" />
<path d="M46.9500 50.5000
L46.9500 53.1750
" />
<path d="M48.6089 54.7000
L48.8125 54.9036
" />
<path d="M37.9500 49.8000
L37.5875 49.8000
" />
<path d="M44.2004 38.7250
L44.4500 38.9746
" />
<path d="M45.7147 55.0304
L45.7147 55.0370
" />
<path d="M44.9500 56.3000
L44.8500 56.4000
" />
<path d="M43.2500 26.5000
L43.2500 28.1000
" />
<path d="M46.7500 56.1485
L46.7500 55.5000
" />
<path d="M30.4375 36.3000
L35.6250 36.3000
" />
<path d="M17.4500 48.5000
L19.9500 46.0000
" />
<path d="M46.0000 42.0000
L44.7000 42.0000
" />
<path d="M55.6500 57.9000
L56.2500 58.5000
" />
<path d="M39.6625 50.8250
L40.4375 50.0500
" />
<path d="M40.7500 34.7000
L40.7500 34.0000
" />
<path d="M45.1750 41.0250
L44.2777 41.0250
" />
<path d="M35.6875 49.8000
L36.7125 50.8250
" />
<path d="M54.9500 57.9000
L55.6500 57.9000
" />
<path d="M26.1500 62.9000
L26.1500 58.5750
" />
<path d="M19.7500 60.5000
L19.5000 60.7500
" />
<path d="M6.7500 45.5000
L6.7500 45.7500
" />
<path d="M30.6375 50.0500
L29.3000 50.0500
" />
<path d="M17.3500 36.7000
L15.4500 36.7000
" />
<path d="M50.6500 40.1000
L50.7500 40.0000
" />
<path d="M45.1750 41.0250
L45.7832 41.0250
" />
<path d="M19.1800 64.9300
L19.7500 65.5000
" />
<path d="M43.9500 41.3058
L43.9500 42.0754
" />
<path d="M35.6875 49.8000
L35.6875 49.4375
" />
<path d="M9.7900 60.7500
L8.5000 60.7500
" />
<path d="M41.4000 36.3000
L41.4000 36.7500
" />
<path d="M35.6875 49.4375
L34.7500 48.5000
" />
<path d="M23.6500 36.7000
L17.3500 36.7000
" />
<path d="M10.9100 60.1750
L10.3650 60.1750
" />
<path d="M60.4825 57.2675
L60.7500 57.0000
" />
<path d="M43.1996 42.3250
L42.9750 42.1004
" />
<path d="M25.9750 58.4000
L29.2875 58.4000
" />
<path d="M42.9750 42.1004
L42.9750 41.7750
" />
<path d="M43.9492 41.3535
L43.9492 41.7492
" />
<path d="M18.0500 46.0000
L17.2500 45.2000
" />
<path d="M26.6125 28.3000
L26.6125 27.3625
" />
<path d="M29.3000 50.0500
L29.2500 50.0000
" />
<path d="M41.5000 36.8500
L42.6000 36.8500
" />
<path d="M41.5000 36.8500
L41.4969 36.8500
" />
<path d="M45.1750 41.0250
L45.1750 41.0250
" />
<path d="M8.5000 60.7500
L8.2500 61.0000
" />
<path d="M64.3825 56.9875
L64.8950 57.5000
" />
<path d="M45.3750 28.0000
L47.2500 28.0000
" />
<path d="M43.9500 42.0754
L43.7004 42.3250
" />
<path d="M64.8950 57.5000
L66.2500 57.5000
" />
<path d="M45.7832 41.0250
L45.7833 41.0251
" />
<path d="M42.9750 41.7750
L42.7250 41.5250
" />
<path d="M6.7500 45.7500
L7.2000 46.2000
" />
<path d="M30.4375 59.5500
L33.6875 62.8000
" />
<path d="M41.4000 36.7500
L41.5000 36.8500
" />
<path d="M23.6500 27.1000
L24.7500 26.0000
" />
<path d="M45.7833 41.0250
L45.1750 41.0250
" />
<path d="M42.3496 28.6496
L44.7254 28.6496
" />
<path d="M56.2500 58.5000
L56.1427 58.6073
" />
<path d="M44.7254 28.6496
L45.3750 28.0000
" />
<path d="M57.7900 66.0000
L57.7900 64.4600
" />
<path d="M17.8550 60.1750
L18.4300 60.7500
" />
<path d="M26.1500 58.5750
L25.9750 58.4000
" />
<path d="M18.4300 60.7500
L19.5000 60.7500
" />
<path d="M36.5625 58.0050
L34.7550 58.0050
" />
<path d="M17.3500 27.1000
L23.6500 27.1000
" />
<path d="M40.4000 26.7000
L42.3496 28.6496
" />
<path d="M26.6125 27.3625
L25.2500 26.0000
" />
<path d="M45.1750 40.0250
L45.7832 40.0250
" />
<path d="M10.3650 60.1750
L9.7900 60.7500
" />
<path d="M40.3875 62.8000
L39.9500 62.8000
" />
<path d="M33.6875 62.8000
L34.6875 62.8000
" />
<path d="M42.7000 36.7500
L42.7000 36.3000
" />
<path d="M49.8000 38.5500
L49.8000 40.1000
" />
<path d="M45.7832 40.0250
L45.7833 40.0251
" />
<path d="M17.2500 45.2000
L17.2500 44.5000
" />
<path d="M18.4300 64.9300
L19.1800 64.9300
" />
<path d="M60.4825 58.2375
L60.4825 57.2675
" />
<path d="M44.2777 41.0250
L43.9492 41.3535
" />
<path d="M15.4500 36.7000
L15.2500 36.5000
" />
<path d="M44.2745 40.5000
L44.2745 40.9813
" />
<path d="M34.6875 59.8800
L36.5625 58.0050
" />
<path d="M9.3200 64.9300
L8.2500 66.0000
" />
<path d="M39.9500 62.8000
L39.7500 63.0000
" />
<path d="M5.7500 46.7500
L6.7500 45.7500
" />
<path d="M34.7550 58.0050
L34.7500 58.0000
" />
<path d="M57.7900 64.4600
L58.2500 64.0000
" />
<path d="M43.7004 42.3250
L43.1996 42.3250
" />
<path d="M44.2745 40.9813
L43.9500 41.3058
" />
<path d="M46.6500 35.3000
L46.6500 35.4000
" />
<path d="M34.6875 62.8000
L34.6875 59.8800
" />
<path d="M49.8000 40.1000
L50.6500 40.1000
" />
<path d="M42.6000 36.8500
L42.7000 36.7500
" />
<path d="M7.2000 46.2000
L9.1000 46.2000
" />
<path d="M43.9492 41.7492
L43.9500 41.7500
" />
<path d="M17.3100 60.1750
L17.8550 60.1750
" />
<path d="M36.7125 50.8250
L39.6625 50.8250
" />
<path d="M46.6500 35.4000
L49.8000 38.5500
" />
<path d="M9.7900 64.9300
L9.3200 64.9300
" />
<path d="M29.2875 58.4000
L30.4375 59.5500
" />
<path d="M24.7500 26.0000
L25.2500 26.0000
" />
<path d="M41.4969 36.8500
L41.4846 36.8623
" />
<path d="M9.1000 50.8000
L11.7100 53.4100
" />
<path d="M11.7100 60.6324
L12.1276 61.0500
" />
<path d="M7.9000 50.8000
L9.1000 50.8000
" />
<path d="M16.5100 60.7854
L16.5100 60.1750
" />
<path d="M11.7100 53.4100
L11.7100 60.1750
" />
<path d="M3.8500 46.7500
L7.9000 50.8000
" />
<path d="M16.5100 60.1750
L16.5100 60.5000
" />
<path d="M12.1276 61.3776
L12.2500 61.5000
" />
<path d="M11.7100 60.1750
L11.7100 60.6324
" />
<path d="M12.1276 61.0500
L12.1276 61.3776
" />
<path d="M61.2325 53.2375
L61.2325 55.5875
" />
<path d="M58.5825 58.2375
L57.8450 57.5000
" />
<path d="M57.8450 57.5000
L54.9500 57.5000
" />
<path d="M61.2325 55.5875
L58.5825 58.2375
" />
<path d="M48.9125 57.0036
L48.6089 56.7000
" />
<path d="M52.3089 52.7250
L52.5125 52.9286
" />
<path d="M49.1161 61.0750
L48.9125 60.8714
" />
<path d="M52.5125 60.8714
L52.3089 61.0750
" />
<path d="M54.2125 55.8000
L54.2125 56.4964
" />
<path d="M53.7500 57.0000
L53.7500 58.5661
" />
<path d="M49.2125 54.7380
L49.2125 59.2964
" />
<path d="M36.1028 63.8250
L35.7875 63.5097
" />
<path d="M35.7875 63.5097
L35.7875 62.0903
" />
<path d="M48.9125 54.4380
L49.2125 54.7380
" />
<path d="M52.3089 61.0750
L49.1161 61.0750
" />
<path d="M48.9125 60.3375
L48.9125 57.0036
" />
<path d="M48.9125 60.8714
L48.9125 60.3375
" />
<path d="M49.1161 52.7250
L52.3089 52.7250
" />
<path d="M54.0500 56.7000
L54.9500 56.7000
" />
<path d="M52.5125 52.9286
L52.5125 53.4625
" />
<path d="M52.5125 59.8036
L52.5125 60.3375
" />
<path d="M53.7500 57.0000
L54.0500 56.7000
" />
<path d="M54.9500 56.7000
L54.4161 56.7000
" />
<path d="M48.9125 52.9286
L49.1161 52.7250
" />
<path d="M52.5125 54.1000
L54.2125 55.8000
" />
<path d="M49.2125 59.2964
L44.6839 63.8250
" />
<path d="M48.9125 53.4625
L48.9125 52.9286
" />
<path d="M42.3375 55.5403
L42.3375 50.0500
" />
<path d="M48.9125 53.4625
L48.9125 54.4380
" />
<path d="M48.6089 56.7000
L48.0750 56.7000
" />
<path d="M54.2125 56.4964
L54.4161 56.7000
" />
<path d="M44.6839 63.8250
L36.1028 63.8250
" />
<path d="M35.7875 62.0903
L42.3375 55.5403
" />
<path d="M52.5125 60.3375
L52.5125 60.8714
" />
<path d="M53.7500 58.5661
L52.5125 59.8036
" />
<path d="M52.5125 53.4625
L52.5125 54.1000
" />
<path d="M45.6500 28.9000
L46.0250 28.9000
" />
<path d="M37.4500 37.0754
L42.3746 42.0000
" />
<path d="M42.3746 42.0000
L42.3746 42.6246
" />
<path d="M46.3250 29.2000
L46.3250 30.7504
" />
<path d="M43.4500 41.7500
L43.4500 40.9144
" />
<path d="M38.4500 36.3000
L38.7500 36.0000
" />
<path d="M43.4500 40.9144
L43.5422 40.8222
" />
<path d="M46.0250 28.9000
L46.3250 29.2000
" />
<path d="M50.9125 60.3375
L50.9125 59.5779
" />
<path d="M37.4500 36.3000
L38.4500 36.3000
" />
<path d="M50.9125 59.5779
L50.7772 59.4426
" />
<path d="M42.0500 34.2500
L42.0500 34.7000
" />
<path d="M37.4500 36.3000
L37.4500 37.0754
" />
<path d="M46.3250 30.7504
L42.9254 34.1500
" />
<path d="M42.1500 34.1500
L42.0500 34.2500
" />
<path d="M42.9254 34.1500
L42.1500 34.1500
" />
<path d="M42.3746 42.6246
L43.2500 43.5000
" />
<path d="M39.5500 31.3000
L41.7500 33.5000
" />
<path d="M41.6254 40.3754
L41.2500 40.0000
" />
<path d="M45.5500 34.5903
L45.5500 36.0097
" />
<path d="M49.6125 57.3625
L49.6125 55.0000
" />
<path d="M44.9855 36.5743
L44.3243 36.5743
" />
<path d="M45.5500 36.0097
L44.9855 36.5743
" />
<path d="M42.7000 34.9000
L42.7500 34.9000
" />
<path d="M51.3125 59.8036
L51.5161 59.6000
" />
<path d="M52.1500 59.6000
L52.9500 58.8000
" />
<path d="M51.9125 59.6036
L51.9161 59.6000
" />
<path d="M44.2653 34.2750
L45.2347 34.2750
" />
<path d="M49.6125 54.6437
L49.7611 54.4951
" />
<path d="M51.3125 60.3375
L51.3125 59.8036
" />
<path d="M51.5161 59.6000
L51.9089 59.6000
" />
<path d="M44.9754 29.7000
L43.3754 31.3000
" />
<path d="M45.2347 34.2750
L45.5500 34.5903
" />
<path d="M51.9089 59.6000
L51.9125 59.6036
" />
<path d="M45.6500 29.7000
L44.9754 29.7000
" />
<path d="M42.7000 34.7000
L42.7000 34.9000
" />
<path d="M49.6125 58.8000
L49.6125 57.3625
" />
<path d="M43.3754 31.3000
L37.4500 31.3000
" />
<path d="M42.3996 41.0250
L41.7500 40.3754
" />
<path d="M37.4500 31.3000
L39.5500 31.3000
" />
<path d="M51.9161 59.6000
L52.1500 59.6000
" />
<path d="M42.7250 41.0250
L42.3996 41.0250
" />
<path d="M49.6125 55.0000
L49.6125 54.6437
" />
<path d="M43.8403 34.7000
L44.2653 34.2750
" />
<path d="M51.6330 58.8000
L49.6125 58.8000
" />
<path d="M41.7500 40.3754
L41.6254 40.3754
" />
<path d="M42.7000 34.7000
L43.8403 34.7000
" />
<path d="M52.9500 58.8000
L51.6330 58.8000
" />
<path d="M54.9500 57.1000
L56.0500 57.1000
" />
<path d="M62.4825 52.4875
L62.4825 56.9875
" />
<path d="M62.0325 52.0375
L62.4825 52.4875
" />
<path d="M60.9672 59.2625
L57.6464 59.2625
" />
<path d="M62.4825 57.7472
L60.9672 59.2625
" />
<path d="M59.9325 52.0375
L62.0325 52.0375
" />
<path d="M62.4825 56.9875
L62.4825 57.7472
" />
<path d="M56.0500 57.1000
L56.2500 56.9000
" />
<path d="M58.7325 53.2375
L59.9325 52.0375
" />
<path d="M56.0015 56.3000
L55.8160 56.4855
" />
<path d="M32.3375 59.5500
L32.8875 59.0000
" />
<path d="M56.8500 56.6515
L56.4985 56.3000
" />
<path d="M57.2500 56.9000
L56.8500 56.9000
" />
<path d="M55.8160 56.4855
L55.6305 56.3000
" />
<path d="M55.6305 56.3000
L54.9500 56.3000
" />
<path d="M32.3375 59.5500
L32.3375 54.4875
" />
<path d="M47.1534 56.8830
L47.3705 57.1000
" />
<path d="M56.4985 56.3000
L56.0015 56.3000
" />
<path d="M56.8500 56.9000
L56.8500 56.6515
" />
<path d="M32.3375 54.4875
L32.1500 54.3000
" />
<path d="M47.3705 57.1000
L48.0750 57.1000
" />
<path d="M32.8875 59.0000
L34.2500 59.0000
" />
<path d="M32.5375 50.0500
L32.5375 51.7875
" />
<path d="M48.0750 55.1000
L46.3500 55.1000
" />
<path d="M46.3500 55.1000
L45.2500 54.0000
" />
<path d="M32.5375 51.7875
L30.0250 54.3000
" />
<path d="M46.5436 57.5000
L46.4885 57.4449
" />
<path d="M44.4382 55.4650
L43.7375 55.4650
" />
<path d="M48.0750 57.5000
L46.5436 57.5000
" />
<path d="M45.1147 54.7885
L44.4382 55.4650
" />
<path d="M46.4885 57.4449
L45.7391 57.4449
" />
<path d="M46.4109 57.9000
L46.2530 58.0579
" />
<path d="M48.0750 57.9000
L46.4109 57.9000
" />
<path d="M46.8843 58.3000
L47.5411 58.3000
" />
<path d="M45.2524 59.9595
L45.2524 59.4976
" />
<path d="M46.2750 59.6883
L46.2750 59.6029
" />
<path d="M46.3500 58.8343
L46.8843 58.3000
" />
<path d="M46.2633 59.7000
L46.2750 59.6883
" />
<path d="M45.2524 59.4976
L45.7143 59.9595
" />
<path d="M47.5411 58.3000
L48.0750 58.3000
" />
<path d="M45.7209 59.9595
L45.9804 59.7000
" />
<path d="M45.7143 59.9595
L45.7209 59.9595
" />
<path d="M45.9804 59.7000
L46.2633 59.7000
" />
<path d="M46.3500 59.5279
L46.3500 58.8343
" />
<path d="M46.2750 59.6029
L46.3500 59.5279
" />
<path d="M46.7500 59.6936
L46.7500 59.0000
" />
<path d="M45.3466 60.8995
L46.1461 60.1000
" />
<path d="M47.0500 58.7000
L48.0750 58.7000
" />
<path d="M46.6750 59.8540
L46.6750 59.7686
" />
<path d="M46.4290 60.1000
L46.6750 59.8540
" />
<path d="M45.2052 60.7581
L45.3466 60.8995
" />
<path d="M46.6750 59.7686
L46.7500 59.6936
" />
<path d="M46.1461 60.1000
L46.4290 60.1000
" />
<path d="M46.7500 59.0000
L47.0500 58.7000
" />
<path d="M47.5411 59.1000
L47.9093 59.1000
" />
<path d="M45.2052 61.6066
L46.3118 60.5000
" />
<path d="M47.3375 59.3036
L47.5411 59.1000
" />
<path d="M47.9093 59.1000
L48.0750 59.1000
" />
<path d="M47.0750 59.9343
L47.3375 59.6718
" />
<path d="M47.3375 59.6718
L47.3375 59.3036
" />
<path d="M46.3118 60.5000
L46.5946 60.5000
" />
<path d="M46.5946 60.5000
L47.0750 60.0196
" />
<path d="M47.0750 60.0196
L47.0750 59.9343
" />
<path d="M23.6500 30.9000
L24.8000 32.0500
" />
<path d="M45.2052 62.4552
L47.4750 60.1853
" />
<path d="M8.1954 47.4500
L7.8000 47.8454
" />
<path d="M16.2386 50.7000
L18.3886 48.5500
" />
<path d="M16.2000 41.2546
L10.0046 47.4500
" />
<path d="M10.0046 47.4500
L8.1954 47.4500
" />
<path d="M36.5625 52.1847
L36.5625 54.1950
" />
<path d="M7.8000 49.1546
L8.1954 49.5500
" />
<path d="M47.4750 60.1000
L48.0750 59.5000
" />
<path d="M14.5614 50.7000
L16.2386 50.7000
" />
<path d="M8.1954 49.5500
L13.4114 49.5500
" />
<path d="M18.3886 48.5500
L32.9278 48.5500
" />
<path d="M7.8000 47.8454
L7.8000 49.1546
" />
<path d="M16.2000 39.7000
L16.2000 41.2546
" />
<path d="M24.8000 32.0500
L24.8000 39.7000
" />
<path d="M23.6500 30.9000
L17.3500 30.9000
" />
<path d="M47.4750 60.1853
L47.4750 60.1000
" />
<path d="M13.4114 49.5500
L14.5614 50.7000
" />
<path d="M24.8000 39.7000
L16.2000 39.7000
" />
<path d="M32.9278 48.5500
L36.5625 52.1847
" />
<path d="M17.3500 40.5000
L23.6500 40.5000
" />
<path d="M43.7375 54.1950
L45.0500 52.8825
" />
<path d="M45.0500 52.8825
L45.0500 50.5000
" />
<path d="M24.1500 58.4000
L14.1500 58.4000
" />
<path d="M12.7600 59.2006
L12.8600 59.3006
" />
<path d="M12.7600 59.2006
L12.7600 59.2006
" />
<path d="M14.1500 58.4000
L14.2500 58.5000
" />
<path d="M12.8600 59.3006
L12.8600 60.1750
" />
<path d="M26.2250 34.9000
L26.2250 30.5625
" />
<path d="M26.2250 30.5625
L28.4875 28.3000
" />
<path d="M14.0619 57.8000
L15.2500 57.8000
" />
<path d="M13.3600 60.1750
L13.3600 58.5019
" />
<path d="M13.6276 61.0500
L13.3600 60.7824
" />
<path d="M20.5500 52.5000
L15.2500 57.8000
" />
<path d="M13.4100 60.1250
L13.4100 59.5833
" />
<path d="M14.3600 60.7824
L14.0924 61.0500
" />
<path d="M24.1500 52.5000
L20.5500 52.5000
" />
<path d="M13.3600 60.7824
L13.3600 60.1750
" />
<path d="M13.3600 58.5019
L14.0619 57.8000
" />
<path d="M14.0924 61.0500
L13.6276 61.0500
" />
<path d="M14.3600 60.1750
L14.3600 60.7824
" />
<path d="M17.6954 62.9000
L24.3250 62.9000
" />
<path d="M15.8600 59.5676
L15.7772 59.4847
" />
<path d="M15.8600 60.1750
L15.8600 59.5676
" />
<path d="M15.8600 61.0646
L17.6954 62.9000
" />
<path d="M15.8600 60.1750
L15.8600 61.0646
" />
<path d="M23.6528 59.4000
L24.6472 59.4000
" />
<path d="M15.3428 59.0847
L23.3375 59.0847
" />
<path d="M13.8600 60.1750
L13.8600 59.5676
" />
<path d="M23.3375 59.0847
L23.6528 59.4000
" />
<path d="M14.1276 59.3000
L14.5924 59.3000
" />
<path d="M24.9625 59.0847
L24.9625 50.3625
" />
<path d="M24.6472 59.4000
L24.9625 59.0847
" />
<path d="M13.8600 59.5676
L14.1276 59.3000
" />
<path d="M14.8600 59.5676
L15.3428 59.0847
" />
<path d="M14.8600 60.1750
L14.8600 59.5676
" />
<path d="M14.5924 59.3000
L14.8600 59.5676
" />
<path d="M24.9625 50.3625
L24.1500 49.5500
" />
<path d="M57.8500 56.6515
L57.4985 56.3000
" />
<path d="M57.4985 56.3000
L57.0642 56.3000
" />
<path d="M55.8160 55.9198
L55.7962 55.9000
" />
<path d="M57.8500 56.7647
L57.8500 56.6515
" />
<path d="M55.7962 55.9000
L55.4839 55.9000
" />
<path d="M55.8358 55.9000
L55.8160 55.9198
" />
<path d="M56.6642 55.9000
L55.8358 55.9000
" />
<path d="M55.4839 55.9000
L54.9500 55.9000
" />
<path d="M58.0385 56.7647
L57.8500 56.7647
" />
<path d="M57.0642 56.3000
L56.6642 55.9000
" />
<path d="M58.1125 51.6375
L55.6875 54.0625
" />
<path d="M62.1982 51.6375
L58.1125 51.6375
" />
<path d="M55.6875 54.0625
L55.6875 55.2964
" />
<path d="M55.6875 55.2964
L55.4839 55.5000
" />
<path d="M55.4839 55.5000
L54.9500 55.5000
" />
<path d="M60.3300 66.0000
L63.5825 62.7475
" />
<path d="M63.5825 62.7475
L63.5825 53.0218
" />
<path d="M63.5825 53.0218
L62.1982 51.6375
" />
<path style="fill:none; 
stroke:#000000; stroke-width:0.0500; stroke-opacity:1; 
stroke-linecap:round; stroke-linejoin:round;fill:none"
d="M 0.0000,0.0000
77.5000,0.0000
77.5000,71.7500
0.0000,71.7500
Z" /> 
</g>
<g style="fill:#FFFFFF; fill-opacity:1.0000; stroke:none;">
<circle cx="47.2500" cy="28.0000" r="0.1500" /> 
<circle cx="25.2500" cy="26.0000" r="0.1500" /> 
<circle cx="44.2745" cy="40.5000" r="0.1500" /> 
<circle cx="56.1427" cy="58.6073" r="0.1500" /> 
<circle cx="34.7500" cy="58.0000" r="0.1500" /> 
<circle cx="45.7833" cy="41.0250" r="0.1500" /> 
<circle cx="19.7500" cy="65.5000" r="0.1500" /> 
<circle cx="45.7833" cy="41.0251" r="0.1500" /> 
<circle cx="60.7500" cy="57.0000" r="0.1500" /> 
<circle cx="50.7500" cy="40.0000" r="0.1500" /> 
<circle cx="40.7500" cy="34.0000" r="0.1500" /> 
<circle cx="6.7500" cy="45.7500" r="0.1500" /> 
<circle cx="8.2500" cy="61.0000" r="0.1500" /> 
<circle cx="34.7500" cy="48.5000" r="0.1500" /> 
<circle cx="8.2500" cy="66.0000" r="0.1500" /> 
<circle cx="17.2500" cy="44.5000" r="0.1500" /> 
<circle cx="19.5000" cy="60.7500" r="0.1500" /> 
<circle cx="29.2500" cy="50.0000" r="0.1500" /> 
<circle cx="9.1000" cy="46.2000" r="0.1500" /> 
<circle cx="15.2500" cy="36.5000" r="0.1500" /> 
<circle cx="39.7500" cy="63.0000" r="0.1500" /> 
<circle cx="58.2500" cy="64.0000" r="0.1500" /> 
<circle cx="66.2500" cy="57.5000" r="0.1500" /> 
<circle cx="41.4846" cy="36.8623" r="0.1500" /> 
<circle cx="45.7833" cy="40.0251" r="0.1500" /> 
<circle cx="12.2500" cy="61.5000" r="0.1500" /> 
<circle cx="16.5100" cy="60.1750" r="0.1500" /> 
<circle cx="43.2500" cy="43.5000" r="0.1500" /> 
<circle cx="50.7772" cy="59.4426" r="0.1500" /> 
<circle cx="38.7500" cy="36.0000" r="0.1500" /> 
<circle cx="43.5422" cy="40.8222" r="0.1500" /> 
<circle cx="42.0500" cy="34.2500" r="0.1500" /> 
<circle cx="44.3243" cy="36.5743" r="0.1500" /> 
<circle cx="41.2500" cy="40.0000" r="0.1500" /> 
<circle cx="49.7611" cy="54.4951" r="0.1500" /> 
<circle cx="41.7500" cy="33.5000" r="0.1500" /> 
<circle cx="56.2500" cy="56.9000" r="0.1500" /> 
<circle cx="57.6464" cy="59.2625" r="0.1500" /> 
<circle cx="34.2500" cy="59.0000" r="0.1500" /> 
<circle cx="57.2500" cy="56.9000" r="0.1500" /> 
<circle cx="47.1534" cy="56.8830" r="0.1500" /> 
<circle cx="32.5375" cy="50.0500" r="0.1500" /> 
<circle cx="45.2500" cy="54.0000" r="0.1500" /> 
<circle cx="45.1147" cy="54.7885" r="0.1500" /> 
<circle cx="45.7391" cy="57.4449" r="0.1500" /> 
<circle cx="46.2530" cy="58.0579" r="0.1500" /> 
<circle cx="43.7375" cy="56.7350" r="0.1500" /> 
<circle cx="45.2524" cy="59.9595" r="0.1500" /> 
<circle cx="43.7375" cy="58.0050" r="0.1500" /> 
<circle cx="36.3490" cy="56.9485" r="0.1500" /> 
<circle cx="45.2052" cy="60.7581" r="0.1500" /> 
<circle cx="45.2052" cy="61.6066" r="0.1500" /> 
<circle cx="36.5625" cy="55.4650" r="0.1500" /> 
<circle cx="45.2052" cy="62.4552" r="0.1500" /> 
<circle cx="36.7029" cy="54.6000" r="0.1500" /> 
<circle cx="23.6500" cy="40.5000" r="0.1500" /> 
<circle cx="28.2500" cy="40.5000" r="0.1500" /> 
<circle cx="14.2500" cy="58.5000" r="0.1500" /> 
<circle cx="12.7600" cy="59.2006" r="0.1500" /> 
<circle cx="15.2500" cy="57.8000" r="0.1500" /> 
<circle cx="15.2500" cy="57.8000" r="0.1500" /> 
<circle cx="58.0385" cy="56.7647" r="0.1500" /> 
<circle cx="55.2500" cy="66.0000" r="0.1500" /> 
</g>
<g style="fill:#000000; fill-opacity:1.0000; stroke:none;">
<circle cx="11.2200" cy="61.2500" r="0.3250" /> 
<circle cx="17.0000" cy="61.2500" r="0.3250" /> 
</g>
<g style="fill:none; 
stroke:#FFFFFF; stroke-width:0.6000; stroke-opacity:1; 
stroke-linecap:round; stroke-linejoin:round;">
<path d="M9.7900 60.2000
L9.7900 61.3000
" />
</g>
<g style="fill:none; 
stroke:#FFFFFF; stroke-width:0.6000; stroke-opacity:1; 
stroke-linecap:round; stroke-linejoin:round;">
<path d="M9.7900 64.5300
L9.7900 65.3300
" />
</g>
<g style="fill:none; 
stroke:#FFFFFF; stroke-width:0.6000; stroke-opacity:1; 
stroke-linecap:round; stroke-linejoin:round;">
<path d="M18.4300 60.2000
L18.4300 61.3000
" />
</g>
<g style="fill:none; 
stroke:#FFFFFF; stroke-width:0.6000; stroke-opacity:1; 
stroke-linecap:round; stroke-linejoin:round;">
<path d="M18.4300 64.5300
L18.4300 65.3300
" />
</g>
<g style="fill:#FFFFFF; fill-opacity:1.0000; stroke:none;">
<circle cx="55.2500" cy="66.0000" r="0.5000" /> 
</g>
<g style="fill:#FFFFFF; fill-opacity:1.0000; stroke:none;">
<circle cx="57.7900" cy="66.0000" r="0.5000" /> 
</g>
<g style="fill:#FFFFFF; fill-opacity:1.0000; stroke:none;">
<circle cx="60.3300" cy="66.0000" r="0.5000" /> 
</g> 
</svg>
